<svg width="21" height="22" viewBox="0 0 21 22" fill="none" xmlns="http://www.w3.org/2000/svg">
<path d="M10.5 5.41797C9.85103 5.41797 9.21663 5.61041 8.67704 5.97096C8.13744 6.33151 7.71687 6.84397 7.46852 7.44354C7.22017 8.04311 7.15519 8.70286 7.2818 9.33936C7.40841 9.97586 7.72091 10.5605 8.17981 11.0194C8.6387 11.4783 9.22336 11.7908 9.85986 11.9174C10.4964 12.044 11.1561 11.979 11.7557 11.7307C12.3553 11.4823 12.8677 11.0618 13.2283 10.5222C13.5888 9.98259 13.7812 9.34819 13.7812 8.69922C13.7812 7.82898 13.4355 6.99438 12.8202 6.37902C12.2048 5.76367 11.3702 5.41797 10.5 5.41797ZM10.5 10.668C10.1106 10.668 9.72998 10.5525 9.40622 10.3362C9.08246 10.1198 8.83012 9.81237 8.68111 9.45263C8.5321 9.09289 8.49311 8.69704 8.56908 8.31514C8.64504 7.93324 8.83255 7.58244 9.10788 7.3071C9.38322 7.03177 9.73402 6.84426 10.1159 6.7683C10.4978 6.69233 10.8937 6.73132 11.2534 6.88033C11.6131 7.02934 11.9206 7.28168 12.137 7.60544C12.3533 7.9292 12.4688 8.30984 12.4688 8.69922C12.4688 9.22136 12.2613 9.72212 11.8921 10.0913C11.5229 10.4605 11.0221 10.668 10.5 10.668ZM10.5 1.48047C8.58613 1.48264 6.75128 2.24388 5.39797 3.59719C4.04466 4.9505 3.28342 6.78535 3.28125 8.69922C3.28125 11.275 4.47152 14.005 6.72656 16.5947C7.73983 17.765 8.88025 18.8187 10.1268 19.7365C10.2371 19.8138 10.3686 19.8553 10.5033 19.8553C10.638 19.8553 10.7695 19.8138 10.8798 19.7365C12.124 18.8183 13.2622 17.7646 14.2734 16.5947C16.5252 14.005 17.7188 11.275 17.7188 8.69922C17.7166 6.78535 16.9553 4.9505 15.602 3.59719C14.2487 2.24388 12.4139 1.48264 10.5 1.48047ZM10.5 18.3789C9.14402 17.3125 4.59375 13.3955 4.59375 8.69922C4.59375 7.13278 5.21601 5.63051 6.32365 4.52287C7.43129 3.41523 8.93357 2.79297 10.5 2.79297C12.0664 2.79297 13.5687 3.41523 14.6763 4.52287C15.784 5.63051 16.4062 7.13278 16.4062 8.69922C16.4062 13.3939 11.856 17.3125 10.5 18.3789Z" fill="#7FBE24"/>
</svg>
