<svg width="31" height="31" viewBox="0 0 31 31" fill="none" xmlns="http://www.w3.org/2000/svg">
<path d="M22.3051 11.0795C22.416 11.1902 22.5039 11.3217 22.5639 11.4665C22.6239 11.6112 22.6548 11.7664 22.6548 11.9231C22.6548 12.0798 22.6239 12.2349 22.5639 12.3797C22.5039 12.5244 22.416 12.6559 22.3051 12.7666L13.9589 21.1128C13.8482 21.2236 13.7167 21.3116 13.572 21.3716C13.4272 21.4316 13.2721 21.4625 13.1154 21.4625C12.9587 21.4625 12.8036 21.4316 12.6588 21.3716C12.5141 21.3116 12.3826 21.2236 12.2718 21.1128L8.69491 17.5359C8.47118 17.3121 8.3455 17.0087 8.3455 16.6923C8.3455 16.3759 8.47118 16.0725 8.69491 15.8487C8.91863 15.625 9.22207 15.4993 9.53847 15.4993C9.85486 15.4993 10.1583 15.625 10.382 15.8487L13.1154 18.5836L20.618 11.0795C20.7287 10.9687 20.8602 10.8807 21.005 10.8207C21.1497 10.7607 21.3049 10.7298 21.4615 10.7298C21.6182 10.7298 21.7734 10.7607 21.9181 10.8207C22.0629 10.8807 22.1944 10.9687 22.3051 11.0795ZM31 15.5C31 18.5656 30.0909 21.5624 28.3878 24.1113C26.6846 26.6603 24.2638 28.647 21.4316 29.8201C18.5993 30.9933 15.4828 31.3002 12.4761 30.7022C9.4694 30.1041 6.70756 28.6279 4.53985 26.4601C2.37214 24.2924 0.895906 21.5306 0.297835 18.5239C-0.300236 15.5172 0.00671591 12.4007 1.17987 9.5684C2.35303 6.73615 4.33971 4.31538 6.88867 2.61222C9.43763 0.909059 12.4344 0 15.5 0C19.6095 0.00433973 23.5495 1.63876 26.4554 4.54464C29.3612 7.45051 30.9957 11.3905 31 15.5ZM28.6154 15.5C28.6154 12.906 27.8462 10.3703 26.405 8.21348C24.9639 6.05667 22.9156 4.37564 20.519 3.38296C18.1225 2.39029 15.4855 2.13056 12.9413 2.63662C10.3972 3.14268 8.06025 4.3918 6.22603 6.22602C4.39181 8.06024 3.14269 10.3972 2.63663 12.9413C2.13057 15.4854 2.3903 18.1225 3.38297 20.519C4.37564 22.9156 6.05667 24.9639 8.21349 26.405C10.3703 27.8462 12.906 28.6154 15.5 28.6154C18.9772 28.6114 22.3109 27.2284 24.7696 24.7696C27.2284 22.3109 28.6114 18.9772 28.6154 15.5Z" fill="#7FBE24"/>
</svg>
