<svg width="141" height="31" viewBox="0 0 141 31" fill="none" xmlns="http://www.w3.org/2000/svg">
<path d="M22.5191 13.3996C22.1401 13.7809 21.8499 14.2411 21.6691 14.7473C21.4883 15.2536 21.4214 15.7935 21.4731 16.3286L21.4551 16.3106C21.5083 16.9405 21.4233 17.5743 21.2062 18.168C20.9891 18.7616 20.6451 19.3007 20.1982 19.7477C19.7512 20.1946 19.2121 20.5387 18.6184 20.7557C18.0248 20.9728 17.3909 21.0578 16.7611 21.0046L16.7791 21.0226C16.0257 20.9525 15.269 21.1164 14.6121 21.4921C13.9553 21.8678 13.4303 22.4369 13.1088 23.1219C12.7873 23.8069 12.6848 24.5743 12.8154 25.3197C12.9461 26.065 13.3034 26.7519 13.8387 27.2867C14.374 27.8215 15.0612 28.1782 15.8066 28.3081C16.5521 28.4381 17.3194 28.3349 18.0041 28.0128C18.6888 27.6906 19.2574 27.1652 19.6325 26.508C20.0076 25.8508 20.1709 25.094 20.1001 24.3406L20.1191 24.3586C20.0659 23.7288 20.1508 23.0949 20.3679 22.5012C20.585 21.9076 20.9291 21.3685 21.376 20.9215C21.823 20.4746 22.3621 20.1305 22.9557 19.9135C23.5494 19.6964 24.1832 19.6114 24.8131 19.6646L24.7941 19.6466C25.4095 19.7019 26.029 19.601 26.5951 19.3532C27.1611 19.1054 27.6555 18.7187 28.0323 18.229C28.4091 17.7393 28.6563 17.1623 28.7507 16.5517C28.8452 15.941 28.784 15.3164 28.5728 14.7356C28.3616 14.1549 28.0072 13.6369 27.5425 13.2296C27.0778 12.8223 26.5178 12.5389 25.9144 12.4057C25.311 12.2725 24.6837 12.2937 24.0907 12.4674C23.4977 12.6412 22.9582 12.9618 22.5221 13.3996H22.5191Z" fill="#A0A0A0"/>
<path d="M15.1421 18.6646L15.1231 18.6466C15.6584 18.7005 16.199 18.6348 16.7059 18.4542C17.2127 18.2736 17.6731 17.9827 18.0537 17.6024C18.4342 17.2221 18.7256 16.7619 18.9065 16.2552C19.0875 15.7485 19.1536 15.208 19.1001 14.6726L19.1191 14.6906C19.0659 14.0607 19.1509 13.4269 19.3679 12.8332C19.585 12.2396 19.9291 11.7005 20.376 11.2535C20.823 10.8066 21.3621 10.4625 21.9557 10.2455C22.5494 10.0283 23.1832 9.9434 23.8131 9.99657L23.7941 9.97857C24.5476 10.0494 25.3045 9.88592 25.9617 9.51066C26.619 9.1354 27.1444 8.56653 27.4664 7.88166C27.7884 7.19681 27.8913 6.42928 27.7611 5.68376C27.6309 4.93825 27.2739 4.25108 26.7387 3.71593C26.2036 3.1808 25.5164 2.82376 24.7709 2.69354C24.0254 2.56331 23.2579 2.66623 22.573 2.98825C21.8881 3.31026 21.3193 3.83571 20.944 4.49292C20.5687 5.15012 20.4053 5.90708 20.4761 6.66056L20.4581 6.64156C20.5114 7.27145 20.4266 7.90539 20.2096 8.49911C19.9926 9.09283 19.6485 9.63203 19.2016 10.0791C18.7546 10.526 18.2154 10.8701 17.6217 11.0871C17.0279 11.3041 16.394 11.3889 15.7641 11.3356L15.7821 11.3546C15.2468 11.3007 14.7061 11.3664 14.1993 11.547C13.6925 11.7275 13.2321 12.0185 12.8515 12.3988C12.4709 12.7791 12.1796 13.2393 11.9986 13.746C11.8177 14.2527 11.7516 14.7932 11.8051 15.3286L11.7871 15.3106C11.8401 15.9404 11.755 16.5742 11.5379 17.1678C11.3207 17.7613 10.9767 18.3004 10.5298 18.7473C10.0829 19.1942 9.54385 19.5382 8.95029 19.7554C8.35673 19.9725 7.72294 20.0576 7.09313 20.0046L7.11113 20.0226C6.35765 19.9518 5.60068 20.1152 4.94347 20.4905C4.28627 20.8658 3.76082 21.4346 3.43881 22.1195C3.11679 22.8044 3.01387 23.5719 3.1441 24.3174C3.27433 25.0629 3.63137 25.7501 4.1665 26.2852C4.70164 26.8204 5.38882 27.1774 6.13433 27.3076C6.87984 27.4378 7.64737 27.3349 8.33224 27.0129C9.0171 26.6909 9.58597 26.1655 9.96123 25.5083C10.3365 24.851 10.4999 24.0941 10.4291 23.3406L10.4481 23.3586C10.3949 22.7287 10.4799 22.0949 10.697 21.5012C10.914 20.9076 11.2581 20.3685 11.705 19.9215C12.152 19.4746 12.6911 19.1305 13.2847 18.9135C13.8784 18.6964 14.5122 18.6114 15.1421 18.6646Z" fill="#A0A0A0"/>
<path d="M8.44013 16.6576C8.81915 16.2764 9.10933 15.8162 9.28997 15.3099C9.47061 14.8036 9.53725 14.2636 9.48513 13.7286L9.50412 13.7466C9.45092 13.1166 9.53588 12.4825 9.75309 11.8887C9.9703 11.2949 10.3145 10.7557 10.7617 10.3087C11.2089 9.86168 11.7482 9.51769 12.3421 9.30074C12.936 9.08378 13.5701 8.99908 14.2001 9.05257L14.1811 9.03456C14.9343 9.10513 15.691 8.94164 16.3479 8.5664C17.0048 8.19117 17.5299 7.62245 17.8518 6.9378C18.1736 6.25314 18.2764 5.48588 18.1462 4.74065C18.016 3.99542 17.659 3.3085 17.1241 2.77356C16.5892 2.23862 15.9022 1.8817 15.157 1.75148C14.4118 1.62125 13.6445 1.72407 12.9599 2.04589C12.2752 2.36771 11.7065 2.89288 11.3313 3.54978C10.956 4.20668 10.7925 4.96335 10.8631 5.71657L10.8451 5.69857C10.8983 6.32841 10.8133 6.96229 10.5962 7.55592C10.3791 8.14956 10.0351 8.68867 9.58819 9.13563C9.14124 9.58259 8.60212 9.92662 8.00848 10.1437C7.41484 10.3608 6.78098 10.4458 6.15113 10.3926L6.16913 10.4106C5.5537 10.3554 4.93429 10.4565 4.36831 10.7044C3.80233 10.9523 3.30808 11.3391 2.93137 11.8289C2.55466 12.3186 2.30768 12.8956 2.2133 13.5062C2.11893 14.1169 2.18022 14.7415 2.39149 15.3221C2.60276 15.9028 2.95719 16.4207 3.42192 16.8279C3.88665 17.2352 4.44665 17.5185 5.05003 17.6517C5.6534 17.7848 6.28063 17.7635 6.8736 17.5898C7.46656 17.416 8.00606 17.0954 8.44212 16.6576H8.44013Z" fill="#A0A0A0"/>
<path d="M39.4171 6.68357H42.3871V21.1366H39.4171V6.68357Z" fill="#A0A0A0"/>
<path d="M44.0691 16.1876C44.065 15.149 44.3692 14.1324 44.9432 13.2668C45.5172 12.4012 46.3352 11.7254 47.2936 11.3251C48.252 10.9247 49.3076 10.8178 50.3268 11.0179C51.346 11.218 52.2829 11.716 53.0188 12.449C53.7547 13.1819 54.2565 14.1168 54.4607 15.1352C54.6649 16.1536 54.5622 17.2097 54.1657 18.1697C53.7692 19.1296 53.0967 19.9504 52.2334 20.5278C51.37 21.1053 50.3548 21.4136 49.3161 21.4136C48.6267 21.4215 47.9426 21.2918 47.3038 21.0322C46.665 20.7726 46.0844 20.3883 45.5959 19.9018C45.1073 19.4152 44.7207 18.8361 44.4586 18.1984C44.1964 17.5607 44.064 16.8771 44.0691 16.1876ZM51.5931 16.1876C51.5807 15.7399 51.4366 15.3058 51.1789 14.9395C50.9211 14.5733 50.5611 14.2911 50.1439 14.1284C49.7266 13.9656 49.2707 13.9294 48.833 14.0244C48.3953 14.1194 47.9953 14.3412 47.683 14.6623C47.3708 14.9833 47.16 15.3893 47.0773 15.8295C46.9945 16.2696 47.0432 16.7244 47.2175 17.137C47.3918 17.5496 47.6838 17.9016 48.057 18.1491C48.4303 18.3966 48.8683 18.5286 49.3161 18.5286C49.6228 18.5368 49.9279 18.4813 50.2122 18.3657C50.4964 18.2501 50.7536 18.0769 50.9675 17.857C51.1814 17.637 51.3475 17.3751 51.4551 17.0878C51.5628 16.8005 51.6098 16.494 51.5931 16.1876Z" fill="#A0A0A0"/>
<path d="M66.4001 11.2376V20.6376C66.4001 23.9636 63.8061 25.3696 61.1731 25.3696C60.2461 25.439 59.3178 25.2517 58.4901 24.8284C57.6625 24.405 56.9674 23.7619 56.4811 22.9696L59.0151 21.5046C59.2195 21.9176 59.5452 22.2583 59.9485 22.4812C60.3519 22.704 60.8137 22.7984 61.2721 22.7516C61.5651 22.7922 61.8635 22.7664 62.1452 22.6761C62.4268 22.5858 62.6846 22.4333 62.8994 22.23C63.1142 22.0266 63.2805 21.7776 63.3861 21.5012C63.4916 21.2249 63.5336 20.9284 63.5091 20.6336V19.7286C63.1613 20.1541 62.7187 20.4922 62.2166 20.7157C61.7145 20.9392 61.1671 21.0419 60.6181 21.0156C59.3119 20.9744 58.073 20.4266 57.1636 19.488C56.2542 18.5495 55.7457 17.2939 55.7457 15.9871C55.7457 14.6803 56.2542 13.4247 57.1636 12.4862C58.073 11.5476 59.3119 10.9998 60.6181 10.9586C61.1671 10.9323 61.7145 11.035 62.2166 11.2585C62.7187 11.482 63.1613 11.8201 63.5091 12.2456V11.2356L66.4001 11.2376ZM63.5101 15.9886C63.5301 15.51 63.4063 15.0363 63.1548 14.6286C62.9033 14.2208 62.5355 13.8977 62.0988 13.7008C61.6621 13.5038 61.1765 13.4421 60.7044 13.5235C60.2323 13.6049 59.7954 13.8257 59.4498 14.1576C59.1043 14.4894 58.866 14.917 58.7655 15.3854C58.6651 15.8538 58.7071 16.3416 58.8863 16.7859C59.0654 17.2302 59.3734 17.6108 59.7706 17.8786C60.1678 18.1464 60.6361 18.2892 61.1151 18.2886C61.4272 18.3104 61.7403 18.2666 62.0344 18.16C62.3285 18.0534 62.597 17.8863 62.8226 17.6697C63.0482 17.453 63.226 17.1915 63.3444 16.9019C63.4628 16.6124 63.5193 16.3013 63.5101 15.9886Z" fill="#A0A0A0"/>
<path d="M68.0821 16.1876C68.078 15.149 68.3821 14.1324 68.9562 13.2668C69.5302 12.4012 70.3482 11.7254 71.3066 11.3251C72.265 10.9247 73.3206 10.8178 74.3398 11.0179C75.359 11.218 76.2959 11.716 77.0318 12.449C77.7677 13.1819 78.2695 14.1168 78.4737 15.1352C78.6779 16.1536 78.5752 17.2097 78.1787 18.1697C77.7822 19.1296 77.1097 19.9504 76.2464 20.5278C75.383 21.1053 74.3678 21.4136 73.3291 21.4136C72.6397 21.4215 71.9555 21.2918 71.3168 21.0322C70.678 20.7726 70.0974 20.3883 69.6089 19.9018C69.1203 19.4152 68.7337 18.8361 68.4716 18.1984C68.2094 17.5607 68.077 16.8771 68.0821 16.1876ZM75.6061 16.1876C75.5937 15.7399 75.4496 15.3058 75.1919 14.9395C74.9341 14.5733 74.5741 14.2911 74.1569 14.1284C73.7396 13.9656 73.2836 13.9294 72.846 14.0244C72.4083 14.1194 72.0083 14.3412 71.696 14.6623C71.3838 14.9833 71.173 15.3893 71.0902 15.8295C71.0074 16.2696 71.0562 16.7244 71.2305 17.137C71.4048 17.5496 71.6968 17.9016 72.07 18.1491C72.4433 18.3966 72.8812 18.5286 73.3291 18.5286C73.6358 18.5368 73.9409 18.4813 74.2251 18.3657C74.5094 18.2501 74.7666 18.0769 74.9805 17.857C75.1944 17.637 75.3605 17.3751 75.4681 17.0878C75.5758 16.8005 75.6228 16.494 75.6061 16.1876Z" fill="#A0A0A0"/>
<path d="M79.9611 8.58456C79.9611 8.23211 80.0656 7.88758 80.2614 7.59454C80.4572 7.30149 80.7356 7.07308 81.0612 6.93821C81.3868 6.80333 81.7451 6.76804 82.0908 6.8368C82.4364 6.90556 82.754 7.07528 83.0032 7.3245C83.2524 7.57371 83.4221 7.89123 83.4909 8.23691C83.5596 8.58258 83.5243 8.94088 83.3895 9.2665C83.2546 9.59212 83.0262 9.87043 82.7331 10.0663C82.4401 10.2621 82.0956 10.3666 81.7431 10.3666C81.272 10.3619 80.8214 10.1727 80.4882 9.83944C80.1551 9.50626 79.9658 9.05572 79.9611 8.58456ZM80.2611 11.2376H83.2321V21.1376H80.2571L80.2611 11.2376Z" fill="#A0A0A0"/>
<path d="M96.0561 16.1876C96.0904 16.8419 95.9951 17.4965 95.7755 18.1138C95.556 18.7311 95.2166 19.2989 94.7768 19.7846C94.3371 20.2702 93.8056 20.6642 93.2131 20.9438C92.6205 21.2233 91.9786 21.383 91.3241 21.4136C90.7737 21.4436 90.2236 21.3508 89.7135 21.1419C89.2034 20.9329 88.7463 20.6131 88.3751 20.2056V25.0966H85.4051V11.2376H88.3751V12.1676C88.7464 11.7604 89.2037 11.4408 89.7137 11.2321C90.2238 11.0233 90.7738 10.9306 91.3241 10.9606C91.9787 10.9911 92.6208 11.1507 93.2135 11.4303C93.8062 11.7099 94.3377 12.1039 94.7775 12.5897C95.2173 13.0755 95.5567 13.6435 95.7761 14.261C95.9955 14.8784 96.0907 15.5332 96.0561 16.1876ZM93.0861 16.1876C93.0745 15.7243 92.9265 15.2747 92.6606 14.895C92.3947 14.5154 92.0228 14.2226 91.5914 14.0534C91.1599 13.8841 90.6881 13.8458 90.235 13.9434C89.7819 14.0409 89.3677 14.2699 89.0441 14.6017C88.7205 14.9336 88.502 15.3534 88.4159 15.8089C88.3298 16.2643 88.3799 16.7349 88.56 17.162C88.74 17.5891 89.0421 17.9535 89.4283 18.2098C89.8145 18.466 90.2676 18.6027 90.7311 18.6026C91.0493 18.6168 91.3669 18.5635 91.6631 18.4463C91.9592 18.3292 92.2273 18.1507 92.4496 17.9227C92.672 17.6946 92.8436 17.4222 92.9533 17.1232C93.063 16.8242 93.1083 16.5053 93.0861 16.1876Z" fill="#A0A0A0"/>
<path d="M105.221 18.1666C105.221 20.4436 103.242 21.4136 101.104 21.4136C100.24 21.4918 99.3728 21.3092 98.6139 20.8891C97.855 20.4691 97.2396 19.8311 96.8471 19.0576L99.4201 17.5926C99.5242 17.9501 99.7478 18.2612 100.054 18.4737C100.359 18.6863 100.729 18.7876 101.1 18.7606C101.812 18.7606 102.169 18.5426 102.169 18.1476C102.169 17.0576 97.2981 17.6326 97.2981 14.2076C97.2981 12.0486 99.1201 10.9606 101.179 10.9606C101.953 10.9361 102.719 11.1197 103.398 11.4922C104.077 11.8648 104.644 12.4126 105.039 13.0786L102.505 14.4446C102.394 14.1853 102.209 13.9644 101.973 13.8095C101.737 13.6546 101.461 13.5726 101.179 13.5736C100.664 13.5736 100.347 13.7736 100.347 14.1276C100.351 15.2566 105.221 14.5036 105.221 18.1666Z" fill="#A0A0A0"/>
<path d="M116.07 11.2376V21.1376H113.1V20.2066C112.757 20.6174 112.322 20.9411 111.83 21.1511C111.338 21.3611 110.804 21.4514 110.27 21.4146C108.27 21.4146 106.57 19.9896 106.57 17.3146V11.2376H109.54V16.8796C109.515 17.1154 109.542 17.3538 109.619 17.5781C109.695 17.8025 109.82 18.0075 109.984 18.1788C110.148 18.3501 110.347 18.4836 110.568 18.5701C110.788 18.6566 111.025 18.694 111.262 18.6796C112.351 18.6796 113.103 18.0466 113.103 16.6406V11.2406L116.07 11.2376Z" fill="#A0A0A0"/>
<path d="M133.1 15.0586V21.1366H130.13V15.3156C130.13 14.3256 129.655 13.6926 128.705 13.6926C127.715 13.6926 127.16 14.3856 127.16 15.5536V21.1366H124.191V15.3156C124.191 14.3256 123.716 13.6926 122.765 13.6926C121.775 13.6926 121.221 14.3856 121.221 15.5536V21.1366H118.251V11.2366H121.221V12.1466C121.529 11.7429 121.933 11.4227 122.396 11.2154C122.86 11.008 123.368 10.9201 123.874 10.9596C124.382 10.9347 124.888 11.042 125.343 11.2709C125.797 11.4997 126.184 11.8425 126.467 12.2656C126.796 11.8229 127.232 11.4709 127.734 11.2425C128.236 11.0141 128.788 10.9168 129.338 10.9596C131.611 10.9606 133.1 12.5836 133.1 15.0586Z" fill="#A0A0A0"/>
<path d="M135.612 11.1766C136.829 11.1766 137.816 10.1898 137.816 8.97257C137.816 7.75533 136.829 6.76856 135.612 6.76856C134.395 6.76856 133.408 7.75533 133.408 8.97257C133.408 10.1898 134.395 11.1766 135.612 11.1766Z" fill="#A0A0A0"/>
</svg>
