<svg width="87" height="55" viewBox="0 0 87 55" fill="none" xmlns="http://www.w3.org/2000/svg">
<g clip-path="url(#clip0_51_531)">
<path d="M80.8044 6.64476C80.8044 6.70779 80.8044 6.78658 80.7883 6.83385C80.7077 7.44839 80.7077 8.06294 80.756 8.69324C80.7883 8.85082 80.8205 9.0084 80.9495 9.13446C81.1589 9.37081 81.4812 9.32355 81.6102 9.03991C81.6747 8.8981 81.6747 8.75627 81.6424 8.61446C81.4812 8.01566 81.449 7.38537 81.4329 6.77081C81.4329 6.7393 81.4329 6.69203 81.4329 6.64476C81.6102 6.629 81.7714 6.61324 81.9164 6.61324C82.0293 6.59749 82.1259 6.58172 82.2065 6.53445C82.4482 6.4084 82.4482 6.14052 82.1903 6.01446C82.0936 5.96718 81.9648 5.95142 81.852 5.95142C81.449 5.96718 81.0462 5.96718 80.6432 5.96718C80.4982 5.96718 80.3531 5.98294 80.208 5.99869C80.1274 6.01446 80.0307 6.01446 79.9664 6.06173C79.8535 6.10899 79.7891 6.18778 79.7891 6.29808C79.8052 6.4084 79.8535 6.47142 79.9664 6.5187C80.0307 6.56597 80.1113 6.58172 80.1919 6.58172C80.3853 6.59749 80.5949 6.629 80.8044 6.64476ZM85.2363 7.36961C85.2363 7.38537 85.2524 7.40112 85.2524 7.40112C85.3169 7.82657 85.3814 8.23628 85.4297 8.64597C85.4459 8.78778 85.462 8.91385 85.5587 9.02415C85.7682 9.29203 86.0906 9.26051 86.2355 8.97688C86.3 8.83506 86.3161 8.69324 86.2839 8.53567C86.1872 8.06294 86.1388 7.59021 86.0421 7.13324C85.9776 6.8496 85.8972 6.58172 85.8166 6.32961C85.7682 6.17203 85.6554 6.06172 85.462 6.04597C85.2686 6.01446 85.1235 6.10899 85.0429 6.25082C84.9463 6.37687 84.8657 6.50294 84.8012 6.64476C84.6884 6.89688 84.5917 7.149 84.4628 7.38537C84.4466 7.44839 84.4305 7.49567 84.3983 7.54293C84.3822 7.51142 84.3661 7.49567 84.3661 7.49567C84.1565 7.10173 83.9632 6.70779 83.7537 6.32961C83.7214 6.29808 83.7053 6.26657 83.6892 6.23506C83.5925 6.09324 83.4797 6.01446 83.3024 6.01446C83.1412 6.03021 83.0122 6.12476 82.9318 6.26657C82.8995 6.32961 82.8995 6.37687 82.8834 6.43991C82.8189 6.94415 82.7383 7.4484 82.6739 7.95264C82.6416 8.23628 82.6255 8.51991 82.6255 8.80355C82.6094 8.86657 82.6255 8.94536 82.6577 9.0084C82.69 9.13445 82.7867 9.21325 82.9156 9.229C83.0767 9.24476 83.1895 9.19749 83.2379 9.07142C83.2862 8.97688 83.3024 8.8981 83.3185 8.81931C83.383 8.53567 83.4313 8.26779 83.4797 7.99991C83.5119 7.84234 83.528 7.71627 83.5764 7.54293C83.6086 7.60597 83.6408 7.65325 83.6731 7.70051C83.8181 7.88961 83.9632 8.0787 84.1404 8.23628C84.3177 8.36233 84.4628 8.34658 84.6078 8.20475C84.6401 8.17324 84.6562 8.15749 84.6884 8.12596C84.8335 7.90536 85.0108 7.68476 85.1557 7.46415C85.188 7.43263 85.2041 7.40112 85.2363 7.36961Z" fill="#A0A0A0"/>
<path d="M48.1021 6.9543C47.9901 7.25376 47.9687 7.46951 48.0204 7.64883C48.0776 7.89268 48.2259 7.97251 48.4271 7.91049C50.3201 7.45281 54.4711 8.7519 56.0079 9.11398C56.3703 9.19 56.6652 8.73254 56.4178 8.3224C56.0569 7.9252 51.9078 6.22465 50.3246 6.13193C49.7041 6.09764 48.5947 5.94205 48.1021 6.9543Z" fill="#A0A0A0"/>
<path d="M64.3249 1.4495C64.5267 1.56336 64.6395 1.67196 64.6951 1.79331C64.778 1.95248 64.7343 2.06261 64.595 2.11881C63.3437 2.71592 61.6786 5.28659 61.0065 6.17319C60.8435 6.37714 60.4677 6.25862 60.411 5.92322C60.4226 5.54399 61.8986 2.75424 62.7224 1.9944C63.0461 1.69774 63.5809 1.11565 64.3249 1.4495Z" fill="#A0A0A0"/>
<path d="M54.36 0.184035C54.6024 0.00542891 54.8543 -0.05716 54.9829 0.0589115C56.8709 1.63756 57.872 4.1375 58.492 6.42613C58.5153 6.47945 58.5168 6.55596 58.4981 6.63578C58.4904 6.70401 58.4394 6.77608 58.3584 6.83184C58.2719 6.8934 58.1975 6.91215 58.1625 6.8591C57.335 5.75871 52.6091 1.47726 54.36 0.184035Z" fill="#A0A0A0"/>
<path d="M14.3807 27.5539C14.8332 27.2245 15.3251 26.9503 15.8457 26.7375C16.3903 26.5853 16.9708 26.6105 17.4994 26.8095C18.028 27.0085 18.476 27.3704 18.7756 27.8404C19.0435 28.3092 19.1483 28.8505 19.0743 29.3828C19.0004 29.9148 18.7516 30.4091 18.3653 30.7911C18.0659 31.1007 17.726 31.3703 17.3546 31.5932C15.6992 32.6388 14.0291 33.6271 12.3591 34.6727C12.0173 34.9344 11.6548 35.1692 11.275 35.3746C10.6972 35.6563 10.0369 35.7318 9.40828 35.5879C8.77965 35.4442 8.2222 35.09 7.83232 34.5869C7.54087 34.2306 7.2949 33.841 7.09984 33.4266C5.51768 30.1752 3.87694 26.938 2.35337 23.6292C1.65019 22.197 1.07886 20.5497 0.522172 18.9598C0.281325 18.4979 0.234293 17.9623 0.39109 17.467C0.547889 16.9716 0.896146 16.5556 1.36178 16.3074C1.82742 16.0593 2.37369 15.9986 2.88443 16.1381C3.39518 16.2777 3.83009 16.6066 4.09667 17.0548C4.91606 18.1195 5.6414 19.2504 6.26481 20.4352C7.84697 23.2998 9.35588 26.1645 10.8794 28.9433C10.9682 29.0969 11.066 29.245 11.1724 29.3873C12.3192 28.9159 13.3977 28.2995 14.3807 27.5539Z" fill="#A0A0A0"/>
<path d="M30.7393 26.5546C27.1209 30.694 21.0559 29.6484 18.0088 24.3201C15.8406 20.5387 15.4598 14.2936 20.177 10.3546C21.1843 9.52999 22.3888 8.96822 23.6782 8.72175C25.2591 8.50015 26.8712 8.77284 28.2841 9.50087C29.697 10.2289 30.8383 11.375 31.5451 12.7753C34.1234 17.3589 33.7571 23.2028 30.7393 26.5546ZM29.2743 16.9005C28.8899 15.7742 28.1187 14.8125 27.0915 14.179C26.5103 13.7739 25.804 13.577 25.0917 13.6213C24.3792 13.6657 23.7042 13.9486 23.1801 14.4225C21.0853 16.2416 20.6457 20.553 22.1693 23.117C22.3635 23.535 22.6486 23.9066 23.0051 24.2056C23.3615 24.5046 23.7804 24.7239 24.2325 24.848C24.6846 24.9722 25.159 24.9983 25.6225 24.9244C26.0861 24.8505 26.5274 24.6785 26.9158 24.4203C28.0514 23.5595 28.8845 22.3742 29.2993 21.0291C29.7142 19.684 29.6901 18.2459 29.2305 16.9149L29.2743 16.9005Z" fill="#A0A0A0"/>
<path d="M45.5059 18.7053C45.1355 18.7832 44.7528 18.7878 44.3804 18.7189C44.0082 18.65 43.6536 18.5091 43.3379 18.3043C43.0616 18.1497 42.8237 17.9373 42.6414 17.6821C42.4592 17.4269 42.3371 17.1355 42.2839 16.8286C42.2306 16.5218 42.2476 16.2073 42.3335 15.9077C42.4195 15.608 42.5725 15.3307 42.7812 15.0957C43.1449 14.6235 43.6611 14.2854 44.2462 14.1361C45.7736 13.7026 47.3461 13.4384 48.934 13.3483C49.2829 13.3086 49.6364 13.3375 49.9736 13.4332C50.311 13.529 50.6253 13.6896 50.8983 13.9058C51.1711 14.122 51.3972 14.3893 51.563 14.692C51.7288 14.9947 51.8311 15.3268 51.8639 15.6687C52.3217 17.3482 52.3718 19.1091 52.0104 20.8109C50.692 26.3111 46.1506 28.2018 41.0525 26.44C39.6214 25.9689 38.3667 25.0913 37.4487 23.9191C36.2243 22.5074 35.3562 20.8345 34.9143 19.0348C34.5563 17.4321 34.5955 15.7691 35.0288 14.1844C35.462 12.5996 36.2767 11.1392 37.4047 9.92497C38.4753 8.60528 39.8648 7.56668 41.4481 6.9027C42.4485 6.36354 43.6192 6.21024 44.7296 6.47299C44.9815 6.54115 45.2101 6.67396 45.3918 6.85764C45.5735 7.04134 45.7016 7.2692 45.763 7.51763C45.8243 7.76605 45.8164 8.02598 45.7403 8.27046C45.6642 8.51494 45.5226 8.73506 45.3302 8.908C44.9644 9.23178 44.5669 9.51964 44.1436 9.76741C42.8412 10.5783 41.7078 11.6233 40.8035 12.8469C40.2107 13.6388 39.8024 14.548 39.6076 15.5106C39.4126 16.4732 39.4358 17.4659 39.6755 18.4189C40.0077 19.7182 40.745 20.8845 41.785 21.7562C45.0079 24.621 49.1977 21.8564 48.4652 17.9461C47.3959 18.204 46.4582 18.4761 45.5059 18.7053Z" fill="#A0A0A0"/>
<path d="M65.1953 26.7837C60.4342 29.6485 55.0139 26.7837 53.8272 20.7679C52.9629 16.4708 54.6037 10.4549 60.3464 8.16312C61.5682 7.68601 62.8935 7.51849 64.1992 7.67612C65.768 7.95691 67.2071 8.71202 68.3136 9.83502C69.42 10.958 70.1382 12.3922 70.3666 13.9355C71.3335 19.049 69.1361 24.5063 65.1953 26.7837ZM66.8508 17.1439C66.8493 15.9541 66.4188 14.8027 65.6349 13.8925C65.2158 13.3296 64.61 12.9263 63.9208 12.7512C63.2314 12.5762 62.5015 12.6404 61.8552 12.9329C59.2769 14.0214 57.4604 17.9747 58.1196 20.8825C58.17 21.3388 58.3216 21.7789 58.564 22.1719C58.8064 22.5649 59.1337 22.9014 59.523 23.1579C59.9122 23.4143 60.3541 23.5846 60.8177 23.6567C61.2813 23.7287 61.7554 23.701 62.2068 23.5753C63.5697 23.1098 64.7497 22.2398 65.5822 21.0868C66.4148 19.9338 66.8583 18.5553 66.8508 17.1439Z" fill="#A0A0A0"/>
<path d="M75.1814 27.987C75.1095 28.5112 74.8276 28.986 74.3976 29.3071C73.9676 29.628 73.4249 29.7689 72.8887 29.6986C72.3526 29.6283 71.8669 29.3527 71.5386 28.9322C71.2102 28.5119 71.0663 27.9812 71.1381 27.457C71.21 26.9327 71.4919 26.4579 71.9218 26.1369C72.3518 25.8158 72.8946 25.675 73.4308 25.7453C73.9669 25.8156 74.4526 26.0912 74.781 26.5116C75.1092 26.932 75.2533 27.4627 75.1814 27.987ZM73.9068 8.66446C74.1855 8.2484 74.5942 7.93156 75.0721 7.7612C75.5499 7.59083 76.0713 7.57606 76.5585 7.71911C77.0537 7.84026 77.4912 8.12407 77.798 8.52302C78.1046 8.92199 78.2617 9.41186 78.2432 9.91061C78.1786 10.7106 78.0562 11.5052 77.877 12.2883C77.3935 14.9382 76.9247 17.588 76.412 20.2093C76.1776 21.2549 75.87 22.2575 75.533 23.3174C75.4158 23.6488 75.2199 23.9482 74.9617 24.1912C74.8011 24.374 74.5961 24.5142 74.3653 24.5988C74.1346 24.6836 73.8858 24.71 73.6419 24.6757C73.3981 24.6415 73.1669 24.5476 72.9699 24.4029C72.773 24.258 72.6166 24.067 72.5152 23.8474C72.341 23.4535 72.2464 23.0303 72.2368 22.6013C72.2368 20.8251 72.2368 19.0347 72.354 17.2442C72.5532 14.689 72.9449 12.1516 73.526 9.65278C73.5944 9.31799 73.7233 8.99784 73.9068 8.70743V8.66446Z" fill="#A0A0A0"/>
<path fill-rule="evenodd" clip-rule="evenodd" d="M8.19131 39.4971C8.01834 39.8746 7.97091 40.2955 8.05543 40.7006C8.11167 41.2345 8.23517 41.7597 8.42315 42.2642C8.65783 42.8819 8.92043 43.4928 9.24424 44.2456C9.3187 44.4189 9.39652 44.5997 9.47795 44.79C9.91461 45.81 10.4625 47.1135 11.1933 49C11.4002 49.5359 11.5839 50.0762 11.7688 50.6202C11.8435 50.84 11.9185 51.0605 11.9953 51.2815C12.2705 52.0673 12.7439 52.7733 13.3714 53.3328C13.6379 53.6403 13.9914 53.8644 14.3877 53.9764C14.7918 54.0907 15.2216 54.0834 15.6213 53.9556C16.0211 53.8277 16.3722 53.5852 16.6291 53.2595C16.881 52.9402 17.0307 52.5554 17.0599 52.1535C17.2233 51.3704 17.1675 50.5584 16.8982 49.8034C16.4708 48.5499 15.9839 47.2946 15.4224 46.0667L15.4198 46.0613C14.4962 44.1403 13.5573 42.2326 12.574 40.3242L12.5667 40.3108C12.2788 39.8136 11.9047 39.3691 11.4612 38.9973C11.1733 38.6655 10.7761 38.4416 10.3375 38.3645C9.88958 38.2857 9.42759 38.3651 9.03403 38.5885C8.66172 38.7964 8.36659 39.1145 8.19131 39.4971Z" fill="#A0A0A0"/>
<path fill-rule="evenodd" clip-rule="evenodd" d="M22.2985 34.7669C20.8503 34.4001 19.3378 34.3467 17.8664 34.6104C16.7268 34.7201 15.606 34.9771 14.8277 35.4862C14.4318 35.7453 14.1118 36.078 13.9338 36.5009C13.7548 36.9261 13.7319 37.4124 13.8786 37.9542C14.1464 38.9466 14.4943 39.9115 14.8408 40.8734L14.897 41.0291L14.8983 41.0326C15.9419 43.8269 16.9954 46.6117 18.0585 49.3869C18.1824 49.8242 18.3577 50.2461 18.5809 50.6441L18.585 50.6514C18.8798 51.1458 19.2578 51.588 19.7032 51.9594C19.9259 52.1636 20.2013 52.3049 20.5 52.368C20.8016 52.4316 21.1153 52.4132 21.4068 52.3144C21.6985 52.2158 21.9567 52.0407 22.1535 51.8083C22.3472 51.5796 22.4739 51.3042 22.5205 51.011C22.7127 50.2147 22.6511 49.3799 22.344 48.6186C22.2481 48.3625 22.1729 48.1007 22.0937 47.8251C22.0673 47.7332 22.0405 47.6397 22.0123 47.5445C24.4457 46.6145 27.0349 45.3639 27.9454 42.4547C28.3019 41.4493 28.3317 40.3607 28.0304 39.338C27.7289 38.3142 27.1103 37.4068 26.2599 36.7407C25.1025 35.8082 23.7504 35.1345 22.2985 34.7669ZM18.2842 38.3353C18.3321 38.3217 18.3803 38.3092 18.4288 38.2975C20.013 38.054 21.6339 38.3785 22.9929 39.211C23.5918 39.6183 23.8372 40.0707 23.8793 40.5061C23.9228 40.9545 23.7561 41.4402 23.4212 41.9072C22.7883 42.7893 21.6335 43.4954 20.5903 43.627C19.8298 41.9146 19.0575 40.1329 18.2842 38.3353Z" fill="#A0A0A0"/>
<path d="M31.9537 31.6324C33.6783 30.8536 35.8147 30.719 37.4864 31.2666C37.9074 31.3865 38.2727 31.6459 38.5198 32.0003C38.7652 32.3526 38.8785 32.777 38.8407 33.2014C38.8382 33.4768 38.769 33.7478 38.6389 33.9923C38.5065 34.2412 38.3147 34.4553 38.0798 34.6164C37.8449 34.7775 37.5738 34.8811 37.2893 34.9181C37.0048 34.9552 36.7155 34.9247 36.4456 34.8292L36.425 34.822L36.4058 34.812C36.2677 34.7414 36.121 34.6882 35.9692 34.6535L35.9597 34.6515C34.7837 34.346 33.6744 34.8521 33.2692 35.4739C33.076 35.7703 33.052 36.0696 33.2129 36.3418C33.3853 36.6334 33.8081 36.9606 34.6635 37.1937C34.8988 37.2569 35.14 37.3178 35.3846 37.3797C36.061 37.551 36.764 37.7289 37.4438 37.9755L37.4464 37.9765C40.5824 39.1431 41.7502 41.5593 41.3504 43.832C40.9549 46.0794 39.0353 48.1247 36.1485 48.6072C35.0981 48.8348 34.0049 48.7905 32.9772 48.4785C31.9469 48.1656 31.0182 47.5947 30.2834 46.8222L30.2643 46.802C30.0323 46.511 29.8763 46.1691 29.8071 45.8063C29.7435 45.4789 29.777 45.1405 29.9035 44.831C30.0294 44.5234 30.2421 44.2572 30.5167 44.0632C30.8068 43.8433 31.1564 43.7113 31.5224 43.6838C31.8872 43.6564 32.2522 43.7339 32.5725 43.9067C32.8924 44.0578 33.19 44.2505 33.4571 44.4798L33.4621 44.484C33.9346 44.9065 34.5063 45.0165 35.0545 44.9146C35.6106 44.8111 36.1336 44.4894 36.47 44.0624C36.8042 43.6382 36.9383 43.1343 36.7791 42.645C36.6189 42.1523 36.1372 41.6001 35.0788 41.1386C34.8021 41.0237 34.5152 40.931 34.2168 40.8409C34.1363 40.8165 34.0545 40.7923 33.9717 40.7678C33.7511 40.7023 33.524 40.6348 33.3014 40.5605C33.1481 40.5094 32.996 40.461 32.8454 40.413C32.4337 40.2819 32.0323 40.1541 31.646 39.9827C30.8053 39.7029 30.079 39.1655 29.5751 38.4501C29.0692 37.7319 28.8147 36.873 28.8493 36.0017C28.852 33.8783 30.2198 32.4155 31.9537 31.6324Z" fill="#A0A0A0"/>
<path d="M53.8189 31.4062C53.4845 31.2465 53.1147 31.1707 52.743 31.1855C52.3711 31.2005 52.0089 31.3057 51.6891 31.4918C51.3713 31.6766 51.1052 31.9353 50.9145 32.245C50.7397 32.5059 50.6186 32.7975 50.5583 33.1038C50.498 33.4099 50.4995 33.7244 50.5625 34.0297C50.6248 34.4221 50.6938 34.8037 50.762 35.18C50.8749 35.8027 50.9847 36.4115 51.0572 37.0322L51.0599 37.0479C51.2249 38.0213 51.3113 39.0058 51.319 39.9923L51.3198 40.0063C51.3762 41.0717 51.0049 42.1164 50.2856 42.9186L50.2741 42.9329C50.0401 43.2261 49.7272 43.45 49.3703 43.5794C49.0135 43.7087 48.627 43.7385 48.2539 43.6652C47.8808 43.592 47.5359 43.4188 47.2578 43.1648C46.9796 42.9109 46.779 42.5853 46.6789 42.2265C46.4651 41.47 46.3414 40.692 46.3099 39.9079L46.675 34.2242C46.6805 34.1499 46.6866 34.0738 46.6929 33.9969C46.7067 33.8243 46.721 33.6484 46.7269 33.4844C46.7355 33.2431 46.7281 32.995 46.6706 32.7601C46.6118 32.52 46.4999 32.2916 46.3013 32.0971C46.1047 31.9046 45.8394 31.7626 45.5054 31.6659C44.9016 31.495 44.391 31.5004 43.9656 31.677C43.5399 31.8535 43.2482 32.1813 43.0418 32.5599C42.837 32.9354 42.7054 33.3799 42.6059 33.8251C42.5321 34.1555 42.4727 34.5023 42.4163 34.8324C42.3968 34.9462 42.3777 35.0579 42.3585 35.1663L42.358 35.1695C42.0562 36.98 41.9664 38.8181 42.0903 40.6485C42.1134 41.6376 42.3243 42.6139 42.7125 43.5276C43.1505 44.7066 43.9438 45.728 44.9877 46.4572C46.0339 47.1878 47.2822 47.5904 48.5675 47.6117C49.8529 47.6329 51.1145 47.2718 52.1853 46.5763C53.2544 45.8818 54.083 44.8864 54.5614 43.7219C55.2306 42.2384 55.5448 40.625 55.48 39.0048C55.4407 37.8219 55.3748 36.6299 55.3093 35.444C55.2771 34.8623 55.2451 34.2818 55.2163 33.7048C55.2018 33.1263 55.0067 32.566 54.6571 32.099C54.4407 31.8037 54.1527 31.5656 53.8189 31.4062Z" fill="#A0A0A0"/>
<path d="M65.6553 40.3184C65.6214 40.3606 65.5856 40.4042 65.5483 40.4495C65.2763 38.9153 65.0242 37.3815 64.7717 35.8455C64.6811 35.2943 64.5901 34.7408 64.4986 34.189L64.4883 34.1274L64.4548 34.0742C64.3918 33.9741 64.3855 33.8759 64.3855 33.6666V33.6424L64.3817 33.6184C64.3134 33.1861 64.1134 32.7837 63.8079 32.4641C63.5032 32.1452 63.1075 31.9234 62.6722 31.827C62.2376 31.7222 61.781 31.7453 61.3597 31.8935C60.9395 32.0413 60.5733 32.3069 60.3067 32.6571C60.0851 32.9258 59.9033 33.2238 59.7672 33.5422C59.4582 34.2283 59.1465 34.916 58.834 35.6056L58.8286 35.6175C58.0483 37.3391 57.2628 39.0723 56.5001 40.8191L56.4977 40.8247C56.0295 41.9574 55.643 43.1508 55.2579 44.3405C55.181 44.578 55.1041 44.8154 55.0265 45.0521C54.8875 45.4276 54.8266 45.8264 54.8475 46.225C54.8222 46.5819 54.9096 46.938 55.098 47.245C55.2902 47.5583 55.578 47.8047 55.9209 47.9498C56.2843 48.1056 56.6906 48.1387 57.0755 48.0438C57.4596 47.9491 57.8006 47.7324 58.045 47.4277C58.3571 47.0524 58.6255 46.643 58.8444 46.2093C59.4905 44.9171 60.108 43.6092 60.7227 42.3069C60.9605 41.8032 61.1916 41.352 61.4545 40.8607C61.4726 40.9213 61.491 40.9804 61.5101 41.0396C61.7856 42.2258 62.2508 43.362 62.8883 44.4065C63.0089 44.6278 63.177 44.8211 63.3809 44.9734C63.5873 45.1274 63.8256 45.2355 64.079 45.2905C64.3325 45.3454 64.5951 45.3456 64.8487 45.2912C65.1019 45.2369 65.3409 45.1287 65.5474 44.9753L65.9562 44.6762L69.1287 42.0634L68.9411 43.2324C68.6836 44.8392 68.428 46.4327 68.1565 48.0265C67.9789 48.7329 67.9791 49.4708 68.1573 50.177C68.2344 50.5744 68.431 50.9403 68.7219 51.228C69.0153 51.5181 69.391 51.7152 69.8003 51.7938C70.2097 51.8723 70.6338 51.8288 71.0175 51.6687C71.3956 51.5111 71.7173 51.2474 71.9421 50.9114C72.4652 50.2769 72.7908 49.5086 72.8803 48.6982C73.0149 47.5536 73.167 46.3935 73.3192 45.2337C73.4945 43.8969 73.6699 42.5605 73.8179 41.2497L73.8184 41.2456C73.9609 39.8108 74.0298 38.37 74.025 36.9284C74.0562 36.4729 73.9403 36.019 73.6931 35.6312C73.445 35.242 73.0777 34.9394 72.6435 34.7663C72.1919 34.5655 71.6863 34.5118 71.2012 34.6133C70.7192 34.7141 70.2829 34.9625 69.9556 35.3223C69.3705 35.8515 68.8215 36.4177 68.3123 37.0174L68.3089 37.0214C67.7529 37.6987 67.2008 38.3893 66.6523 39.0755C66.3187 39.4926 65.9861 39.9087 65.6553 40.3184Z" fill="#A0A0A0"/>
</g>
<defs>
<clipPath id="clip0_51_531">
<rect width="86" height="54.0571" fill="white" transform="translate(0.300049)"/>
</clipPath>
</defs>
</svg>
