<svg width="132" height="36" viewBox="0 0 132 36" fill="none" xmlns="http://www.w3.org/2000/svg">
<path d="M30.5201 12.7786C30.8801 12.7786 31.0001 12.9086 31.0001 13.2586V21.1786H35.0701C35.4201 21.1786 35.5501 21.3086 35.5501 21.6586V22.3586C35.5501 22.7086 35.4201 22.8386 35.0701 22.8386H29.7101C29.3601 22.8386 29.2201 22.7086 29.2201 22.3586V13.2586C29.2201 12.9086 29.3601 12.7786 29.7101 12.7786H30.5201Z" fill="#A0A0A0"/>
<path d="M39.1001 16.2686C39.1001 13.9586 40.5601 12.5686 43.1001 12.5686C45.6401 12.5686 47.1001 13.9586 47.1001 16.2686V19.3486C47.1001 21.6586 45.6301 23.0486 43.1001 23.0486C40.5701 23.0486 39.1001 21.6586 39.1001 19.3486V16.2686ZM45.4201 16.2686C45.4201 14.9686 44.6101 14.2686 43.1501 14.2686C41.6901 14.2686 40.8901 14.9786 40.8901 16.2686V19.3686C40.8901 20.6786 41.6901 21.3686 43.1501 21.3686C44.6101 21.3686 45.4201 20.6486 45.4201 19.3686V16.2686Z" fill="#A0A0A0"/>
<path d="M59.0101 17.3286C59.4001 17.3286 59.4901 17.4586 59.4901 17.8086V19.7086C59.5007 20.1561 59.411 20.6004 59.2276 21.0087C59.0441 21.4171 58.7717 21.7792 58.4301 22.0686C57.5818 22.7441 56.5122 23.0792 55.4301 23.0086C52.8401 23.0086 51.4301 21.6186 51.4301 19.3086V16.2086C51.4301 13.9286 52.8901 12.5286 55.4301 12.5286C57.4301 12.5286 58.7301 13.3186 59.2801 14.8986C59.3109 14.958 59.3274 15.0237 59.3283 15.0905C59.3292 15.1574 59.3145 15.2236 59.2854 15.2837C59.2563 15.3439 59.2135 15.3965 59.1605 15.4373C59.1075 15.478 59.0457 15.5059 58.9801 15.5186L58.2001 15.7886C57.8601 15.9086 57.7201 15.8386 57.6001 15.4886C57.4344 15.0615 57.1311 14.7017 56.7381 14.4663C56.3451 14.2309 55.8849 14.1331 55.4301 14.1886C53.9601 14.1886 53.1601 14.8986 53.1601 16.1886V19.3686C53.1601 20.6786 53.9701 21.3686 55.4301 21.3686C56.8901 21.3686 57.7901 20.6986 57.7901 19.7186V18.9786H55.6201C55.2601 18.9786 55.1301 18.8386 55.1301 18.4886V17.8086C55.1301 17.4586 55.2601 17.3286 55.6201 17.3286H59.0101Z" fill="#A0A0A0"/>
<path d="M63.6201 16.2686C63.6201 13.9586 65.0801 12.5686 67.6201 12.5686C70.1601 12.5686 71.6201 13.9586 71.6201 16.2686V19.3486C71.6201 21.6586 70.1501 23.0486 67.6201 23.0486C65.0901 23.0486 63.6201 21.6586 63.6201 19.3486V16.2686ZM69.9301 16.2686C69.9301 14.9686 69.1201 14.2686 67.6701 14.2686C66.2201 14.2686 65.4001 14.9786 65.4001 16.2686V19.3686C65.4001 20.6786 66.2101 21.3686 67.6701 21.3686C69.1301 21.3686 69.9301 20.6486 69.9301 19.3686V16.2686Z" fill="#A0A0A0"/>
<path d="M76.3301 13.0686C76.3301 12.8486 76.4001 12.7786 76.6201 12.7786H77.0801C77.3001 12.7786 77.3501 12.8486 77.3501 13.0686V22.5486C77.3501 22.7686 77.3501 22.8386 77.0801 22.8386H76.6201C76.4001 22.8386 76.3301 22.7686 76.3301 22.5486V13.0686Z" fill="#A0A0A0"/>
<path d="M86.4601 12.7786C87.2929 12.7786 88.0915 13.1094 88.6804 13.6983C89.2693 14.2871 89.6001 15.0858 89.6001 15.9186C89.6001 16.7514 89.2693 17.5501 88.6804 18.1389C88.0915 18.7278 87.2929 19.0586 86.4601 19.0586H83.4601V22.5486C83.4601 22.7686 83.4101 22.8386 83.2001 22.8386H82.7301C82.5201 22.8386 82.4401 22.7686 82.4401 22.5486V13.0686C82.4401 12.8486 82.5201 12.7786 82.7301 12.7786H86.4601ZM86.3701 18.0686C86.6564 18.0686 86.9399 18.0122 87.2044 17.9027C87.4688 17.7931 87.7092 17.6325 87.9116 17.4301C88.114 17.2277 88.2746 16.9873 88.3842 16.7229C88.4937 16.4584 88.5501 16.1749 88.5501 15.8886C88.5501 15.6023 88.4937 15.3188 88.3842 15.0543C88.2746 14.7899 88.114 14.5495 87.9116 14.3471C87.7092 14.1447 87.4688 13.9841 87.2044 13.8745C86.9399 13.765 86.6564 13.7086 86.3701 13.7086H83.3701V18.0686H86.3701Z" fill="#A0A0A0"/>
<path d="M97.4101 12.5786C98.1822 12.4934 98.9611 12.6595 99.6313 13.0522C100.301 13.445 100.827 14.0434 101.13 14.7586C101.21 14.9186 101.13 15.0486 100.97 15.1286L100.53 15.3286C100.35 15.3986 100.28 15.3886 100.17 15.1986C99.9435 14.6678 99.554 14.2228 99.0578 13.928C98.5617 13.6332 97.9846 13.5038 97.4101 13.5586C95.7201 13.5586 94.8001 14.2286 94.8001 15.4286C94.7903 15.7953 94.9134 16.1533 95.1469 16.4363C95.3803 16.7193 95.7082 16.9084 96.0701 16.9686C96.6079 17.144 97.1656 17.2515 97.7301 17.2886C98.4134 17.325 99.0875 17.4632 99.7301 17.6986C100.223 17.8545 100.647 18.1751 100.931 18.6067C101.215 19.0383 101.342 19.5545 101.29 20.0686C101.29 21.9386 99.9301 23.0686 97.4301 23.0686C96.6101 23.1624 95.7827 22.9724 95.0858 22.5302C94.3889 22.0881 93.8645 21.4204 93.6001 20.6386C93.5824 20.603 93.5729 20.5639 93.5721 20.5241C93.5713 20.4843 93.5794 20.4449 93.5956 20.4086C93.6118 20.3723 93.6359 20.34 93.6661 20.3141C93.6962 20.2881 93.7317 20.2692 93.7701 20.2586L94.2101 20.0986C94.2447 20.0844 94.282 20.0776 94.3194 20.0786C94.3568 20.0796 94.3936 20.0884 94.4275 20.1044C94.4613 20.1204 94.4915 20.1432 94.516 20.1715C94.5406 20.1998 94.559 20.2328 94.5701 20.2686C94.7938 20.8335 95.1916 21.3125 95.7058 21.6362C96.22 21.9598 96.824 22.1113 97.4301 22.0686C99.3201 22.0686 100.25 21.4086 100.25 20.0686C100.268 19.7164 100.16 19.3693 99.9455 19.0891C99.7313 18.809 99.4246 18.6139 99.0801 18.5386C98.5627 18.3843 98.0291 18.2903 97.4901 18.2586L96.4101 18.1186C96.0721 18.0469 95.7383 17.9567 95.4101 17.8486C95.0859 17.7507 94.7837 17.5911 94.5201 17.3786C94.2548 17.1384 94.0457 16.8428 93.9074 16.5127C93.7692 16.1826 93.7052 15.8262 93.7201 15.4686C93.7901 13.7186 95.1001 12.5786 97.4101 12.5786Z" fill="#A0A0A0"/>
<path d="M106.68 19.4186C106.722 20.1258 107.033 20.7901 107.549 21.2758C108.065 21.7615 108.747 22.0319 109.455 22.0319C110.163 22.0319 110.845 21.7615 111.361 21.2758C111.877 20.7901 112.187 20.1258 112.23 19.4186V13.0686C112.23 12.8486 112.3 12.7786 112.52 12.7786H112.98C113.2 12.7786 113.27 12.8486 113.27 13.0686V19.4086C113.27 21.6786 111.93 23.0486 109.46 23.0486C106.99 23.0486 105.65 21.6786 105.65 19.4086V13.0686C105.65 12.8486 105.72 12.7786 105.93 12.7786H106.4C106.61 12.7786 106.68 12.8486 106.68 13.0686V19.4186Z" fill="#A0A0A0"/>
<path d="M127.07 12.7786C127.29 12.7786 127.36 12.8486 127.36 13.0686V22.5486C127.36 22.7686 127.29 22.8386 127.07 22.8386H126.65C126.44 22.8386 126.37 22.7686 126.37 22.5486V16.7786C126.37 15.9391 126.427 15.1005 126.54 14.2686H126.48C126.168 15.0293 125.803 15.7677 125.39 16.4786L123.24 20.2686C123.214 20.3344 123.168 20.3906 123.109 20.4299C123.05 20.4691 122.981 20.4896 122.91 20.4886H122.63C122.558 20.489 122.488 20.4683 122.427 20.4293C122.367 20.3902 122.319 20.3344 122.29 20.2686L120.11 16.4386C119.723 15.7379 119.389 15.0092 119.11 14.2586H119.05C119.152 15.0981 119.206 15.9429 119.21 16.7886V22.5486C119.21 22.7686 119.14 22.8386 118.92 22.8386H118.53C118.31 22.8386 118.24 22.7686 118.24 22.5486V13.0686C118.24 12.8486 118.31 12.7786 118.53 12.7786H118.89C118.972 12.771 119.055 12.7889 119.126 12.8301C119.198 12.8713 119.255 12.9337 119.29 13.0086L122.79 19.2286L126.27 13.0686C126.38 12.8586 126.44 12.8286 126.66 12.8286L127.07 12.7786Z" fill="#A0A0A0"/>
<path d="M12.7301 21.3186V28.5486C12.7301 28.8258 12.62 29.0916 12.424 29.2875C12.2281 29.4835 11.9623 29.5936 11.6851 29.5936C11.408 29.5936 11.1422 29.4835 10.9462 29.2875C10.7502 29.0916 10.6401 28.8258 10.6401 28.5486V21.3286C10.9311 21.5411 11.2799 21.6597 11.6401 21.6686C12.0327 21.6798 12.4174 21.5563 12.7301 21.3186ZM21.6301 19.2286C21.3649 19.2286 21.1105 19.334 20.923 19.5215C20.7355 19.709 20.6301 19.9634 20.6301 20.2286V21.4886C20.6301 21.7658 20.7402 22.0316 20.9362 22.2275C21.1321 22.4235 21.3979 22.5336 21.6751 22.5336C21.9523 22.5336 22.2181 22.4235 22.414 22.2275C22.61 22.0316 22.7201 21.7658 22.7201 21.4886V20.2786C22.7279 20.1352 22.7047 19.9918 22.6521 19.8582C22.5995 19.7246 22.5188 19.6038 22.4153 19.5042C22.3119 19.4046 22.1882 19.3284 22.0528 19.2808C21.9173 19.2333 21.7731 19.2155 21.6301 19.2286ZM8.37012 24.0586C8.01029 24.0478 7.66195 23.9294 7.37012 23.7186V30.9686C7.37012 31.2471 7.48074 31.5142 7.67766 31.7111C7.87457 31.908 8.14164 32.0186 8.42012 32.0186C8.6986 32.0186 8.96567 31.908 9.16258 31.7111C9.3595 31.5142 9.47012 31.2471 9.47012 30.9686V23.7686C9.14357 23.9797 8.75828 24.0813 8.37012 24.0586ZM18.3701 17.0586C18.2346 17.0518 18.0992 17.0727 17.972 17.1199C17.8449 17.1671 17.7287 17.2397 17.6304 17.3332C17.5322 17.4268 17.4541 17.5393 17.4007 17.664C17.3474 17.7887 17.3199 17.923 17.3201 18.0586V23.6286C17.3201 23.9071 17.4307 24.1742 17.6276 24.3711C17.8246 24.568 18.0916 24.6786 18.3701 24.6786C18.6486 24.6786 18.9157 24.568 19.1126 24.3711C19.3095 24.1742 19.4201 23.9071 19.4201 23.6286V18.1286C19.4281 17.9843 19.4047 17.84 19.3515 17.7056C19.2983 17.5712 19.2167 17.4499 19.1121 17.3501C19.0075 17.2503 18.8826 17.1743 18.7459 17.1275C18.6092 17.0806 18.4639 17.0639 18.3201 17.0786L18.3701 17.0586ZM15.0501 19.1986C14.6734 19.196 14.3068 19.0773 14.0001 18.8586V26.1286C14.0001 26.4071 14.1107 26.6742 14.3076 26.8711C14.5046 27.068 14.7716 27.1786 15.0501 27.1786C15.3286 27.1786 15.5956 27.068 15.7926 26.8711C15.9895 26.6742 16.1001 26.4071 16.1001 26.1286V18.8686C15.7829 19.1049 15.3956 19.2281 15.0001 19.2186L15.0501 19.1986ZM6.10012 24.7686V4.45856C6.09749 4.21099 5.99729 3.97447 5.82129 3.80034C5.64529 3.62621 5.4077 3.52855 5.16012 3.52856H4.94012C4.69254 3.52855 4.45495 3.62621 4.27895 3.80034C4.10295 3.97447 4.00275 4.21099 4.00012 4.45856V24.7686C4.00012 25.0179 4.09916 25.257 4.27544 25.4333C4.45172 25.6096 4.69082 25.7086 4.94012 25.7086H5.16012C5.40943 25.7086 5.64852 25.6096 5.8248 25.4333C6.00109 25.257 6.10012 25.0179 6.10012 24.7686ZM8.48012 23.2886H8.26012C8.01082 23.2886 7.77172 23.1896 7.59544 23.0133C7.41916 22.837 7.32012 22.5979 7.32012 22.3486V6.87856C7.32276 6.631 7.42295 6.39446 7.59895 6.22034C7.77495 6.04621 8.01254 5.94855 8.26012 5.94856H8.48012C8.7277 5.94855 8.96529 6.04621 9.14129 6.22034C9.31729 6.39446 9.41749 6.631 9.42012 6.87856V22.3686C9.42012 22.6179 9.32108 22.857 9.1448 23.0333C8.96852 23.2096 8.72942 23.3086 8.48012 23.3086V23.2886ZM11.7901 20.9086H11.5601C11.3135 20.9086 11.0769 20.8106 10.9025 20.6362C10.7281 20.4618 10.6301 20.2253 10.6301 19.9786V9.27856C10.6288 9.15559 10.6519 9.03358 10.698 8.91959C10.7441 8.8056 10.8124 8.7019 10.8989 8.61448C10.9854 8.52706 11.0884 8.45766 11.2019 8.4103C11.3154 8.36294 11.4371 8.33855 11.5601 8.33856H11.7901C12.0377 8.3412 12.2742 8.44139 12.4483 8.61739C12.6225 8.79339 12.7201 9.03098 12.7201 9.27856V19.9786C12.7201 20.2253 12.6221 20.4618 12.4477 20.6362C12.2733 20.8106 12.0368 20.9086 11.7901 20.9086ZM14.8901 18.4586C14.6425 18.4586 14.4049 18.361 14.2289 18.1868C14.0529 18.0127 13.9527 17.7762 13.9501 17.5286V11.7686C13.9419 11.6402 13.9601 11.5115 14.0037 11.3904C14.0472 11.2694 14.1152 11.1585 14.2033 11.0648C14.2914 10.971 14.3978 10.8964 14.516 10.8454C14.6341 10.7945 14.7614 10.7683 14.8901 10.7686H15.1101C15.3594 10.7686 15.5985 10.8676 15.7748 11.0439C15.9511 11.2202 16.0501 11.4593 16.0501 11.7086V17.5086C16.0514 17.6329 16.0281 17.7562 15.9814 17.8714C15.9348 17.9866 15.8658 18.0914 15.7783 18.1798C15.6909 18.2681 15.5869 18.3382 15.4721 18.3861C15.3574 18.434 15.2344 18.4586 15.1101 18.4586H14.8901ZM18.2001 16.3086C17.9508 16.3086 17.7117 16.2096 17.5354 16.0333C17.3591 15.857 17.2601 15.6179 17.2601 15.3686V13.8786C17.2627 13.631 17.3629 13.3945 17.5389 13.2204C17.7149 13.0462 17.9525 12.9486 18.2001 12.9486H18.4201C18.6677 12.9486 18.9053 13.0462 19.0813 13.2204C19.2573 13.3945 19.3575 13.631 19.3601 13.8786V15.3686C19.3601 15.6162 19.2625 15.8538 19.0883 16.0298C18.9142 16.2058 18.6777 16.306 18.4301 16.3086H18.2001Z" fill="#A0A0A0"/>
</svg>
