<svg width="146" height="32" viewBox="0 0 146 32" fill="none" xmlns="http://www.w3.org/2000/svg">
<g clip-path="url(#clip0_51_546)">
<path fill-rule="evenodd" clip-rule="evenodd" d="M16.2541 4.10314L18.2918 0.574097L24.0687 3.90996L22.0318 7.43823C21.674 8.05719 22.2095 8.80982 22.9112 8.6746L26.815 7.92119L28.0784 14.4716L24.1746 15.2242C17.8598 16.4421 13.0388 9.67296 16.2541 4.10314Z" fill="#A0A0A0"/>
<path fill-rule="evenodd" clip-rule="evenodd" d="M12.7243 27.9541L10.6866 31.4832L4.90893 28.1481L6.94662 24.619C7.30439 24.0001 6.76889 23.2474 6.06648 23.3827L2.16343 24.1353L0.900024 17.5857L4.80384 16.833C11.1186 15.6152 15.9388 22.3843 12.7243 27.9541Z" fill="#A0A0A0"/>
<path fill-rule="evenodd" clip-rule="evenodd" d="M12.9005 4.10314L10.8636 0.574097L5.08588 3.90996L7.12357 7.43823C7.48057 8.05719 6.94584 8.80982 6.24343 8.6746L2.33961 7.92119L1.07775 14.4716L4.98079 15.2242C11.2963 16.4421 16.1166 9.67296 12.9005 4.10314Z" fill="#A0A0A0"/>
<path fill-rule="evenodd" clip-rule="evenodd" d="M16.0841 27.9541L18.1203 31.4832L23.8979 28.1481L21.8603 24.619C21.5033 24.0001 22.038 23.2474 22.7404 23.3827L26.6434 24.1353L27.9068 17.5857L24.003 16.833C17.6883 15.6152 12.868 22.3843 16.0826 27.9541H16.0841Z" fill="#A0A0A0"/>
<path d="M126.943 23.8741V17.306C126.943 16.3957 127.152 15.5789 127.571 14.8564C128.004 14.1192 128.619 13.5412 129.414 13.1216C130.209 12.7028 131.156 12.4934 132.254 12.4934C132.766 12.4884 133.277 12.5539 133.771 12.6881C134.234 12.8041 134.653 12.9702 135.028 13.1866C135.419 13.389 135.751 13.6347 136.026 13.9237H136.069C136.364 13.6306 136.7 13.3822 137.066 13.1866C137.469 12.9649 137.899 12.7973 138.346 12.6881C138.848 12.5549 139.366 12.4894 139.885 12.4934C140.983 12.4934 141.93 12.7021 142.725 13.1216C143.519 13.5412 144.134 14.1185 144.567 14.8564C145.001 15.5789 145.218 16.3949 145.218 17.306V23.8741H141.835V17.4141C141.835 17.0533 141.742 16.728 141.554 16.439C141.382 16.1367 141.136 15.8831 140.839 15.7018C140.525 15.5112 140.164 15.4134 139.798 15.4197C139.408 15.4197 139.054 15.514 138.736 15.7018C138.439 15.8828 138.193 16.1365 138.02 16.439C137.845 16.7337 137.755 17.0713 137.76 17.4141V23.8741H134.4V17.4141C134.4 17.0533 134.306 16.728 134.118 16.439C133.942 16.1323 133.688 15.8779 133.381 15.7018C133.068 15.5112 132.707 15.4134 132.34 15.4197C131.95 15.4197 131.596 15.514 131.278 15.7018C130.981 15.8828 130.735 16.1365 130.563 16.439C130.388 16.7339 130.298 17.0713 130.302 17.4141V23.8741H126.943ZM119.593 24.1346C118.452 24.1346 117.461 23.9182 116.624 23.4839C115.8 23.0357 115.164 22.4361 114.716 21.685C114.268 20.9192 114.044 20.0731 114.044 19.1481V12.7531H117.404V19.0616C117.404 19.4518 117.498 19.8135 117.685 20.1457C117.873 20.4633 118.127 20.7237 118.444 20.9262C118.776 21.114 119.153 21.2082 119.572 21.2082C119.977 21.2082 120.337 21.114 120.656 20.9262C120.988 20.7237 121.248 20.4633 121.436 20.1457C121.624 19.8135 121.718 19.4518 121.718 19.0616V12.7531H125.078V19.1481C125.078 20.0731 124.861 20.9192 124.427 21.685C123.994 22.4361 123.366 23.0365 122.542 23.4839C121.732 23.9174 120.749 24.1346 119.593 24.1346ZM103.22 23.8741V21.2082H108.575C108.719 21.2082 108.849 21.1789 108.965 21.1209C109.08 21.0491 109.175 20.9548 109.246 20.8396C109.317 20.7258 109.355 20.5943 109.355 20.4602C109.355 20.3261 109.317 20.1947 109.246 20.0808C109.179 19.9694 109.081 19.8792 108.965 19.8204C108.848 19.7479 108.713 19.7103 108.575 19.7122H106.624C105.901 19.7122 105.243 19.5963 104.651 19.3653C104.089 19.1324 103.606 18.7406 103.263 18.2379C102.931 17.7178 102.765 17.0456 102.765 16.2218C102.765 15.5859 102.916 15.0079 103.22 14.4878C103.536 13.9694 103.975 13.5372 104.499 13.2298C105.045 12.9127 105.667 12.7481 106.298 12.7531H111.653V15.4414H106.819C106.627 15.4375 106.44 15.5075 106.298 15.6369C106.235 15.6988 106.185 15.7731 106.151 15.8551C106.118 15.937 106.101 16.025 106.103 16.1136C106.103 16.3161 106.169 16.4892 106.298 16.6337C106.44 16.7631 106.627 16.833 106.819 16.8292H108.726C109.535 16.8292 110.229 16.952 110.807 17.197C111.4 17.4288 111.855 17.8044 112.174 18.3252C112.506 18.8452 112.672 19.5167 112.672 20.3405C112.672 20.9911 112.506 21.5838 112.174 22.1177C111.858 22.65 111.41 23.091 110.872 23.3974C110.338 23.7157 109.731 23.8741 109.052 23.8741H103.22ZM95.8991 12.4934C96.8388 12.4934 97.6694 12.6449 98.3919 12.9486C99.1016 13.2191 99.7396 13.6493 100.257 14.2058C100.783 14.751 101.19 15.4011 101.449 16.1136C101.723 16.8361 101.861 17.6382 101.861 18.5199C101.861 19.618 101.63 20.5939 101.167 21.4462C100.739 22.2631 100.094 22.9458 99.303 23.419C98.5078 23.8958 97.5829 24.1346 96.5281 24.1346C96.0799 24.1346 95.6534 24.0766 95.2485 23.9615C94.865 23.8487 94.5 23.6805 94.1651 23.4623C93.8494 23.2481 93.5772 22.9759 93.363 22.6602H93.2973V28.5793H89.9375V18.5191C89.9375 17.2905 90.1833 16.228 90.6747 15.3324C91.1511 14.4509 91.8743 13.7274 92.7557 13.2507C93.652 12.7453 94.6998 12.4934 95.8991 12.4934ZM95.8991 15.3981C95.3791 15.3981 94.9239 15.5279 94.5337 15.7883C94.1574 16.0341 93.8684 16.381 93.6659 16.8292C93.4642 17.2619 93.363 17.7541 93.363 18.3028C93.363 18.8522 93.4642 19.3436 93.6659 19.7771C93.8684 20.2106 94.1574 20.5576 94.5337 20.818C94.9239 21.0637 95.3791 21.1866 95.8991 21.1866C96.4192 21.1866 96.8673 21.063 97.2429 20.818C97.6208 20.5558 97.9207 20.1961 98.1107 19.7771C98.327 19.3436 98.4352 18.8522 98.4352 18.3028C98.4352 17.7541 98.327 17.2627 98.1107 16.8292C97.9082 16.381 97.6192 16.0333 97.2429 15.7883C96.8673 15.5279 96.4192 15.3981 95.8991 15.3981ZM84.8313 23.8741V12.7531H88.2136V23.8741H84.8313ZM86.5221 11.4958C85.9873 11.4958 85.5253 11.3011 85.135 10.9109C84.7448 10.5206 84.5493 10.0578 84.5493 9.52305C84.5493 8.98832 84.7448 8.52623 85.135 8.13601C85.5253 7.7311 85.9873 7.52864 86.5221 7.52864C87.0568 7.52864 87.5197 7.7311 87.9099 8.13601C88.3001 8.52623 88.4948 8.98832 88.4948 9.52305C88.4948 10.0578 88.3001 10.5199 87.9099 10.9109C87.5197 11.3011 87.0568 11.4958 86.5221 11.4958ZM77.4812 24.1346C76.3398 24.1346 75.3137 23.8819 74.4026 23.3757C73.5089 22.8858 72.761 22.1678 72.2351 21.2948C71.7151 20.4131 71.4547 19.4232 71.4547 18.3244C71.4547 17.2117 71.7151 16.2218 72.2351 15.3548C72.761 14.4818 73.5089 13.7638 74.4026 13.2739C75.3137 12.7531 76.3398 12.4934 77.4812 12.4934C78.6233 12.4934 79.6417 12.7531 80.5381 13.2739C81.4286 13.7604 82.1703 14.4796 82.6839 15.3548C83.2187 16.2218 83.486 17.2117 83.486 18.3244C83.486 19.4232 83.2187 20.4131 82.6839 21.2948C82.1703 22.17 81.4286 22.8892 80.5381 23.3757C79.6278 23.8819 78.6086 24.1346 77.4812 24.1346ZM77.4812 21.2082C78.0159 21.2082 78.4788 21.0776 78.869 20.818C79.2593 20.5579 79.5735 20.1987 79.7793 19.7771C79.9964 19.3436 80.1046 18.8522 80.1046 18.3028C80.1046 17.7681 79.9964 17.2843 79.7793 16.85C79.5734 16.4288 79.2592 16.0698 78.869 15.81C78.4788 15.5496 78.0159 15.4197 77.4812 15.4197C76.9464 15.4197 76.4766 15.5496 76.0725 15.81C75.682 16.0701 75.3676 16.4293 75.1614 16.8508C74.9406 17.3028 74.8295 17.8005 74.8369 18.3036C74.8369 18.8522 74.9451 19.3436 75.1614 19.7771C75.3676 20.1986 75.682 20.5578 76.0725 20.818C76.4766 21.0776 76.9464 21.2082 77.4812 21.2082ZM60.5345 28.2756V25.3918H66.0834C66.3006 25.3918 66.4814 25.3199 66.6259 25.1754C66.6963 25.1132 66.7522 25.0362 66.7896 24.9499C66.827 24.8636 66.845 24.7702 66.8422 24.6762V22.2267H66.7773C66.5028 22.5459 66.1898 22.8299 65.8454 23.0721C65.5271 23.3039 65.1654 23.477 64.7613 23.5929C64.3312 23.7137 63.8859 23.772 63.4392 23.766C62.4562 23.766 61.5746 23.5341 60.7941 23.0721C60.0283 22.5953 59.421 21.9377 58.9728 21.0993C58.5401 20.2616 58.3229 19.3073 58.3229 18.2379C58.3229 17.1831 58.547 16.2218 58.9952 15.3548C59.4573 14.4878 60.1296 13.7939 61.0112 13.2739C61.8922 12.7531 62.9693 12.4934 64.2412 12.4934C65.4552 12.4934 66.503 12.7461 67.3847 13.2522C68.2701 13.7328 68.9939 14.4639 69.4657 15.3541C69.9571 16.2504 70.2028 17.306 70.2028 18.5199V25.0232C70.2028 26.02 69.9069 26.8082 69.3142 27.3862C68.7362 27.9789 67.9341 28.2748 66.9079 28.2748L60.5345 28.2756ZM64.2629 20.9478C64.7829 20.9478 65.2311 20.8319 65.6074 20.6009C65.9787 20.3598 66.278 20.0228 66.4737 19.6257C66.6792 19.2076 66.7832 18.747 66.7773 18.2811C66.7773 17.7611 66.6769 17.2843 66.4744 16.8508C66.272 16.4173 65.983 16.0773 65.6067 15.8316C65.2311 15.5712 64.7829 15.4414 64.2621 15.4414C63.7568 15.4414 63.3086 15.5642 62.9183 15.81C62.5428 16.0557 62.2538 16.388 62.0513 16.8068C61.8497 17.2264 61.7484 17.6954 61.7484 18.2162C61.7484 18.7224 61.8489 19.1845 62.0513 19.6041C62.2538 20.0082 62.5428 20.3335 62.9191 20.5792C63.3086 20.825 63.7567 20.9478 64.2629 20.9478ZM51.4928 24.1346C50.3515 24.1346 49.3253 23.8819 48.415 23.3757C47.521 22.886 46.7728 22.1679 46.2467 21.2948C45.7267 20.4131 45.4663 19.4232 45.4663 18.3244C45.4663 17.2117 45.7267 16.2218 46.2467 15.3548C46.7728 14.4817 47.521 13.7636 48.415 13.2739C49.3253 12.7531 50.3515 12.4934 51.4928 12.4934C52.6349 12.4934 53.6533 12.7531 54.5497 13.2739C55.4402 13.7604 56.1819 14.4797 56.6956 15.3548C57.2303 16.2218 57.4977 17.2117 57.4977 18.3244C57.4977 19.4232 57.2303 20.4131 56.6956 21.2948C56.1819 22.1699 55.4402 22.8892 54.5497 23.3757C53.6394 23.8819 52.6202 24.1346 51.4928 24.1346ZM51.4928 21.2082C52.0275 21.2082 52.4896 21.0776 52.8806 20.818C53.2708 20.5577 53.5849 20.1985 53.7909 19.7771C54.0072 19.3436 54.1154 18.8522 54.1154 18.3028C54.1154 17.7681 54.0072 17.2843 53.7909 16.85C53.5848 16.4289 53.2707 16.07 52.8806 15.81C52.4904 15.5496 52.0275 15.4197 51.4928 15.4197C50.9581 15.4197 50.4883 15.5496 50.0841 15.81C49.6936 16.0701 49.3792 16.4293 49.1731 16.8508C48.9523 17.3029 48.8411 17.8005 48.8485 18.3036C48.8485 18.8522 48.9567 19.3436 49.1731 19.7771C49.3793 20.1986 49.6937 20.5578 50.0841 20.818C50.4883 21.0776 50.9581 21.2082 51.4928 21.2082ZM40.7318 23.8741C39.7922 23.8741 38.9684 23.6655 38.2606 23.2459C37.5722 22.8467 37.0033 22.2704 36.6132 21.5768C36.2229 20.8829 36.0274 20.1164 36.0274 19.2787V8.69932H39.6693V19.5384C39.6693 19.8861 39.7929 20.189 40.0379 20.4494C40.2836 20.7091 40.5865 20.8396 40.9482 20.8396H44.9586V23.8741H40.7318Z" fill="#A0A0A0"/>
</g>
<defs>
<clipPath id="clip0_51_546">
<rect width="144.5" height="30.9091" fill="white" transform="translate(0.900024 0.574036)"/>
</clipPath>
</defs>
</svg>
