<svg width="112" height="13" viewBox="0 0 112 13" fill="none" xmlns="http://www.w3.org/2000/svg">
<path d="M0.288 12.0286L4.272 0.348564H7.984L12.08 12.0286H9.744L6.272 1.90056L7.088 2.25256H5.088L5.92 1.90056L2.56 12.0286H0.288ZM3.072 8.92456L3.792 7.00456H8.528L9.232 8.92456H3.072ZM19.0009 12.3326C17.9662 12.3326 17.0915 12.1672 16.3769 11.8366C15.6729 11.5059 15.1342 11.0526 14.7609 10.4766C14.3875 9.8899 14.2009 9.22856 14.2009 8.49256H16.4249C16.4249 8.8019 16.5102 9.1059 16.6809 9.40456C16.8515 9.69256 17.1235 9.92723 17.4969 10.1086C17.8809 10.2899 18.3822 10.3806 19.0009 10.3806C19.5555 10.3806 20.0195 10.3006 20.3929 10.1406C20.7662 9.98056 21.0435 9.77256 21.2249 9.51656C21.4062 9.2499 21.4969 8.95123 21.4969 8.62056C21.4969 8.20456 21.3209 7.8739 20.9689 7.62856C20.6169 7.37256 20.0729 7.21256 19.3369 7.14856L18.3129 7.06856C17.1929 6.97256 16.2969 6.6259 15.6249 6.02856C14.9635 5.42056 14.6329 4.62056 14.6329 3.62856C14.6329 2.8819 14.8089 2.2419 15.1609 1.70856C15.5129 1.16456 16.0035 0.748564 16.6329 0.460564C17.2729 0.161897 18.0195 0.0125637 18.8729 0.0125637C19.7582 0.0125637 20.5209 0.16723 21.1609 0.476563C21.8009 0.785897 22.2969 1.22323 22.6489 1.78856C23.0009 2.34323 23.1769 2.99923 23.1769 3.75656H20.9529C20.9529 3.43656 20.8729 3.14323 20.7129 2.87656C20.5635 2.59923 20.3342 2.38056 20.0249 2.22056C19.7262 2.0499 19.3422 1.96456 18.8729 1.96456C18.4249 1.96456 18.0515 2.03923 17.7529 2.18856C17.4542 2.3379 17.2302 2.54056 17.0809 2.79656C16.9315 3.05256 16.8569 3.3299 16.8569 3.62856C16.8569 3.99123 16.9902 4.31123 17.2569 4.58856C17.5235 4.85523 17.9449 5.0099 18.5209 5.05256L19.5449 5.14856C20.3769 5.21256 21.1075 5.38856 21.7369 5.67656C22.3662 5.96456 22.8515 6.3539 23.1929 6.84456C23.5449 7.33523 23.7209 7.92723 23.7209 8.62056C23.7209 9.35656 23.5289 10.0072 23.1449 10.5726C22.7609 11.1272 22.2115 11.5592 21.4969 11.8686C20.7929 12.1779 19.9609 12.3326 19.0009 12.3326ZM35.7953 12.3326C34.7606 12.3326 33.8859 12.1672 33.1713 11.8366C32.4673 11.5059 31.9286 11.0526 31.5553 10.4766C31.1819 9.8899 30.9953 9.22856 30.9953 8.49256H33.2193C33.2193 8.8019 33.3046 9.1059 33.4753 9.40456C33.6459 9.69256 33.9179 9.92723 34.2913 10.1086C34.6753 10.2899 35.1766 10.3806 35.7953 10.3806C36.3499 10.3806 36.8139 10.3006 37.1873 10.1406C37.5606 9.98056 37.8379 9.77256 38.0193 9.51656C38.2006 9.2499 38.2913 8.95123 38.2913 8.62056C38.2913 8.20456 38.1153 7.8739 37.7633 7.62856C37.4113 7.37256 36.8673 7.21256 36.1313 7.14856L35.1073 7.06856C33.9873 6.97256 33.0913 6.6259 32.4193 6.02856C31.7579 5.42056 31.4273 4.62056 31.4273 3.62856C31.4273 2.8819 31.6033 2.2419 31.9553 1.70856C32.3073 1.16456 32.7979 0.748564 33.4273 0.460564C34.0673 0.161897 34.8139 0.0125637 35.6673 0.0125637C36.5526 0.0125637 37.3153 0.16723 37.9553 0.476563C38.5953 0.785897 39.0913 1.22323 39.4433 1.78856C39.7953 2.34323 39.9713 2.99923 39.9713 3.75656H37.7473C37.7473 3.43656 37.6673 3.14323 37.5073 2.87656C37.3579 2.59923 37.1286 2.38056 36.8193 2.22056C36.5206 2.0499 36.1366 1.96456 35.6673 1.96456C35.2193 1.96456 34.8459 2.03923 34.5473 2.18856C34.2486 2.3379 34.0246 2.54056 33.8753 2.79656C33.7259 3.05256 33.6513 3.3299 33.6513 3.62856C33.6513 3.99123 33.7846 4.31123 34.0513 4.58856C34.3179 4.85523 34.7393 5.0099 35.3153 5.05256L36.3393 5.14856C37.1713 5.21256 37.9019 5.38856 38.5313 5.67656C39.1606 5.96456 39.6459 6.3539 39.9873 6.84456C40.3393 7.33523 40.5153 7.92723 40.5153 8.62056C40.5153 9.35656 40.3233 10.0072 39.9393 10.5726C39.5553 11.1272 39.0059 11.5592 38.2913 11.8686C37.5873 12.1779 36.7553 12.3326 35.7953 12.3326ZM43.8725 12.0286V0.348564H46.0965V12.0286H43.8725ZM45.7765 12.0286V10.1086H51.0725V12.0286H45.7765ZM45.7765 7.05256V5.13256H50.6565V7.05256H45.7765ZM45.7765 2.26856V0.348564H50.9445V2.26856H45.7765ZM54.6838 12.0286V0.348564H56.9078V12.0286H54.6838ZM56.5878 12.0286V10.1086H61.8838V12.0286H56.5878ZM56.5878 7.05256V5.13256H61.4678V7.05256H56.5878ZM56.5878 2.26856V0.348564H61.7558V2.26856H56.5878ZM65.495 12.0286V0.348564H69.223L74.135 10.1406H74.663L74.343 10.4286V0.348564H76.487V12.0286H72.743L67.831 2.23656H67.287L67.607 1.94856V12.0286H65.495ZM90.8711 12.3326C89.8151 12.3326 88.8978 12.1459 88.1191 11.7726C87.3511 11.3992 86.7111 10.9139 86.1991 10.3166C85.6978 9.70856 85.3191 9.0579 85.0631 8.36456C84.8178 7.66056 84.6951 6.98323 84.6951 6.33256V5.98056C84.6951 5.2659 84.8231 4.55656 85.0791 3.85256C85.3351 3.1379 85.7191 2.49256 86.2311 1.91656C86.7538 1.34056 87.3991 0.881897 88.1671 0.540564C88.9351 0.188564 89.8365 0.0125637 90.8711 0.0125637C91.8951 0.0125637 92.7911 0.188564 93.5591 0.540564C94.3271 0.881897 94.9671 1.34056 95.4791 1.91656C96.0018 2.49256 96.3911 3.1379 96.6471 3.85256C96.9031 4.55656 97.0311 5.2659 97.0311 5.98056V6.33256C97.0311 6.98323 96.9031 7.66056 96.6471 8.36456C96.4018 9.0579 96.0231 9.70856 95.5111 10.3166C95.0098 10.9139 94.3698 11.3992 93.5911 11.7726C92.8231 12.1459 91.9165 12.3326 90.8711 12.3326ZM90.8711 10.2206C91.4685 10.2206 92.0018 10.1139 92.4711 9.90056C92.9511 9.68723 93.3565 9.3939 93.6871 9.02056C94.0285 8.63656 94.2845 8.20456 94.4551 7.72456C94.6365 7.2339 94.7271 6.71656 94.7271 6.17256C94.7271 5.5859 94.6365 5.04723 94.4551 4.55656C94.2845 4.0659 94.0285 3.63923 93.6871 3.27656C93.3565 2.9139 92.9511 2.63123 92.4711 2.42856C91.9911 2.2259 91.4578 2.12456 90.8711 2.12456C90.2738 2.12456 89.7351 2.2259 89.2551 2.42856C88.7751 2.63123 88.3645 2.9139 88.0231 3.27656C87.6925 3.63923 87.4365 4.0659 87.2551 4.55656C87.0845 5.04723 86.9991 5.5859 86.9991 6.17256C86.9991 6.71656 87.0845 7.2339 87.2551 7.72456C87.4365 8.20456 87.6925 8.63656 88.0231 9.02056C88.3645 9.3939 88.7751 9.68723 89.2551 9.90056C89.7351 10.1139 90.2738 10.2206 90.8711 10.2206ZM100.507 12.0286V0.348564H104.235L109.147 10.1406H109.675L109.355 10.4286V0.348564H111.499V12.0286H107.755L102.843 2.23656H102.299L102.619 1.94856V12.0286H100.507Z" fill="#A0A0A0"/>
</svg>
