<svg width="101" height="52" viewBox="0 0 101 52" fill="none" xmlns="http://www.w3.org/2000/svg">
<path d="M2.78522 30.0451H5.61814V43.9358H2.78522V30.0451Z" fill="#A0A0A0"/>
<path d="M7.26122 39.1765C7.25935 38.1788 7.5535 37.2029 8.10645 36.3724C8.6594 35.5419 9.44629 34.8941 10.3675 34.511C11.2887 34.1279 12.3029 34.0267 13.2817 34.2202C14.2605 34.4137 15.1599 34.8932 15.866 35.5981C16.5722 36.3029 17.0534 37.2014 17.2487 38.1798C17.4441 39.1582 17.3448 40.1726 16.9634 41.0946C16.582 42.0165 15.9357 42.8046 15.1062 43.3591C14.2768 43.9137 13.3015 44.2096 12.3038 44.2096C11.6402 44.2172 10.9819 44.0923 10.3673 43.8421C9.75277 43.592 9.19428 43.2217 8.72464 42.7529C8.255 42.2842 7.88365 41.7264 7.63236 41.1122C7.38107 40.4981 7.25489 39.84 7.26122 39.1765ZM14.4945 39.1765C14.4834 38.7458 14.3455 38.3279 14.0981 37.9752C13.8507 37.6224 13.5048 37.3505 13.1036 37.1933C12.7024 37.0361 12.2638 37.0008 11.8427 37.0916C11.4215 37.1824 11.0365 37.3954 10.7357 37.7039C10.435 38.0124 10.2319 38.4028 10.1519 38.8262C10.0718 39.2495 10.1184 39.6871 10.2857 40.0841C10.4531 40.4811 10.7338 40.82 11.0927 41.0583C11.4517 41.2966 11.8729 41.4238 12.3038 41.4239C12.5985 41.4322 12.8918 41.3793 13.1651 41.2685C13.4384 41.1577 13.6858 40.9915 13.8917 40.7803C14.0975 40.5691 14.2574 40.3176 14.3611 40.0416C14.4649 39.7655 14.5103 39.471 14.4945 39.1765Z" fill="#A0A0A0"/>
<path d="M28.7346 34.4172V43.4636C28.7346 46.6648 26.2322 48.0152 23.7015 48.0152C22.8116 48.0814 21.9206 47.9014 21.1261 47.495C20.3316 47.0886 19.6643 46.4714 19.1972 45.7111L21.6335 44.3041C21.8268 44.6937 22.1327 45.0164 22.5115 45.2302C22.8903 45.444 23.3246 45.5392 23.7582 45.5033C24.0434 45.5509 24.3358 45.5323 24.6128 45.4489C24.8898 45.3656 25.1439 45.2198 25.3556 45.0227C25.5672 44.8256 25.7308 44.5825 25.8337 44.3122C25.9366 44.0419 25.976 43.7516 25.9489 43.4636V42.5854C25.6159 42.9952 25.1909 43.3207 24.7086 43.5356C24.2263 43.7505 23.7001 43.8488 23.1727 43.8225C21.8904 43.8225 20.6607 43.3131 19.7539 42.4064C18.8472 41.4997 18.3378 40.2699 18.3378 38.9876C18.3378 37.7053 18.8472 36.4756 19.7539 35.5689C20.6607 34.6622 21.8904 34.1528 23.1727 34.1528C23.6998 34.1287 24.2252 34.228 24.7072 34.4427C25.1892 34.6575 25.6144 34.9818 25.9489 35.3898V34.4455L28.7346 34.4172ZM25.9489 38.9876C25.9678 38.5284 25.8488 38.074 25.6074 37.6828C25.3659 37.2917 25.013 36.9817 24.594 36.7928C24.175 36.6038 23.709 36.5445 23.256 36.6225C22.803 36.7004 22.3837 36.9121 22.052 37.2302C21.7202 37.5484 21.4912 37.9585 21.3944 38.4078C21.2975 38.8571 21.3373 39.3252 21.5086 39.7517C21.6799 40.1783 21.9748 40.5438 22.3555 40.8014C22.7362 41.0591 23.1852 41.1969 23.6448 41.1973C23.9449 41.2185 24.246 41.1767 24.5288 41.0744C24.8117 40.9721 25.07 40.8118 25.2871 40.6036C25.5041 40.3954 25.6752 40.144 25.7892 39.8657C25.9032 39.5874 25.9576 39.2883 25.9489 38.9876Z" fill="#A0A0A0"/>
<path d="M30.3683 39.1765C30.3664 38.1788 30.6606 37.2029 31.2135 36.3724C31.7665 35.5419 32.5534 34.8941 33.4746 34.511C34.3958 34.1279 35.41 34.0267 36.3888 34.2202C37.3676 34.4137 38.267 34.8932 38.9732 35.5981C39.6793 36.3029 40.1605 37.2014 40.3559 38.1798C40.5512 39.1582 40.4519 40.1726 40.0705 41.0946C39.6891 42.0165 39.0428 42.8046 38.2134 43.3591C37.3839 43.9137 36.4086 44.2096 35.4109 44.2096C34.7474 44.2172 34.089 44.0923 33.4744 43.8421C32.8598 43.592 32.3013 43.2217 31.8317 42.7529C31.3621 42.2842 30.9907 41.7264 30.7394 41.1122C30.4881 40.4981 30.3619 39.84 30.3683 39.1765ZM37.6017 39.1765C37.5905 38.7458 37.4526 38.3279 37.2052 37.9752C36.9578 37.6224 36.6119 37.3505 36.2107 37.1933C35.8096 37.0361 35.371 37.0008 34.9498 37.0916C34.5286 37.1824 34.1436 37.3954 33.8428 37.7039C33.5421 38.0124 33.339 38.4028 33.2589 38.8262C33.1789 39.2495 33.2255 39.6871 33.3928 40.0841C33.5602 40.4811 33.8409 40.82 34.1998 41.0583C34.5588 41.2966 34.98 41.4238 35.4109 41.4239C35.7041 41.4295 35.9953 41.3747 36.2664 41.2627C36.5374 41.1507 36.7825 40.9841 36.9863 40.7732C37.1901 40.5624 37.3482 40.3117 37.4509 40.037C37.5535 39.7623 37.5984 39.4693 37.5828 39.1765H37.6017Z" fill="#A0A0A0"/>
<path d="M41.7661 31.8676C41.7661 31.5277 41.8669 31.1954 42.0557 30.9128C42.2446 30.6302 42.513 30.4099 42.827 30.2798C43.1411 30.1497 43.4866 30.1157 43.82 30.182C44.1534 30.2483 44.4596 30.412 44.7 30.6523C44.9404 30.8927 45.104 31.1989 45.1703 31.5323C45.2367 31.8657 45.2026 32.2113 45.0726 32.5253C44.9425 32.8393 44.7222 33.1078 44.4396 33.2966C44.1569 33.4854 43.8247 33.5862 43.4847 33.5862C43.0297 33.5838 42.594 33.4019 42.2722 33.0801C41.9504 32.7584 41.7686 32.3227 41.7661 31.8676ZM42.0588 34.4172H44.8917V43.9358H42.0588V34.4172Z" fill="#A0A0A0"/>
<path d="M57.2431 39.1765C57.2774 39.8057 57.187 40.4355 56.977 41.0296C56.7669 41.6237 56.4415 42.1704 56.0193 42.6382C55.5971 43.106 55.0866 43.4857 54.5171 43.7554C53.9476 44.0251 53.3304 44.1795 52.701 44.2097C52.1726 44.235 51.645 44.1442 51.1556 43.9435C50.6661 43.7428 50.2266 43.4372 49.8681 43.0482V47.7697H47.0352V34.4172H49.8681V35.3143C50.2266 34.9253 50.6661 34.6197 51.1556 34.419C51.645 34.2183 52.1726 34.1275 52.701 34.1528C53.3296 34.183 53.946 34.3371 54.5148 34.6062C55.0837 34.8754 55.5938 35.2542 56.0158 35.721C56.4379 36.1878 56.7635 36.7333 56.9741 37.3263C57.1848 37.9193 57.2762 38.5481 57.2431 39.1765ZM54.4102 39.1765C54.399 38.7333 54.258 38.3031 54.0047 37.9392C53.7514 37.5754 53.397 37.2937 52.9853 37.1293C52.5736 36.9648 52.1226 36.9247 51.6884 37.014C51.2541 37.1032 50.8555 37.3179 50.542 37.6314C50.2285 37.9449 50.0139 38.3434 49.9246 38.7777C49.8354 39.212 49.8755 39.6629 50.0399 40.0746C50.2044 40.4863 50.486 40.8408 50.8499 41.094C51.2138 41.3473 51.644 41.4883 52.0872 41.4995C52.3965 41.5192 52.7064 41.4724 52.9962 41.3624C53.2859 41.2523 53.5487 41.0815 53.767 40.8615C53.9852 40.6414 54.1539 40.3772 54.2616 40.0866C54.3692 39.796 54.4135 39.4857 54.3913 39.1765H54.4102Z" fill="#A0A0A0"/>
<path d="M66.063 41.084C66.063 43.2748 64.1744 44.2096 62.0969 44.2096C61.267 44.2831 60.4341 44.1065 59.7054 43.7026C58.9768 43.2987 58.3856 42.686 58.0081 41.9433L60.4822 40.5363C60.5826 40.8798 60.7976 41.1786 61.0913 41.383C61.3851 41.5874 61.7399 41.6852 62.0969 41.66C62.7863 41.66 63.1262 41.4428 63.1262 41.0651C63.1262 40.0169 58.4047 40.5741 58.4047 37.2879C58.4047 35.2104 60.1611 34.1622 62.1819 34.1622C62.9276 34.1396 63.6658 34.3167 64.32 34.6754C64.9743 35.034 65.5205 35.5611 65.9025 36.2019L63.419 37.5051C63.3093 37.2557 63.1295 37.0435 62.9015 36.8943C62.6735 36.7451 62.4072 36.6653 62.1347 36.6646C61.6437 36.6646 61.3415 36.8535 61.3415 37.2029C61.3793 38.2888 66.063 37.5617 66.063 41.084Z" fill="#A0A0A0"/>
<path d="M76.4882 34.4172V43.9358H73.6552V43.0482C73.3257 43.4426 72.9075 43.7534 72.4348 43.9553C71.9622 44.1572 71.4483 44.2443 70.9355 44.2097C69.0469 44.2097 67.3755 42.8404 67.3755 40.2625V34.4172H70.2085V39.847C70.1835 40.0784 70.2106 40.3124 70.2874 40.5321C70.3642 40.7518 70.4889 40.9516 70.6525 41.1171C70.8161 41.2826 71.0146 41.4095 71.2335 41.4887C71.4523 41.568 71.6861 41.5974 71.9176 41.5751C72.9565 41.5751 73.6835 40.9707 73.6835 39.6204V34.4172H76.4882Z" fill="#A0A0A0"/>
<path d="M92.8624 38.0999V43.9357H90.0294V38.3455C90.0294 37.4012 89.5667 36.7779 88.6601 36.7779C87.7536 36.7779 87.1682 37.4484 87.1682 38.5721V43.9357H84.3353V38.3455C84.3353 37.4012 83.882 36.7779 82.966 36.7779C82.05 36.7779 81.4835 37.4484 81.4835 38.5721V43.9357H78.6506V34.4172H81.4835V35.2954C81.7795 34.9075 82.1679 34.5998 82.6132 34.4003C83.0584 34.2007 83.5465 34.1156 84.0331 34.1528C84.5217 34.129 85.0082 34.2323 85.445 34.4523C85.8819 34.6724 86.2542 35.0019 86.526 35.4087C86.842 34.9834 87.2607 34.6451 87.743 34.4255C88.2252 34.2059 88.7551 34.112 89.2833 34.1528C91.4364 34.1528 92.8624 35.7203 92.8624 38.0999Z" fill="#A0A0A0"/>
<path d="M95.2799 34.3606C96.4481 34.3606 97.3951 33.4135 97.3951 32.2453C97.3951 31.0771 96.4481 30.1301 95.2799 30.1301C94.1117 30.1301 93.1646 31.0771 93.1646 32.2453C93.1646 33.4135 94.1117 34.3606 95.2799 34.3606Z" fill="#A0A0A0"/>
<path d="M34.8443 22.8401C40.3151 22.8401 44.75 18.4051 44.75 12.9343C44.75 7.46352 40.3151 3.02856 34.8443 3.02856C29.3735 3.02856 24.9385 7.46352 24.9385 12.9343C24.9385 18.4051 29.3735 22.8401 34.8443 22.8401Z" fill="#A0A0A0"/>
<path d="M56.9882 22.8401C62.459 22.8401 66.894 18.4051 66.894 12.9343C66.894 7.46352 62.459 3.02856 56.9882 3.02856C51.5174 3.02856 47.0824 7.46352 47.0824 12.9343C47.0824 18.4051 51.5174 22.8401 56.9882 22.8401Z" fill="#A0A0A0"/>
<path d="M22.6061 3.02856H2.80411V22.8306H22.6061V3.02856Z" fill="#A0A0A0"/>
</svg>
