<svg width="39" height="40" viewBox="0 0 39 40" fill="none" xmlns="http://www.w3.org/2000/svg">
<g clip-path="url(#clip0_8005_10779)">
<path d="M16.3449 39.1735C16.2425 39.1716 16.1415 39.1494 16.0477 39.108C15.954 39.0667 15.8695 39.007 15.799 38.9326L0.224722 23.3583C0.152874 23.2867 0.0958663 23.2016 0.0569682 23.108C0.01807 23.0143 -0.00195312 22.9139 -0.00195312 22.8124C-0.00195312 22.711 0.01807 22.6106 0.0569682 22.5169C0.0958663 22.4232 0.152874 22.3381 0.224722 22.2665L18.0308 4.46043C18.1191 4.3691 18.2298 4.30264 18.3519 4.26775L31.8229 0.189529C31.9569 0.150378 32.0989 0.147591 32.2344 0.18145C32.3698 0.215309 32.4938 0.284594 32.5936 0.382199L38.7752 6.49953C38.8787 6.59879 38.9519 6.72553 38.986 6.86487C39.0201 7.00421 39.0138 7.15038 38.9678 7.28627L34.8896 20.7572C34.8534 20.8788 34.7871 20.9892 34.6969 21.0784L16.9069 38.9326C16.834 39.0082 16.7468 39.0685 16.6503 39.1099C16.5538 39.1512 16.4499 39.1729 16.3449 39.1735ZM1.89455 22.8124L16.3449 37.2628L33.4606 20.1792L37.3462 7.33444L31.8229 1.82724L18.9781 5.71279L1.89455 22.8124Z" fill="#7FBE24"/>
<path d="M28.3709 11.3163C28.1666 11.3151 27.9709 11.2345 27.825 11.0915C27.6789 10.9442 27.5969 10.7451 27.5969 10.5376C27.5969 10.3301 27.6789 10.131 27.825 9.98368L31.0362 6.77248C31.1078 6.70063 31.1928 6.64363 31.2865 6.60473C31.3802 6.56583 31.4806 6.54581 31.5821 6.54581C31.6835 6.54581 31.7839 6.56583 31.8776 6.60473C31.9713 6.64363 32.0564 6.70063 32.128 6.77248C32.2741 6.91983 32.356 7.11892 32.356 7.32641C32.356 7.53391 32.2741 7.733 32.128 7.88035L28.9168 11.0915C28.7683 11.2305 28.5741 11.3104 28.3709 11.3163Z" fill="#7FBE24"/>
<path d="M17.4046 26.9709C16.1184 26.8979 14.9128 26.3211 14.0489 25.3653C12.3309 23.6473 11.9938 21.271 13.2943 19.9705C13.4452 19.8453 13.6373 19.7809 13.8332 19.7899C14.0291 19.799 14.2145 19.8809 14.3531 20.0195C14.4918 20.1582 14.5737 20.3436 14.5827 20.5395C14.5918 20.7353 14.5274 20.9275 14.4022 21.0784C13.7439 21.7367 14.081 23.1978 15.1407 24.2896C16.2004 25.3814 17.6776 25.7025 18.3519 25.0442C19.0263 24.3859 18.657 22.9248 17.5973 21.833C15.8793 20.115 15.5582 17.7548 16.8587 16.4542C18.1593 15.1537 20.5195 15.4748 22.2375 17.1928C22.9974 17.9237 23.5133 18.8713 23.7146 19.9063C23.8204 20.3783 23.8098 20.869 23.684 21.336C23.5581 21.8031 23.3207 22.2326 22.9921 22.5876C22.8413 22.7129 22.6491 22.7773 22.4532 22.7682C22.2573 22.7591 22.0719 22.6772 21.9333 22.5386C21.7946 22.4 21.7128 22.2145 21.7037 22.0187C21.6946 21.8228 21.759 21.6306 21.8843 21.4798C22.0255 21.2976 22.1258 21.0871 22.1785 20.8627C22.2311 20.6383 22.2348 20.4052 22.1893 20.1792C22.0354 19.4634 21.6721 18.8096 21.1457 18.3007C20.0699 17.241 18.6088 16.8878 17.9345 17.546C17.2601 18.2043 17.6294 19.6654 18.6891 20.7572C20.4071 22.4752 20.7282 24.8355 19.4277 26.136C19.1652 26.4057 18.8503 26.6188 18.5024 26.7624C18.1545 26.906 17.7809 26.9769 17.4046 26.9709Z" fill="#7FBE24"/>
<path d="M21.6755 18.5736C21.4713 18.5724 21.2755 18.4918 21.1296 18.3488C20.9835 18.2015 20.9016 18.0024 20.9016 17.7949C20.9016 17.5874 20.9835 17.3883 21.1296 17.241L22.2696 16.101C22.3412 16.0292 22.4263 15.9722 22.52 15.9333C22.6136 15.8944 22.7141 15.8743 22.8155 15.8743C22.9169 15.8743 23.0174 15.8944 23.111 15.9333C23.2047 15.9722 23.2898 16.0292 23.3614 16.101C23.5075 16.2484 23.5895 16.4474 23.5895 16.6549C23.5895 16.8624 23.5075 17.0615 23.3614 17.2089L22.2214 18.3488C22.0755 18.4918 21.8798 18.5724 21.6755 18.5736Z" fill="#7FBE24"/>
<path d="M13.4549 26.7943C13.2506 26.7931 13.0548 26.7125 12.909 26.5695C12.7629 26.4222 12.6809 26.2231 12.6809 26.0156C12.6809 25.8081 12.7629 25.609 12.909 25.4617L14.0489 24.3217C14.1205 24.2498 14.2056 24.1928 14.2993 24.1539C14.393 24.115 14.4934 24.095 14.5948 24.095C14.6963 24.095 14.7967 24.115 14.8904 24.1539C14.9841 24.1928 15.0691 24.2498 15.1407 24.3217C15.2868 24.469 15.3688 24.6681 15.3688 24.8756C15.3688 25.0831 15.2868 25.2822 15.1407 25.4295L14.0168 26.5695C13.8642 26.7121 13.6637 26.7923 13.4549 26.7943Z" fill="#7FBE24"/>
</g>
<defs>
<clipPath id="clip0_8005_10779">
<rect width="39" height="39" fill="white" transform="translate(0 0.157471)"/>
</clipPath>
</defs>
</svg>
