<svg width="49" height="39" viewBox="0 0 49 39" fill="none" xmlns="http://www.w3.org/2000/svg">
<g clip-path="url(#clip0_8005_10760)">
<path d="M13.4443 38.5594C10.1607 38.5594 7.23569 36.9659 6.14573 34.6066C6.11171 34.5294 6.09415 34.446 6.09415 34.3617C6.09415 34.2773 6.11171 34.1939 6.14573 34.1168C7.22189 31.7506 10.1538 30.1639 13.4443 30.1639C16.7349 30.1639 19.653 31.7506 20.7568 34.1168C20.7908 34.1939 20.8083 34.2773 20.8083 34.3617C20.8083 34.446 20.7908 34.5294 20.7568 34.6066C19.6737 36.9383 16.7349 38.5594 13.4443 38.5594ZM7.33918 34.3306C8.32566 36.1518 10.7401 37.3591 13.4512 37.3591C16.1623 37.3591 18.5906 36.1518 19.5702 34.3306C18.5906 32.5163 16.1761 31.3091 13.4512 31.3091C10.7263 31.3091 8.31186 32.5163 7.33918 34.3306Z" fill="#7FBE24"/>
<path d="M9.45011 32.1852C8.49671 32.1791 7.54902 32.0374 6.63553 31.7644C3.48292 30.8331 1.11673 28.4738 0.764909 25.9007C0.750895 25.8182 0.756058 25.7336 0.779983 25.6535C0.803909 25.5733 0.845963 25.4998 0.902888 25.4385C1.80163 24.4463 2.99698 23.7712 4.31072 23.5138C5.87099 23.1807 7.4905 23.252 9.0155 23.7207C9.72096 23.9304 10.4011 24.2173 11.0437 24.5762C12.0318 25.0589 12.8959 25.7622 13.5693 26.6317C14.2427 27.5012 14.7074 28.5138 14.9275 29.5914C14.9379 29.6748 14.931 29.7595 14.9072 29.8402C14.8835 29.9209 14.8434 29.9959 14.7895 30.0605C14.3612 30.5368 13.8579 30.9399 13.2995 31.2539C13.1632 31.3298 13.0023 31.3485 12.8522 31.3058C12.7021 31.2631 12.5752 31.1626 12.4993 31.0262C12.4233 30.8899 12.4046 30.7291 12.4473 30.579C12.49 30.4289 12.5906 30.3019 12.7269 30.226C13.0912 30.0252 13.4255 29.7745 13.7203 29.481C13.4859 28.6448 13.0786 27.8671 12.5249 27.1981C11.9712 26.5291 11.2832 25.9837 10.5056 25.5971C9.93674 25.2822 9.33533 25.0301 8.71197 24.8452C7.37068 24.4314 5.9459 24.3673 4.57287 24.6589C3.59378 24.8604 2.69335 25.3394 1.97905 26.0386C2.39986 28.0599 4.36592 29.8949 6.97355 30.6675C7.8054 30.9192 8.67077 31.0424 9.53979 31.0331C9.69384 31.0398 9.8399 31.1035 9.94956 31.2119C10.0592 31.3202 10.1246 31.4656 10.1331 31.6195C10.1331 31.775 10.0713 31.9242 9.96133 32.0341C9.85136 32.1441 9.70222 32.2059 9.5467 32.2059L9.45011 32.1852Z" fill="#7FBE24"/>
<path d="M10.7884 25.673C10.7314 25.6829 10.673 25.6829 10.616 25.673C10.5419 25.6502 10.4731 25.613 10.4136 25.5635C10.354 25.5139 10.3048 25.4531 10.2689 25.3845C10.233 25.3159 10.211 25.2408 10.2043 25.1636C10.1976 25.0864 10.2062 25.0087 10.2296 24.9349C10.7677 23.224 10.1745 21.0303 8.67748 19.2229C7.65871 17.988 6.32337 17.0532 4.81432 16.5187C3.70519 16.1164 2.49632 16.0801 1.36507 16.4152C0.840787 18.4158 1.78588 20.9406 3.77954 22.7963C4.10362 23.1002 4.45201 23.3771 4.82122 23.6242C4.95113 23.7111 5.04118 23.846 5.07158 23.9993C5.10198 24.1526 5.07023 24.3117 4.98333 24.4416C4.89642 24.5715 4.76148 24.6616 4.60817 24.692C4.45487 24.7224 4.29576 24.6907 4.16586 24.6038C3.74826 24.315 3.35174 23.9968 2.97932 23.6518C0.571743 21.4097 -0.469927 18.2502 0.330298 15.7806C0.357691 15.703 0.400562 15.6319 0.456297 15.5714C0.512033 15.5109 0.579471 15.4624 0.654528 15.4288C2.12231 14.8784 3.73976 14.8784 5.20754 15.4288C6.50385 15.8606 7.69199 16.5664 8.69127 17.4983C9.02191 17.8007 9.32867 18.1282 9.60878 18.4779C11.3541 20.5474 12.0302 23.1896 11.3748 25.2798C11.334 25.4008 11.2544 25.5049 11.1484 25.576C11.0424 25.6471 10.9158 25.6812 10.7884 25.673Z" fill="#7FBE24"/>
<path d="M9.09828 19.4092C8.97851 19.4081 8.86195 19.3704 8.76426 19.301C8.66658 19.2317 8.59246 19.1342 8.55189 19.0215C8.51131 18.9087 8.50623 18.7863 8.53732 18.6706C8.56841 18.555 8.63418 18.4516 8.72578 18.3744C10.2021 17.1258 11.023 14.8493 10.8505 12.421C10.6573 9.7099 9.29145 7.39201 7.40126 6.53659C5.64904 7.64035 4.64186 10.1238 4.81432 12.8349C4.87352 13.8224 5.10707 14.7917 5.50417 15.6978C5.54128 15.7688 5.56345 15.8466 5.56931 15.9265C5.57517 16.0064 5.56461 16.0866 5.53826 16.1623C5.51191 16.2379 5.47036 16.3074 5.41613 16.3664C5.36191 16.4253 5.29618 16.4725 5.223 16.5051C5.14981 16.5377 5.07072 16.5549 4.99062 16.5558C4.91052 16.5566 4.8311 16.541 4.75725 16.51C4.68341 16.4789 4.61671 16.4331 4.56127 16.3753C4.50583 16.3174 4.46283 16.2489 4.43492 16.1738C3.98512 15.1425 3.71896 14.0406 3.64848 12.9177C3.41393 9.64092 4.79363 6.60558 7.09772 5.32936C7.17489 5.29534 7.2583 5.27777 7.34263 5.27777C7.42696 5.27777 7.51035 5.29534 7.58751 5.32936C10.0158 6.23996 11.8025 9.05455 12.037 12.3382C12.2302 15.0976 11.2575 17.7811 9.4915 19.2367C9.44057 19.29 9.37962 19.3326 9.31213 19.3622C9.24465 19.3918 9.17196 19.4078 9.09828 19.4092Z" fill="#7FBE24"/>
<path d="M11.3886 12.4831C11.2757 12.4813 11.1655 12.4481 11.0705 12.3872C10.9754 12.3262 10.8993 12.24 10.8505 12.1382C10.7874 11.9953 10.7832 11.8334 10.8387 11.6875C10.8942 11.5415 11.0051 11.4234 11.1471 11.3586C12.5323 10.6909 13.6681 9.59853 14.3894 8.24052C15.6105 6.0468 15.7346 3.57023 14.7275 1.96289H14.6861C12.789 1.96289 10.7677 3.34258 9.55359 5.52941C9.34574 5.89846 9.16811 6.28374 9.02241 6.68145C8.96935 6.82782 8.86031 6.94712 8.7193 7.0131C8.57828 7.07908 8.41685 7.08634 8.27048 7.03328C8.12411 6.98022 8.00482 6.87119 7.93884 6.73018C7.87286 6.58916 7.86559 6.42772 7.91865 6.28135C8.08935 5.82489 8.29461 5.38209 8.53263 4.95683C10.0296 2.27332 12.6717 0.60388 15.1 0.817733C15.183 0.823907 15.2636 0.848089 15.3363 0.888596C15.4089 0.929103 15.4719 0.984969 15.5208 1.05229C16.9557 3.00456 16.9005 6.12958 15.4173 8.81999C14.5717 10.3972 13.2449 11.6636 11.63 12.4348C11.5547 12.4704 11.4718 12.4869 11.3886 12.4831Z" fill="#7FBE24"/>
<path d="M37.3752 12.4831C37.2914 12.4854 37.2083 12.4664 37.1338 12.4279C35.5189 11.6567 34.1921 10.3903 33.3465 8.8131C31.8495 6.12269 31.8012 2.99767 33.2361 1.04539C33.2864 0.977891 33.3506 0.922003 33.4244 0.881531C33.4982 0.841059 33.5799 0.816954 33.6638 0.810847C36.099 0.603892 38.7342 2.27333 40.2312 4.94994C40.4698 5.37393 40.6728 5.81694 40.8383 6.27445C40.8657 6.34641 40.8786 6.42313 40.8761 6.50012C40.8736 6.5771 40.8557 6.65281 40.8236 6.72282C40.7915 6.79283 40.7458 6.85575 40.6891 6.90787C40.6323 6.95999 40.5658 7.00028 40.4933 7.02639C40.4209 7.05275 40.3439 7.06455 40.2669 7.06113C40.1898 7.05771 40.1142 7.03913 40.0444 7.00645C39.9745 6.97377 39.9118 6.92764 39.8598 6.87069C39.8078 6.81374 39.7676 6.74709 39.7414 6.67457C39.5933 6.27672 39.4133 5.89145 39.2033 5.52252C37.9961 3.34949 35.9679 1.956 34.0777 1.956H34.0294C33.0223 3.56335 33.1464 6.0399 34.3675 8.23362C35.0894 9.59359 36.2281 10.6864 37.6167 11.3517C37.7563 11.4191 37.8644 11.5379 37.9184 11.6832C37.9724 11.8285 37.9681 11.9891 37.9064 12.1313C37.8612 12.2349 37.787 12.3232 37.6928 12.3856C37.5985 12.448 37.4883 12.4819 37.3752 12.4831Z" fill="#7FBE24"/>
<path d="M35.5471 38.5594C32.2565 38.5594 29.3385 36.9659 28.2416 34.6066C28.2076 34.5294 28.19 34.446 28.19 34.3617C28.19 34.2773 28.2076 34.1939 28.2416 34.1168C29.3178 31.7506 32.2565 30.1639 35.5471 30.1639C38.8377 30.1639 41.7558 31.7506 42.8457 34.1168C42.8834 34.1929 42.903 34.2767 42.903 34.3617C42.903 34.4466 42.8834 34.5304 42.8457 34.6066C41.7696 36.9383 38.8308 38.5594 35.5471 38.5594ZM29.4144 34.3306C30.4008 36.1518 32.8153 37.3591 35.5333 37.3591C38.2513 37.3591 40.6658 36.1518 41.6454 34.3306C40.6658 32.5163 38.2513 31.3091 35.5333 31.3091C32.8153 31.3091 30.4077 32.5163 29.4144 34.3306Z" fill="#7FBE24"/>
<path d="M39.5413 32.1852H39.4517C39.3747 32.1861 39.2984 32.1716 39.2272 32.1424C39.156 32.1131 39.0914 32.0699 39.0373 32.0151C38.9833 31.9604 38.9408 31.8953 38.9124 31.8238C38.884 31.7523 38.8703 31.6758 38.8722 31.5988C38.8821 31.4454 38.948 31.3009 39.0574 31.1928C39.1667 31.0848 39.3119 31.0206 39.4655 31.0124C40.3345 31.0212 41.1997 30.8979 42.0317 30.6468C44.6324 29.8742 46.6054 28.0392 47.0262 26.0179C46.3119 25.3187 45.4115 24.8397 44.4324 24.6382C43.0592 24.3485 41.6349 24.4126 40.2933 24.8245C39.6721 25.0093 39.073 25.2615 38.5066 25.5764C37.7289 25.963 37.041 26.5084 36.4873 27.1774C35.9335 27.8464 35.5263 28.6241 35.2919 29.4603C35.5853 29.7553 35.9199 30.0063 36.2853 30.2053C36.3524 30.2433 36.4113 30.2942 36.4587 30.355C36.5061 30.4158 36.5411 30.4853 36.5616 30.5596C36.5821 30.634 36.5878 30.7116 36.5782 30.7881C36.5687 30.8647 36.5441 30.9385 36.506 31.0056C36.4693 31.073 36.4195 31.1325 36.3596 31.1805C36.2997 31.2285 36.2308 31.2642 36.157 31.2853C36.0832 31.3065 36.0059 31.3128 35.9296 31.3039C35.8533 31.2949 35.7796 31.2709 35.7127 31.2332C35.1531 30.921 34.6495 30.5177 34.2226 30.0398C34.1672 29.9761 34.1262 29.9012 34.1024 29.8203C34.0786 29.7393 34.0725 29.6542 34.0846 29.5707C34.2999 28.4941 34.7595 27.4814 35.4281 26.6107C36.0968 25.74 36.9564 25.0344 37.9409 24.5486C38.5827 24.195 39.2603 23.9105 39.9622 23.7001C41.4896 23.2316 43.1112 23.1604 44.6738 23.4931C45.9876 23.7505 47.1829 24.4256 48.0817 25.4178C48.1358 25.4809 48.176 25.5546 48.1998 25.6342C48.2235 25.7138 48.2303 25.7976 48.2197 25.88C47.8609 28.4531 45.5016 30.8124 42.349 31.7437C41.4386 32.0225 40.4934 32.1711 39.5413 32.1852Z" fill="#7FBE24"/>
<path d="M38.2375 25.673C38.1122 25.6738 37.9899 25.6338 37.8892 25.5592C37.7884 25.4846 37.7146 25.3793 37.6788 25.2591C36.9889 23.1896 37.6788 20.5612 39.4448 18.4503C39.7268 18.1044 40.0334 17.7793 40.3623 17.4776C41.3499 16.5398 42.5257 15.8226 43.8115 15.3736C45.2799 14.8264 46.8962 14.8264 48.3645 15.3736C48.4422 15.4061 48.5121 15.4549 48.5692 15.5168C48.6263 15.5787 48.6695 15.6522 48.6957 15.7323C49.5166 18.1951 48.4473 21.3546 46.0397 23.5966C45.6705 23.9432 45.2736 24.2593 44.8532 24.5417C44.7896 24.5856 44.7179 24.6164 44.6423 24.6322C44.5666 24.6481 44.4886 24.6486 44.4128 24.6338C44.3369 24.619 44.2648 24.5892 44.2006 24.5461C44.1365 24.5031 44.0816 24.4476 44.0392 24.383C43.9965 24.3187 43.9669 24.2466 43.9521 24.1709C43.9373 24.0952 43.9376 24.0172 43.9529 23.9416C43.9683 23.866 43.9985 23.7941 44.0417 23.7302C44.0849 23.6663 44.1403 23.6115 44.2047 23.569C44.5717 23.3217 44.9178 23.0449 45.2395 22.7412C47.2332 20.8855 48.1783 18.3606 47.6609 16.3601C46.5296 16.025 45.3208 16.0612 44.2116 16.4635C43.0724 16.854 42.0303 17.4845 41.1556 18.3123C40.8654 18.5768 40.5957 18.8627 40.3485 19.1677C38.8515 20.9751 38.2789 23.1689 38.7963 24.8797C38.8198 24.9535 38.8284 25.0313 38.8217 25.1084C38.8149 25.1856 38.7929 25.2607 38.757 25.3293C38.7211 25.3979 38.6719 25.4588 38.6124 25.5083C38.5528 25.5578 38.484 25.595 38.41 25.6178C38.3563 25.6465 38.2979 25.6652 38.2375 25.673Z" fill="#7FBE24"/>
<path d="M39.8932 19.4092C39.7542 19.4108 39.6193 19.3617 39.5138 19.2712C37.7547 17.788 36.7544 15.1321 36.9751 12.3727C37.2097 9.08903 38.9964 6.27445 41.4246 5.36385C41.5005 5.32957 41.5828 5.31183 41.6661 5.31183C41.7494 5.31183 41.8316 5.32957 41.9075 5.36385C44.1978 6.60558 45.5775 9.64092 45.3568 12.9522C45.2907 14.0728 45.0268 15.1728 44.5773 16.2014C44.5141 16.3441 44.3969 16.4559 44.2514 16.5122C44.1058 16.5684 43.9439 16.5646 43.8012 16.5015C43.6585 16.4383 43.5467 16.3211 43.4904 16.1756C43.4341 16.03 43.438 15.8681 43.5011 15.7254C43.8974 14.8214 44.1309 13.8546 44.1909 12.8694C44.3841 10.1514 43.3493 7.66794 41.5971 6.56418C39.7207 7.4196 38.3479 9.7375 38.1479 12.4555C37.9823 14.8769 38.7963 17.1534 40.2795 18.402C40.3715 18.4796 40.4375 18.5836 40.4684 18.6999C40.4993 18.8162 40.4936 18.9393 40.4522 19.0523C40.4108 19.1653 40.3355 19.2628 40.2368 19.3316C40.138 19.4004 40.0204 19.4371 39.9001 19.4368L39.8932 19.4092Z" fill="#7FBE24"/>
<path d="M21.212 24.6175C21.0915 24.6182 20.9736 24.5821 20.874 24.5141C20.7842 24.4508 20.7139 24.3636 20.6712 24.2624C20.6285 24.1612 20.6151 24.05 20.6326 23.9415L21.1706 20.5819L18.7079 18.2364C18.6291 18.1605 18.5732 18.0641 18.5463 17.958C18.5195 17.852 18.5229 17.7405 18.5561 17.6363C18.588 17.5318 18.6491 17.4386 18.7322 17.3677C18.8153 17.2968 18.917 17.2511 19.0252 17.2362L22.3848 16.705L23.8542 13.642C23.9007 13.5439 23.9739 13.4608 24.0654 13.4023C24.1568 13.3437 24.2629 13.3121 24.3716 13.3109C24.4804 13.3113 24.5872 13.341 24.6806 13.3968C24.7741 13.4527 24.8508 13.5326 24.9027 13.6282L26.4411 16.6636L29.8145 17.112C29.9225 17.1268 30.0243 17.1714 30.1084 17.2409C30.1925 17.3103 30.2555 17.4019 30.2904 17.5052C30.3243 17.6099 30.3287 17.722 30.3031 17.829C30.2776 17.9361 30.2231 18.0341 30.1456 18.1123L27.738 20.5129L28.352 23.8518C28.3723 23.96 28.3617 24.0718 28.3214 24.1743C28.2811 24.2767 28.2129 24.3658 28.1243 24.4313C28.0369 24.4962 27.9329 24.5352 27.8243 24.5438C27.7157 24.5523 27.6069 24.53 27.5104 24.4796L24.4819 22.9343L21.488 24.5486C21.4037 24.5956 21.3085 24.6194 21.212 24.6175ZM20.3773 18.2088L22.2054 19.9473C22.2734 20.0134 22.3246 20.0949 22.3546 20.185C22.3846 20.275 22.3926 20.3709 22.3779 20.4647L21.9778 22.955L24.1991 21.7547C24.2836 21.7122 24.3769 21.6901 24.4716 21.6901C24.5662 21.6901 24.6595 21.7122 24.7441 21.7547L26.9861 22.9067L26.5308 20.4233C26.5146 20.3301 26.5212 20.2343 26.55 20.1442C26.5789 20.0541 26.6291 19.9724 26.6963 19.9059L28.4762 18.1261L25.9789 17.788C25.8855 17.7766 25.7963 17.7422 25.7193 17.6881C25.6423 17.634 25.5798 17.5617 25.5374 17.4776L24.3922 15.2287L23.3023 17.4983C23.2623 17.584 23.2016 17.6585 23.1258 17.7151C23.0499 17.7717 22.9613 17.8086 22.8677 17.8225L20.3773 18.2088Z" fill="#7FBE24"/>
<path d="M32.636 23.3827C32.5397 23.3827 32.4449 23.359 32.36 23.3137L29.9662 22.003C29.829 21.9298 29.7265 21.8051 29.6812 21.6564C29.6359 21.5076 29.6516 21.3469 29.7248 21.2097C29.798 21.0725 29.9227 20.9699 30.0714 20.9247C30.2202 20.8794 30.3809 20.8951 30.5181 20.9682L32.9188 22.2445C33.0347 22.3063 33.1265 22.4052 33.1795 22.5254C33.2325 22.6457 33.2436 22.7802 33.2109 22.9074C33.1783 23.0347 33.1039 23.1473 32.9997 23.2273C32.8954 23.3072 32.7673 23.3498 32.636 23.3482V23.3827Z" fill="#7FBE24"/>
<path d="M24.4681 29.7224C24.3138 29.7224 24.1657 29.6616 24.0559 29.5531C23.9461 29.4446 23.8836 29.2973 23.8818 29.143L23.8404 26.425C23.8385 26.3479 23.8519 26.2713 23.8797 26.1995C23.9075 26.1276 23.9491 26.062 24.0023 26.0062C24.0555 25.9505 24.1191 25.9058 24.1896 25.8747C24.26 25.8435 24.3359 25.8266 24.4129 25.8248C24.5667 25.8265 24.7138 25.8879 24.8232 25.996C24.9326 26.1041 24.9958 26.2505 24.9993 26.4043L25.0407 29.1223C25.0426 29.2784 24.9828 29.429 24.8743 29.5414C24.7658 29.6538 24.6174 29.7188 24.4612 29.7224H24.4681Z" fill="#7FBE24"/>
<path d="M16.3555 22.7825C16.2179 22.7767 16.0865 22.7231 15.9841 22.6309C15.8817 22.5388 15.8145 22.4139 15.7941 22.2776C15.7737 22.1414 15.8014 22.0023 15.8723 21.8842C15.9433 21.7661 16.0532 21.6764 16.183 21.6305L18.7838 20.8441C18.8589 20.8147 18.9392 20.8011 19.0198 20.8042C19.1004 20.8073 19.1794 20.8269 19.2521 20.862C19.3247 20.897 19.3893 20.9466 19.4419 21.0077C19.4945 21.0688 19.5339 21.1402 19.5577 21.2172C19.5815 21.2943 19.5891 21.3754 19.5801 21.4555C19.5711 21.5356 19.5457 21.6131 19.5054 21.6829C19.4652 21.7528 19.4109 21.8136 19.3461 21.8615C19.2813 21.9095 19.2073 21.9436 19.1287 21.9616L16.528 22.7549C16.4716 22.7703 16.4138 22.7796 16.3555 22.7825Z" fill="#7FBE24"/>
<path d="M20.1428 14.7665C20.0007 14.7666 19.8634 14.7151 19.7565 14.6216L17.6869 12.8418C17.6289 12.7911 17.5814 12.7295 17.5473 12.6604C17.5131 12.5913 17.4929 12.5162 17.4878 12.4393C17.4826 12.3625 17.4927 12.2853 17.5174 12.2123C17.5421 12.1394 17.581 12.072 17.6317 12.014C17.6819 11.9552 17.7434 11.907 17.8124 11.8723C17.8815 11.8376 17.9569 11.8171 18.034 11.8119C18.1111 11.8068 18.1885 11.8171 18.2616 11.8424C18.3347 11.8676 18.402 11.9072 18.4595 11.9588L20.5291 13.7386C20.5884 13.7883 20.6372 13.8494 20.6725 13.9182C20.7078 13.9871 20.729 14.0623 20.7347 14.1394C20.7405 14.2166 20.7308 14.2941 20.7062 14.3675C20.6815 14.4408 20.6424 14.5085 20.5912 14.5664C20.5348 14.6295 20.4656 14.6799 20.3884 14.7144C20.3111 14.7489 20.2274 14.7666 20.1428 14.7665Z" fill="#7FBE24"/>
<path d="M28.621 14.7665C28.5017 14.7666 28.3851 14.7302 28.2869 14.6623C28.1888 14.5944 28.1137 14.4982 28.0717 14.3864C28.0297 14.2747 28.0228 14.1528 28.0519 14.037C28.0811 13.9213 28.1448 13.8172 28.2347 13.7386L30.3043 11.9588C30.3609 11.9008 30.429 11.8553 30.5042 11.8249C30.5794 11.7946 30.66 11.7802 30.741 11.7826C30.8221 11.7851 30.9017 11.8043 30.9749 11.839C31.0482 11.8738 31.1134 11.9233 31.1665 11.9846C31.2196 12.0458 31.2595 12.1174 31.2835 12.1948C31.3075 12.2723 31.3153 12.3538 31.3062 12.4344C31.2971 12.5149 31.2715 12.5927 31.2308 12.6628C31.1902 12.733 31.1354 12.7939 31.07 12.8418L29.0004 14.6216C28.8953 14.7136 28.7607 14.7649 28.621 14.7665Z" fill="#7FBE24"/>
<path d="M24.4267 11.6001C24.2712 11.6001 24.1221 11.5383 24.0121 11.4283C23.9021 11.3184 23.8404 11.1692 23.8404 11.0137V8.29571C23.8404 8.13955 23.9019 7.98968 24.0117 7.87862C24.1215 7.76756 24.2706 7.70426 24.4267 7.70244C24.5823 7.70244 24.7314 7.76422 24.8414 7.87419C24.9513 7.98415 25.0131 8.13329 25.0131 8.28881V11.0068C25.0131 11.163 24.9516 11.3128 24.8418 11.4239C24.732 11.535 24.5829 11.5983 24.4267 11.6001Z" fill="#7FBE24"/>
</g>
<defs>
<clipPath id="clip0_8005_10760">
<rect width="49" height="37.7348" fill="white" transform="translate(0 0.7901)"/>
</clipPath>
</defs>
</svg>
