<svg width="75" height="76" viewBox="0 0 75 76" fill="none" xmlns="http://www.w3.org/2000/svg">
<rect x="0.5" y="1.43018" width="74" height="74" rx="37" fill="white"/>
<rect x="0.5" y="1.43018" width="74" height="74" rx="37" stroke="#7FBE24"/>
<g clip-path="url(#clip0_29_550)">
<path d="M30.3729 16.4759C25.6769 18.105 21.627 21.1971 18.8182 25.2979C16.0094 29.3988 14.5897 34.2923 14.7676 39.2597C14.9455 44.2271 16.7116 49.0066 19.8066 52.896C22.9016 56.7854 27.1623 59.5799 31.9628 60.8689C35.8547 61.8731 39.9323 61.9172 43.845 60.9974C47.3895 60.2012 50.6665 58.4982 53.3552 56.055C56.1534 53.4346 58.1845 50.101 59.2302 46.4127C60.3663 42.4017 60.5685 38.1838 59.8213 34.0825H37.9663V43.1484H50.6233C50.3703 44.5943 49.8283 45.9744 49.0295 47.2059C48.2308 48.4375 47.1918 49.4952 45.9747 50.3159C44.4293 51.3386 42.687 52.0266 40.8598 52.3354C39.0273 52.6762 37.1477 52.6762 35.3152 52.3354C33.4578 51.9518 31.7008 51.1852 30.1563 50.0846C27.6746 48.3279 25.8112 45.8322 24.832 42.9538C23.8365 40.0213 23.8365 36.8424 24.832 33.9099C25.5291 31.8545 26.6813 29.983 28.2028 28.4352C29.944 26.6314 32.1484 25.342 34.5741 24.7085C36.9998 24.075 39.5532 24.1219 41.954 24.8441C43.8296 25.4196 45.5447 26.4255 46.9624 27.7816C48.3896 26.3618 49.8143 24.9383 51.2365 23.5112C51.9709 22.7438 52.7713 22.0131 53.4947 21.2273C51.3302 19.2133 48.7898 17.6461 46.0188 16.6154C40.9725 14.7831 35.451 14.7339 30.3729 16.4759Z" fill="white"/>
<path d="M30.3729 16.476C35.4506 14.7328 40.9721 14.7807 46.0188 16.6118C48.7903 17.6495 51.3296 19.2243 53.491 21.2457C52.7566 22.0315 51.9819 22.7659 51.2328 23.5296C49.8081 24.9519 48.3847 26.3692 46.9624 27.7817C45.5447 26.4256 43.8296 25.4196 41.954 24.8442C39.554 24.1195 37.0007 24.0699 34.5743 24.7007C32.148 25.3316 29.9422 26.6186 28.1991 28.4206C26.6776 29.9684 25.5254 31.8399 24.8284 33.8953L17.2166 28.002C19.9411 22.599 24.6585 18.4662 30.3729 16.476Z" fill="#E33629"/>
<path d="M15.197 33.8402C15.6059 31.8125 16.2851 29.8489 17.2166 28.002L24.8284 33.91C23.8329 36.8424 23.8329 40.0214 24.8284 42.9538C22.2923 44.9122 19.7551 46.8803 17.2166 48.8582C14.8855 44.2181 14.1745 38.9313 15.197 33.8402Z" fill="#F8BD00"/>
<path d="M37.9663 34.0791H59.8213C60.5685 38.1804 60.3663 42.3983 59.2302 46.4093C58.1845 50.0976 56.1534 53.4312 53.3552 56.0516C50.8987 54.1349 48.4312 52.2329 45.9747 50.3161C47.1926 49.4947 48.232 48.4357 49.0308 47.2029C49.8296 45.97 50.3712 44.5885 50.6233 43.1413H37.9663C37.9627 40.123 37.9663 37.1011 37.9663 34.0791Z" fill="#587DBD"/>
<path d="M17.2129 48.8582C19.7514 46.8999 22.2886 44.9318 24.8247 42.9539C25.8058 45.8333 27.6719 48.3291 30.1562 50.0846C31.7056 51.1802 33.4664 51.9406 35.3263 52.3171C37.1587 52.658 39.0383 52.658 40.8708 52.3171C42.698 52.0083 44.4403 51.3204 45.9857 50.2976C48.4422 52.2143 50.9097 54.1164 53.3662 56.0331C50.678 58.4775 47.4009 60.1819 43.856 60.9791C39.9433 61.8989 35.8657 61.8548 31.9738 60.8506C28.8957 60.0287 26.0205 58.5799 23.5285 56.5949C20.8911 54.5005 18.7368 51.8615 17.2129 48.8582Z" fill="#319F43"/>
</g>
<defs>
<clipPath id="clip0_29_550">
<rect width="47" height="47" fill="white" transform="translate(14 14.9302)"/>
</clipPath>
</defs>
</svg>
