<svg width="51" height="54" viewBox="0 0 51 54" fill="none" xmlns="http://www.w3.org/2000/svg">
<path d="M8.41542 40.5912C8.38863 37.7061 6.06404 34.0183 3.37262 30.2006C7.76936 31.4227 11.8601 34.7849 15.6004 40.5912M15.6004 40.5912C15.553 34.9343 13.8384 29.3876 10.7101 23.9347C15.7694 28.5108 19.2852 34.0327 21.1018 40.5912C22.1864 34.5944 22.519 28.4858 22.092 22.4066C24.4011 27.7359 25.5686 33.8926 25.9879 40.5912C26.5969 33.9441 28.4753 27.909 32.4063 22.8683C30.2933 28.7759 30.2679 34.6836 32.3301 40.5912C35.682 34.821 40.4558 30.5963 46.9237 28.214C43.7954 32.4706 38.6722 36.618 39.4358 40.821M15.6004 40.5912C13.9951 35.7349 10.2516 29.131 6.04961 25.5391M30.8319 33.0414C32.463 29.4278 35.6593 27.3196 39.208 25.5401C37.4038 28.8611 35.1101 33.0414 35.5728 36.0162M21.0997 40.5912C20.4949 33.8256 19.3418 27.5154 16.7442 22.4066M34.1941 28.6931C35.5965 24.6292 37.2853 21.0815 39.6666 18.7394M17.1347 19.5555C17.6138 20.7724 17.349 22.0161 16.5443 22.3324C15.7395 22.6488 14.6988 21.9203 14.2197 20.7023C13.7406 19.4844 13.5839 17.1732 14.3897 16.8641C15.1955 16.555 16.6556 18.3376 17.1347 19.5555ZM42.3363 17.7533C41.4533 18.7188 40.2199 19.0279 39.5821 18.4437C38.9443 17.8594 39.1421 16.6044 40.0251 15.6389C40.9082 14.6734 42.9103 13.5194 43.5533 14.1026C44.1962 14.6858 43.2153 16.7878 42.3363 17.7533Z" stroke="#7FBE24" stroke-width="1.94484" stroke-linecap="round" stroke-linejoin="round"/>
</svg>
