<svg width="51" height="53" viewBox="0 0 51 53" fill="none" xmlns="http://www.w3.org/2000/svg">
<path d="M25.002 25.8195V25.7029V16.9716C25.002 16.5998 24.8552 16.2435 24.5942 15.981C24.3332 15.7185 23.9795 15.5713 23.611 15.5713C23.2424 15.5713 22.8887 15.7185 22.6278 15.981C22.3668 16.2435 22.2199 16.5998 22.2199 16.9716V26.6128V26.6128C22.2198 26.8548 22.2821 27.0926 22.4004 27.3031C22.5188 27.5135 22.6892 27.6894 22.8949 27.8138L25.002 25.8195ZM25.002 25.8195L25.1019 25.8798L32.3151 30.2323M25.002 25.8195L32.3151 30.2323M32.3151 30.2323C32.3151 30.2323 32.3152 30.2323 32.3152 30.2324C32.6315 30.4234 32.8597 30.7332 32.9492 31.094C33.0387 31.4547 32.982 31.8364 32.7917 32.155C32.6015 32.4735 32.2935 32.7027 31.9358 32.7924C31.578 32.8822 31.1995 32.8254 30.8832 32.6344L30.8831 32.6344L22.895 27.8138L32.3151 30.2323ZM41.0282 17.5078L41.3916 17.9314V17.3733V13.7578C41.3916 13.3861 41.5384 13.0298 41.7994 12.7673C42.0604 12.5048 42.4141 12.3575 42.7826 12.3575C43.1512 12.3575 43.5049 12.5048 43.7658 12.7673C44.0268 13.0298 44.1737 13.3861 44.1737 13.7578V21.7922C44.1737 22.1639 44.0268 22.5202 43.7658 22.7827C43.5049 23.0452 43.1512 23.1924 42.7826 23.1924H34.7944C34.4259 23.1924 34.0722 23.0452 33.8112 22.7827C33.5502 22.5202 33.4034 22.1639 33.4034 21.7922C33.4034 21.4204 33.5502 21.0641 33.8112 20.8016C34.0722 20.5391 34.4259 20.3919 34.7944 20.3919H39.3876H39.8341L39.5451 20.0516C38.107 18.3577 36.6797 16.759 35.0497 15.0994L35.0487 15.0984C32.7987 12.8387 29.9365 11.2956 26.8195 10.662C23.7026 10.0285 20.4691 10.3325 17.5229 11.5361C14.5768 12.7397 12.0487 14.7896 10.2541 17.4294C8.45963 20.0693 7.47818 23.1822 7.43223 26.3795C7.38627 29.5768 8.27784 32.717 9.99572 35.4079C11.7136 38.0988 14.1817 40.2212 17.092 41.51C20.0024 42.7987 23.2258 43.1967 26.3596 42.654C29.4935 42.1113 32.3989 40.652 34.7129 38.4587L34.7131 38.4585C34.8461 38.3321 35.0024 38.2334 35.1732 38.1679C35.3439 38.1023 35.5258 38.0713 35.7085 38.0765C35.8911 38.0817 36.071 38.123 36.2378 38.1981C36.4046 38.2733 36.5552 38.3807 36.6809 38.5145C36.8065 38.6482 36.9048 38.8056 36.9701 38.9777C37.0354 39.1498 37.0663 39.3332 37.0611 39.5174C37.056 39.7016 37.0148 39.8829 36.9399 40.051C36.8651 40.219 36.7582 40.3705 36.6253 40.4969C33.9141 43.07 30.5093 44.7824 26.8363 45.4202C23.1634 46.058 19.3849 45.5931 15.9731 44.0834C12.5612 42.5738 9.66717 40.0862 7.65266 36.9315C5.63814 33.7767 4.59257 30.0947 4.64671 26.3455C4.70085 22.5962 5.8523 18.9463 7.95706 15.8517C10.0618 12.7572 13.0265 10.3552 16.4804 8.94585C19.9344 7.53648 23.7247 7.18211 27.3777 7.92697C31.0306 8.67181 34.3844 10.4828 37.0201 13.1339C38.4721 14.6123 39.7629 16.0328 41.0282 17.5078Z" fill="#7FBE24" stroke="white" stroke-width="0.413195"/>
</svg>
