<svg width="51" height="54" viewBox="0 0 51 54" fill="none" xmlns="http://www.w3.org/2000/svg">
<path d="M12.0469 30.6688C11.8833 30.7142 11.7262 30.7805 11.5796 30.8662L11.5796 30.8662L12.0847 30.8019M12.0469 30.6688C12.0472 30.6687 12.0475 30.6686 12.0478 30.6686L12.0847 30.8019M12.0469 30.6688C12.0465 30.6689 12.0462 30.669 12.0459 30.6691L12.0847 30.8019M12.0469 30.6688C12.6556 30.4906 13.2661 30.3154 13.8762 30.1404C14.2359 30.0372 14.5955 29.934 14.9546 29.8302M12.0847 30.8019C12.6935 30.6237 13.3035 30.4487 13.9136 30.2736C14.2735 30.1704 14.6334 30.0671 14.9932 29.9631M14.9546 29.8302L14.9932 29.9631M14.9546 29.8302C14.9547 29.8302 14.9547 29.8302 14.9547 29.8302L14.9932 29.9631M14.9546 29.8302C15.1606 29.7705 15.3833 29.7182 15.6017 29.7384C15.8281 29.7592 16.0416 29.857 16.227 30.0775L16.2271 30.0776C16.3988 30.2825 16.4525 30.4915 16.4373 30.7015C16.4229 30.902 16.3454 31.0989 16.2712 31.2805L16.2711 31.2808C15.772 32.4961 15.2751 33.7164 14.7781 34.937C14.2502 36.2337 13.7221 37.5306 13.1912 38.8218L13.1912 38.8219C12.9961 39.296 12.7794 39.6222 12.456 39.7324C12.1329 39.8426 11.7599 39.718 11.3104 39.4611L11.3099 39.4608C9.71857 38.5424 8.12921 37.6167 6.54055 36.6914C5.61804 36.1541 4.69577 35.617 3.77349 35.0815C3.62753 35.0068 3.4868 34.9222 3.35227 34.8284L3.34551 34.8237L3.34566 34.8235C3.01135 34.5597 2.84823 34.2126 2.89431 33.8771C2.94069 33.5394 3.19308 33.2558 3.60026 33.1097L3.60031 33.1096C4.08688 32.9351 4.59292 32.8015 5.09215 32.6696C5.32739 32.6075 5.56112 32.5458 5.79059 32.4804L5.79062 32.4804C6.17975 32.3695 6.56821 32.2553 6.95319 32.1422C7.06133 32.1104 7.16921 32.0787 7.27674 32.0472C7.22223 31.7222 7.16627 31.4033 7.11105 31.0886C6.97577 30.3176 6.8449 29.5718 6.75054 28.8231L6.7505 28.8228C6.26761 24.9193 6.95318 21.1944 8.77039 17.7303L8.77041 17.7302C11.9637 11.6478 17.0348 8.0101 23.835 7.15154L23.835 7.15154C34.6365 5.7887 43.5839 13.0579 45.5244 22.4841L45.3889 22.512L45.5245 22.4841C46.9327 29.328 45.1936 35.3575 40.3854 40.4123L40.3853 40.4123C37.1803 43.7795 33.1789 45.6615 28.5554 46.2213C25.158 46.6326 21.9027 46.1298 18.7513 44.8541C18.4752 44.7543 18.212 44.6218 17.9672 44.4596L17.963 44.4568L17.963 44.4567C17.5785 44.1808 17.4728 43.6252 17.7151 43.2499C17.8258 43.0784 17.97 42.9361 18.1494 42.8553C18.331 42.7734 18.5379 42.7597 18.761 42.8283C18.9256 42.8777 19.0889 42.9465 19.2436 43.0117C19.3237 43.0454 19.4015 43.0782 19.476 43.1068L19.4761 43.1068C25.9595 45.6005 32.0115 44.7777 37.4638 40.5134L37.4638 40.5134C41.2809 37.53 43.4592 33.498 43.9772 28.6433C44.6128 22.6831 42.659 17.6427 38.3353 13.5566C35.5486 10.9238 32.1669 9.45982 28.3378 8.97793C20.1045 7.9432 11.2762 13.1789 9.01185 22.4526L9.01165 22.4534C8.23786 25.5411 8.32869 28.7822 9.27417 31.8218L9.27449 31.8228C9.29128 31.8783 9.31017 31.9325 9.33011 31.9898C9.33613 32.0071 9.34225 32.0247 9.34843 32.0426C9.37443 32.1182 9.40085 32.1985 9.42049 32.282L9.42056 32.2823C9.49786 32.6142 9.5072 32.8957 9.38554 33.1256C9.26266 33.3579 9.02514 33.5027 8.69687 33.6085L8.69668 33.6085C8.12571 33.7915 7.54425 33.9514 6.96655 34.1103C6.75132 34.1695 6.53662 34.2285 6.32317 34.2885C6.31756 34.3141 6.31163 34.3394 6.30551 34.3643L11.6836 37.478L13.8366 32.2275C13.6837 32.1895 13.5495 32.2045 13.4174 32.238C13.3505 32.255 13.2871 32.2759 13.2196 32.2981C13.198 32.3052 13.1759 32.3125 13.1532 32.3198C13.0629 32.3488 12.9648 32.3777 12.8615 32.3906M14.9932 29.9631L12.0129 32.406L12.0161 32.5443C12.1709 32.5407 12.3213 32.5081 12.4601 32.475C12.4825 32.4696 12.5046 32.4643 12.5263 32.459C12.6434 32.4306 12.7519 32.4044 12.8615 32.3906M12.8615 32.3906L12.8443 32.2533L12.8616 32.3906C12.8615 32.3906 12.8615 32.3906 12.8615 32.3906ZM11.1706 31.923C11.1707 31.9231 11.1707 31.9232 11.1707 31.9233L11.3048 31.889L11.1706 31.9228C11.1706 31.9229 11.1706 31.9229 11.1706 31.923ZM13.9971 32.1343C13.9604 32.1197 13.9245 32.1078 13.8895 32.0983L14.0204 32.1438L13.9971 32.1343Z" fill="#7FBE24" stroke="#7FBE24" stroke-width="0.276752"/>
<path d="M25.5152 16.4102H25.3768V16.5486V19.1185C25.2688 19.1557 25.169 19.1893 25.0746 19.2211C24.8846 19.285 24.7168 19.3415 24.5495 19.4053L24.5495 19.4053L24.5477 19.406C23.0295 20.0089 22.1252 21.1519 21.8151 22.725L21.8151 22.725C21.4855 24.3995 22.3954 26.0577 24.0464 26.8102L24.0465 26.8102C24.4833 27.0091 24.938 27.1651 25.386 27.3179L25.4138 27.3274C25.8543 27.4776 26.2878 27.6254 26.7036 27.8104L26.7038 27.8105C27.355 28.0989 27.9711 28.4604 28.5405 28.8882C28.9747 29.2148 29.2376 29.8799 29.2041 30.5844C29.1708 31.2828 28.8468 31.9909 28.1451 32.4039C26.7046 33.2517 24.6371 32.8764 23.6356 31.5354C23.5118 31.3696 23.3962 31.1992 23.2711 31.0146C23.2133 30.9294 23.1534 30.8412 23.0898 30.749L23.0292 30.6613L22.9289 30.6975L21.5405 31.199L21.4125 31.2452L21.4565 31.3739C22.1278 33.3382 23.6451 34.1931 25.4095 34.7254V37.4179V37.5563H25.5478H27.1674H27.3058V37.4179V34.731C27.4103 34.6992 27.5118 34.6694 27.6109 34.6402C27.8788 34.5615 28.1284 34.4881 28.3675 34.3971L28.3675 34.397C29.5884 33.9315 30.4669 33.1057 30.8899 31.8368C31.5098 29.9794 30.8795 28.0612 29.1595 26.9646C28.5412 26.5701 27.8482 26.2819 27.1704 26C26.9426 25.9052 26.7164 25.8111 26.4954 25.7139L26.4952 25.7139C26.2489 25.6059 25.9927 25.5138 25.742 25.4236C25.6649 25.3959 25.5884 25.3684 25.5129 25.3406C25.1881 25.2214 24.8766 25.0967 24.5915 24.9312L24.5915 24.9312C24.1358 24.6667 23.8514 24.2912 23.7318 23.8665C23.6119 23.4406 23.6549 22.9548 23.8739 22.468C24.1751 21.7993 24.6658 21.3389 25.3582 21.135L25.3584 21.135C26.0712 20.9242 26.7038 20.9586 27.2783 21.1686C27.8553 21.3795 28.3816 21.7706 28.8739 22.2853C29.031 22.45 29.1721 22.623 29.3289 22.8152C29.4015 22.9041 29.4774 22.9972 29.5598 23.0955L29.6322 23.1818L29.7315 23.1283C29.8484 23.0653 29.9624 23.004 30.0747 22.9436C30.4145 22.7609 30.7379 22.587 31.0735 22.4026L31.1974 22.3345L31.1267 22.2121C30.2058 20.6168 28.9298 19.6439 27.2494 19.1786V16.5486V16.4102H27.1111H25.5152Z" fill="#7FBE24" stroke="#7FBE24" stroke-width="0.276752"/>
</svg>
