<svg width="51" height="54" viewBox="0 0 51 54" fill="none" xmlns="http://www.w3.org/2000/svg">
<path d="M42.0931 46.0949C44.0954 46.0949 45.7186 44.4717 45.7186 42.4694C45.7186 40.4672 44.0954 38.844 42.0931 38.844C40.0909 38.844 38.4677 40.4672 38.4677 42.4694C38.4677 44.4717 40.0909 46.0949 42.0931 46.0949Z" stroke="#7FBE24" stroke-width="1.89426" stroke-miterlimit="10"/>
<path d="M18.5278 46.0951C21.0306 46.0951 23.0596 44.0662 23.0596 41.5633C23.0596 39.0605 21.0306 37.0315 18.5278 37.0315C16.0249 37.0315 13.996 39.0605 13.996 41.5633C13.996 44.0662 16.0249 46.0951 18.5278 46.0951Z" stroke="#7FBE24" stroke-width="1.89426" stroke-miterlimit="10"/>
<path d="M24.8723 43.376H36.655" stroke="#7FBE24" stroke-width="1.89426" stroke-miterlimit="10"/>
<path d="M41.1869 38.8446L23.0596 29.781H17.6215C16.1792 29.781 14.796 30.354 13.7761 31.3738C12.7562 32.3937 12.1833 33.7769 12.1833 35.2192V37.0319L14.5489 39.3975" stroke="#7FBE24" stroke-width="1.89426" stroke-miterlimit="10"/>
<path d="M16.715 29.7805L4.02592 14.3724V11.6533C4.02592 9.84056 4.93228 9.54145 6.24651 9.09733L9.4641 8.02783" stroke="#7FBE24" stroke-width="1.89426" stroke-miterlimit="10"/>
<path d="M23.0596 29.7805V26.2275C23.0594 25.9256 23.1346 25.6284 23.2784 25.3629C23.4222 25.0974 23.63 24.8721 23.883 24.7073C24.1361 24.5425 24.4262 24.4436 24.7272 24.4194C25.0282 24.3952 25.3304 24.4466 25.6064 24.5689L30.1383 26.581C30.4594 26.7233 30.7323 26.9558 30.9238 27.2502C31.1153 27.5447 31.2171 27.8884 31.2168 28.2397V28.6566C31.217 28.9938 31.3113 29.3243 31.489 29.6109C31.6667 29.8976 31.9209 30.1289 32.2229 30.279L36.5553 32.6899C36.8573 32.84 37.1115 33.0713 37.2892 33.3579C37.4669 33.6445 37.5612 33.975 37.5614 34.3123V37.0314" stroke="#7FBE24" stroke-width="1.89426" stroke-miterlimit="10"/>
<path d="M12.9083 32.4997L7.02597 25.8289C6.25771 24.8661 5.83909 23.6709 5.83864 22.4391V16.575" stroke="#7FBE24" stroke-width="1.89426" stroke-miterlimit="10"/>
</svg>
