<svg width="51" height="53" viewBox="0 0 51 53" fill="none" xmlns="http://www.w3.org/2000/svg">
<g clip-path="url(#clip0_2041_2089)">
<path d="M36.5501 38.4584C37.8458 37.2066 38.8268 35.8596 38.7463 34.6224V26.5697C38.7463 26.5697 37.0479 26.1671 35.0859 25.8376" stroke="#7FBE24" stroke-width="1.54" stroke-miterlimit="10"/>
<path d="M29.2296 25.6107C27.2557 25.7796 25.2977 26.1002 23.373 26.5697V33.1583" stroke="#7FBE24" stroke-width="1.54" stroke-miterlimit="10"/>
<path d="M29.2295 13.3924V31.694C29.2295 33.1581 29.8371 33.8902 31.0597 33.8902C32.2822 33.8902 32.8898 33.1581 32.8898 31.694V13.3924" stroke="#7FBE24" stroke-width="1.54" stroke-miterlimit="10"/>
<path d="M35.174 9.73236H26.9456C26.2575 9.73236 25.5693 10.6474 25.5693 11.5625C25.5693 12.4776 26.2575 13.3927 26.9456 13.3927H35.174C35.8622 13.3927 36.5503 12.4776 36.5503 11.5625C36.5503 10.6474 35.8622 9.73236 35.174 9.73236Z" stroke="#7FBE24" stroke-width="1.54" stroke-miterlimit="10"/>
<path d="M42.2683 43.473C41.5804 42.458 40.5514 41.7234 39.368 41.4023C38.1846 41.0813 36.9253 41.1952 35.8188 41.7234C35.7776 41.0847 35.5696 40.468 35.2156 39.9347C34.8616 39.4015 34.374 38.9704 33.8013 38.6845C33.2287 38.3986 32.5911 38.2678 31.9522 38.3052C31.3133 38.3426 30.6953 38.5469 30.16 38.8976C29.8512 38.2812 29.4213 37.7335 28.8959 37.2871C28.3705 36.8408 27.7604 36.505 27.1022 36.3C26.444 36.0949 25.7512 36.0248 25.0653 36.0938C24.3793 36.1628 23.7144 36.3694 23.1102 36.7014C22.7755 35.752 22.125 34.9464 21.2673 34.4193C20.4097 33.8923 19.397 33.6758 18.3988 33.8062C17.4006 33.9365 16.4775 34.4058 15.784 35.1354C15.0904 35.865 14.6685 36.8107 14.5889 37.8142C14.1198 37.6422 13.6244 37.553 13.1248 37.5506C11.9599 37.5506 10.8427 38.0134 10.0189 38.8371C9.19519 39.6609 8.73242 40.7781 8.73242 41.943" stroke="#7FBE24" stroke-width="1.54" stroke-linecap="round" stroke-linejoin="round"/>
</g>
<defs>
<clipPath id="clip0_2041_2089">
<rect width="35" height="35.205" fill="white" transform="translate(8 9)"/>
</clipPath>
</defs>
</svg>
