<svg width="51" height="54" viewBox="0 0 51 54" fill="none" xmlns="http://www.w3.org/2000/svg">
<g clip-path="url(#clip0_2041_622)">
<path d="M42.3398 11.3361L9.85986 43.816H42.3398V11.3361ZM34.9927 28.2183L26.7374 36.4736H34.9927V28.2145V28.2183Z" stroke="#7FBE24" stroke-width="1.3204" stroke-linecap="round" stroke-linejoin="round"/>
<path d="M42.0604 39.1653H38.4453" stroke="#7FBE24" stroke-width="1.3204" stroke-linecap="round" stroke-linejoin="round"/>
<path d="M42.0607 34.458H39.8198" stroke="#7FBE24" stroke-width="1.3204" stroke-linecap="round" stroke-linejoin="round"/>
<path d="M42.0604 29.7516H38.4453" stroke="#7FBE24" stroke-width="1.3204" stroke-linecap="round" stroke-linejoin="round"/>
<path d="M42.0607 25.0443H39.8198" stroke="#7FBE24" stroke-width="1.3204" stroke-linecap="round" stroke-linejoin="round"/>
<path d="M42.0604 20.3383H38.4453" stroke="#7FBE24" stroke-width="1.3204" stroke-linecap="round" stroke-linejoin="round"/>
<path d="M34.2384 13.919L30.6168 10.2974L11.8256 29.0895L10.1421 34.3937L15.4463 32.7102L34.2384 13.919Z" stroke="#7FBE24" stroke-width="1.3204" stroke-linecap="round" stroke-linejoin="round"/>
<path d="M27.6797 13.2786L31.3014 16.9002" stroke="#7FBE24" stroke-width="1.3204" stroke-linecap="round" stroke-linejoin="round"/>
<path d="M12.4526 28.4613L16.0734 32.083" stroke="#7FBE24" stroke-width="1.3204" stroke-linecap="round" stroke-linejoin="round"/>
<path d="M29.4907 15.0895L14.2627 30.2731" stroke="#7FBE24" stroke-width="1.3204" stroke-linecap="round" stroke-linejoin="round"/>
<path d="M10.1418 34.3938L8.66016 35.8887" stroke="#7FBE24" stroke-width="1.3204" stroke-linecap="round" stroke-linejoin="round"/>
</g>
<defs>
<clipPath id="clip0_2041_622">
<rect width="35" height="34.8387" fill="white" transform="translate(8 9.63708)"/>
</clipPath>
</defs>
</svg>
