<svg width="51" height="53" viewBox="0 0 51 53" fill="none" xmlns="http://www.w3.org/2000/svg">
<g clip-path="url(#clip0_2041_1775)">
<path d="M25.2139 46.4501C25.2139 37.8593 28.1031 15.6311 43.5126 6.96326C34.3633 17.0276 31.9555 37.9363 31.9555 46.4501" stroke="#7FBE24" stroke-width="1.53728" stroke-linecap="round" stroke-linejoin="round"/>
<path d="M25.2139 26.8125C22.575 21.2073 17.5091 17.4512 10.8638 13.7048C19.7724 21.9585 21.3615 39.4675 21.3615 46.4499" stroke="#7FBE24" stroke-width="1.53728" stroke-linecap="round" stroke-linejoin="round"/>
<path d="M28.5075 18.8379C27.3925 15.7403 25.6776 12.8931 23.4609 10.459C24.2524 13.6057 24.4355 16.8746 24.0003 20.0899" stroke="#7FBE24" stroke-width="1.53728" stroke-linecap="round" stroke-linejoin="round"/>
<path d="M31.9556 46.45C32.4082 40.9411 34.2863 31.5895 43.5127 28.1512C41.3266 30.6072 39.7511 33.5445 38.9143 36.7242C38.0775 39.9038 38.0032 43.2362 38.6972 46.45" stroke="#7FBE24" stroke-width="1.53728" stroke-linecap="round" stroke-linejoin="round"/>
<path d="M21.3614 46.45C20.9473 39.1883 15.5829 27.8719 6.91504 23.3358C13.1944 30.7805 14.7739 41.4708 14.6198 46.45" stroke="#7FBE24" stroke-width="1.53728" stroke-linecap="round" stroke-linejoin="round"/>
</g>
<defs>
<clipPath id="clip0_2041_1775">
<rect width="38.4756" height="41.413" fill="white" transform="translate(6 6)"/>
</clipPath>
</defs>
</svg>
