<svg width="51" height="53" viewBox="0 0 51 53" fill="none" xmlns="http://www.w3.org/2000/svg">
<path d="M14.1372 30.2949V25.0093L9.64447 23.9787C8.91071 23.7688 8.26491 23.3264 7.80421 22.7179C7.3435 22.1095 7.09279 21.3679 7.08978 20.6047V17.9619C7.08978 16.2001 7.80333 10.8 7.80333 10.8C7.85565 10.2958 8.03395 9.81293 8.32182 9.39574C8.60969 8.97856 8.99789 8.6405 9.45067 8.41268L9.73256 8.27173C10.296 8.83464 10.6129 9.59828 10.6135 10.3948V16.2001C10.6135 16.6673 10.7991 17.1155 11.1295 17.4459C11.4599 17.7763 11.9081 17.9619 12.3753 17.9619C12.8426 17.9619 13.2908 17.7763 13.6212 17.4459C13.9516 17.1155 14.1372 16.6673 14.1372 16.2001V11.1259C14.1357 10.5333 14.2999 9.95198 14.6112 9.44766C14.9225 8.94334 15.3686 8.53605 15.899 8.27173C16.4295 8.53605 16.8756 8.94334 17.1869 9.44766C17.4982 9.95198 17.6624 10.5333 17.6609 11.1259V16.2001C17.6609 16.6673 17.8465 17.1155 18.1769 17.4459C18.5073 17.7763 18.9555 17.9619 19.4228 17.9619C19.89 17.9619 20.3382 17.7763 20.6686 17.4459C20.999 17.1155 21.1846 16.6673 21.1846 16.2001V10.3948C21.1852 9.59828 21.502 8.83464 22.0655 8.27173L22.3474 8.41268C22.8002 8.6405 23.1884 8.97856 23.4763 9.39574C23.7642 9.81293 23.9425 10.2958 23.9948 10.8C23.9948 10.8 24.7083 16.2001 24.7083 17.9619V20.6047C24.7091 21.3709 24.4602 22.1165 23.9992 22.7285C23.5382 23.3405 22.8903 23.7856 22.1536 23.9963L17.6609 25.0093V30.2949" stroke="#7FBE24" stroke-width="1.76185" stroke-linejoin="round"/>
<path d="M37.0413 30.295V25.0094L43.2078 25.8903L42.8201 21.609C42.5038 18.0678 41.1528 14.6978 38.9353 11.9188L35.2794 7.39087L31.6676 11.9012C29.4288 14.7058 28.0736 18.1122 27.7739 21.6883L27.3511 25.8903L33.5176 25.0094V30.295" stroke="#7FBE24" stroke-width="1.76185" stroke-linejoin="round"/>
<path d="M37.0413 18.8433V25.0097" stroke="#7FBE24" stroke-width="1.76185" stroke-linejoin="round"/>
<path d="M35.2794 45.2705C34.5785 45.2705 33.9063 44.9921 33.4107 44.4964C32.9151 44.0008 32.6366 43.3286 32.6366 42.6277V29.4138H37.9222V42.6277C37.9222 43.3286 37.6438 44.0008 37.1482 44.4964C36.6525 44.9921 35.9803 45.2705 35.2794 45.2705Z" stroke="#7FBE24" stroke-width="1.76185" stroke-linejoin="round"/>
<path d="M15.899 45.2705C15.1981 45.2705 14.5259 44.9921 14.0303 44.4964C13.5347 44.0008 13.2562 43.3286 13.2562 42.6277V29.4138H18.5418V42.6277C18.5418 43.3286 18.2634 44.0008 17.7677 44.4964C17.2721 44.9921 16.5999 45.2705 15.899 45.2705Z" stroke="#7FBE24" stroke-width="1.76185" stroke-linejoin="round"/>
<path d="M17.6608 20.605V25.0096" stroke="#7FBE24" stroke-width="1.76185" stroke-linejoin="round"/>
</svg>
