<svg width="51" height="54" viewBox="0 0 51 54" fill="none" xmlns="http://www.w3.org/2000/svg">
<g clip-path="url(#clip0_2041_5378)">
<path d="M30.0663 21.0522L29.8301 20.8225" stroke="#7FBE24" stroke-width="1.3125" stroke-linecap="round" stroke-linejoin="round"/>
<path d="M28.5308 19.5363L28.6095 19.6019L29.8301 20.8225" stroke="#7FBE24" stroke-width="1.3125" stroke-linecap="round" stroke-linejoin="round"/>
<path d="M30.0664 21.0522L30.0733 21.066" stroke="#7FBE24" stroke-width="1.3125" stroke-linecap="round" stroke-linejoin="round"/>
<path d="M19.2642 33.5408L19.2717 33.5483" stroke="#7FBE24" stroke-width="1.3125" stroke-linecap="round" stroke-linejoin="round"/>
<path d="M19.5138 33.7835L19.271 33.5472" stroke="#7FBE24" stroke-width="1.3125" stroke-linecap="round" stroke-linejoin="round"/>
<path d="M31.2017 22.181L35.9923 26.9454C36.0645 27.0176 36.1235 27.0963 36.1891 27.1685" stroke="#7FBE24" stroke-width="1.3125" stroke-linecap="round" stroke-linejoin="round"/>
<path d="M20.813 35.0631L19.5137 33.7834" stroke="#7FBE24" stroke-width="1.3125" stroke-linecap="round" stroke-linejoin="round"/>
<path d="M20.813 35.0632L22.6177 36.8482L23.6021 37.826C23.9646 38.1844 24.3676 38.4994 24.803 38.7645" stroke="#7FBE24" stroke-width="1.3125" stroke-linecap="round" stroke-linejoin="round"/>
<path d="M18.142 32.4185L13.3514 27.6542C13.2792 27.582 13.2136 27.5032 13.1479 27.431" stroke="#7FBE24" stroke-width="1.3125" stroke-linecap="round" stroke-linejoin="round"/>
<path d="M18.1421 32.4186L19.2643 33.5408" stroke="#7FBE24" stroke-width="1.3125" stroke-linecap="round" stroke-linejoin="round"/>
<path d="M13.1482 27.431C12.0084 26.1981 11.3737 24.5819 11.3697 22.9029L9.04004 20.5667" stroke="#7FBE24" stroke-width="1.3125" stroke-linecap="round" stroke-linejoin="round"/>
<path d="M19.2642 33.5408L19.2717 33.5483" stroke="#7FBE24" stroke-width="1.3125" stroke-linecap="round" stroke-linejoin="round"/>
<path d="M19.5073 33.7836L20.7345 34.9976L20.8133 35.0632" stroke="#7FBE24" stroke-width="1.3125" stroke-linecap="round" stroke-linejoin="round"/>
<path d="M19.5072 33.7835L19.271 33.5472" stroke="#7FBE24" stroke-width="1.3125" stroke-linecap="round" stroke-linejoin="round"/>
<path d="M17.4336 13.1576L19.2973 15.0082L20.3473 14.8967C21.8106 14.7351 23.286 15.0653 24.5408 15.8351" stroke="#7FBE24" stroke-width="1.3125" stroke-linecap="round" stroke-linejoin="round"/>
<path d="M29.8301 20.8225L30.0663 21.0522" stroke="#7FBE24" stroke-width="1.3125" stroke-linecap="round" stroke-linejoin="round"/>
<path d="M29.8301 20.8225L28.5308 19.5363" stroke="#7FBE24" stroke-width="1.3125" stroke-linecap="round" stroke-linejoin="round"/>
<path d="M24.5405 15.8351C24.974 16.1027 25.3748 16.4198 25.7349 16.7801L26.7193 17.7579L28.5305 19.5363" stroke="#7FBE24" stroke-width="1.3125" stroke-linecap="round" stroke-linejoin="round"/>
<path d="M31.438 22.4172L30.073 21.0588L30.0664 21.0522" stroke="#7FBE24" stroke-width="1.3125" stroke-linecap="round" stroke-linejoin="round"/>
<path d="M5.3125 18.7225L8.10813 21.505L9.04 20.5797" stroke="#7FBE24" stroke-width="1.3125" stroke-linecap="round" stroke-linejoin="round"/>
<path d="M9.04004 20.5798L17.8994 11.7664L15.1038 8.97729" stroke="#7FBE24" stroke-width="1.3125" stroke-linecap="round" stroke-linejoin="round"/>
<path d="M38.8862 20.1007L37.0224 21.9579L37.134 23.0013C37.2999 24.4573 36.9668 25.9265 36.189 27.1685" stroke="#7FBE24" stroke-width="1.3125" stroke-linecap="round" stroke-linejoin="round"/>
<path d="M31.3982 11.7467L29.0685 14.0698C27.3836 14.0706 25.7595 14.7001 24.5142 15.8351" stroke="#7FBE24" stroke-width="1.3125" stroke-linecap="round" stroke-linejoin="round"/>
<path d="M31.4246 11.7466L30.4927 10.8213L33.5311 7.79602" stroke="#7FBE24" stroke-width="1.3125" stroke-linecap="round" stroke-linejoin="round"/>
<path d="M31.4248 11.7467L40.2842 20.5667L43.3226 17.5414" stroke="#7FBE24" stroke-width="1.3125" stroke-linecap="round" stroke-linejoin="round"/>
<path d="M10.4575 34.4989L12.3213 32.6417L12.2031 31.6048C12.0429 30.147 12.3756 28.6776 13.1481 27.431" stroke="#7FBE24" stroke-width="1.3125" stroke-linecap="round" stroke-linejoin="round"/>
<path d="M24.8358 38.7644C23.5904 39.9002 21.9669 40.5318 20.2814 40.5363L17.9189 42.8791" stroke="#7FBE24" stroke-width="1.3125" stroke-linecap="round" stroke-linejoin="round"/>
<path d="M17.9123 42.8529L9.05293 34.0394L6.03418 37.0451" stroke="#7FBE24" stroke-width="1.3125" stroke-linecap="round" stroke-linejoin="round"/>
<path d="M17.9126 42.8529L18.851 43.7848L15.8257 46.7904" stroke="#7FBE24" stroke-width="1.3125" stroke-linecap="round" stroke-linejoin="round"/>
<path d="M40.2974 34.0197L37.9611 31.7229C37.9624 30.8402 37.7892 29.966 37.4513 29.1506C37.1134 28.3352 36.6176 27.5947 35.9924 26.9716L28.6096 19.6216C28.3093 19.3215 27.9021 19.1528 27.4775 19.1528C27.053 19.1528 26.6458 19.3215 26.3455 19.6216H26.3127C26.1589 19.7741 26.0369 19.9556 25.9536 20.1555C25.8703 20.3554 25.8274 20.5699 25.8274 20.7864C25.8274 21.003 25.8703 21.2175 25.9536 21.4174C26.0369 21.6173 26.1589 21.7988 26.3127 21.9513L30.5127 26.125L24.1864 19.825C23.8845 19.5281 23.4779 19.3616 23.0544 19.3616C22.6309 19.3616 22.2243 19.5281 21.9224 19.825L21.8896 19.8579C21.736 20.0098 21.6141 20.1907 21.5309 20.3901C21.4477 20.5895 21.4048 20.8034 21.4048 21.0194C21.4048 21.2355 21.4477 21.4494 21.5309 21.6488C21.6141 21.8481 21.736 22.029 21.8896 22.181L27.2577 27.5163L20.9577 21.2557C20.8047 21.1027 20.6231 20.9813 20.4233 20.8985C20.2234 20.8157 20.0092 20.7731 19.7928 20.7731C19.5765 20.7731 19.3623 20.8157 19.1624 20.8985C18.9626 20.9813 18.781 21.1027 18.628 21.2557C18.4754 21.4075 18.3543 21.588 18.2717 21.7868C18.1891 21.9856 18.1466 22.1987 18.1466 22.414C18.1466 22.6292 18.1891 22.8424 18.2717 23.0411C18.3543 23.2399 18.4754 23.4204 18.628 23.5722L24.9214 29.8394L19.5139 24.5041C19.212 24.2071 18.8054 24.0407 18.3819 24.0407C17.9584 24.0407 17.5518 24.2071 17.2499 24.5041V24.5369C17.0963 24.6889 16.9744 24.8698 16.8912 25.0692C16.808 25.2685 16.7651 25.4824 16.7651 25.6985C16.7651 25.9145 16.808 26.1284 16.8912 26.3278C16.9744 26.5272 17.0963 26.7081 17.2499 26.86L25.4071 34.9844L21.988 31.5785C21.6584 31.2507 21.2125 31.0667 20.7477 31.0667C20.2828 31.0667 19.8369 31.2507 19.5074 31.5785L19.2974 31.7885C19.1791 31.9051 19.0852 32.044 19.0211 32.1973C18.957 32.3505 18.924 32.5149 18.924 32.681C18.924 32.8471 18.957 33.0115 19.0211 33.1647C19.0852 33.3179 19.1791 33.4569 19.2974 33.5735L22.6508 36.8547L23.6352 37.8325C24.337 38.5289 25.1856 39.0595 26.119 39.3854C27.0524 39.7113 28.0469 39.8242 29.0296 39.716L30.073 39.5979L31.9368 41.455" stroke="#7FBE24" stroke-width="1.3125" stroke-linecap="round" stroke-linejoin="round"/>
<path d="M34.2402 45.6223L31.438 42.8398L41.2358 33.0945L44.0314 35.877" stroke="#7FBE24" stroke-width="1.3125" stroke-linecap="round" stroke-linejoin="round"/>
</g>
<defs>
<clipPath id="clip0_2041_5378">
<rect width="42" height="42" fill="white" transform="translate(4 5.63696)"/>
</clipPath>
</defs>
</svg>
