<svg width="51" height="53" viewBox="0 0 51 53" fill="none" xmlns="http://www.w3.org/2000/svg">
<g clip-path="url(#clip0_2041_5154)">
<path d="M20.7709 46.7269C20.6613 46.7249 20.5533 46.7011 20.453 46.6569C20.3528 46.6127 20.2623 46.5489 20.187 46.4693L3.53051 29.8128C3.45367 29.7362 3.3927 29.6452 3.3511 29.545C3.3095 29.4449 3.28809 29.3374 3.28809 29.229C3.28809 29.1205 3.3095 29.0131 3.3511 28.9129C3.3927 28.8127 3.45367 28.7217 3.53051 28.6451L22.5739 9.60174C22.6683 9.50406 22.7867 9.43299 22.9173 9.39568L37.3244 5.03407C37.4677 4.9922 37.6196 4.98922 37.7644 5.02543C37.9093 5.06164 38.0419 5.13574 38.1486 5.24013L44.7597 11.7825C44.8705 11.8887 44.9487 12.0242 44.9852 12.1733C45.0217 12.3223 45.0149 12.4786 44.9658 12.6239L40.6042 27.031C40.5654 27.161 40.4945 27.2791 40.3981 27.3744L21.3719 46.4693C21.294 46.5502 21.2006 46.6146 21.0974 46.6589C20.9942 46.7031 20.8832 46.7262 20.7709 46.7269ZM5.31637 29.229L20.7709 44.6835L39.0759 26.4128L43.2314 12.6755L37.3244 6.78558L23.587 10.9411L5.31637 29.229Z" fill="#7FBE24"/>
<path d="M33.6324 16.9341C33.414 16.9328 33.2046 16.8466 33.0486 16.6937C32.8924 16.5361 32.8047 16.3232 32.8047 16.1013C32.8047 15.8794 32.8924 15.6664 33.0486 15.5088L36.4829 12.0745C36.5595 11.9977 36.6505 11.9367 36.7507 11.8951C36.8509 11.8535 36.9583 11.8321 37.0668 11.8321C37.1752 11.8321 37.2827 11.8535 37.3829 11.8951C37.483 11.9367 37.574 11.9977 37.6506 12.0745C37.8068 12.2321 37.8945 12.445 37.8945 12.6669C37.8945 12.8888 37.8068 13.1018 37.6506 13.2594L34.2163 16.6937C34.0574 16.8423 33.8498 16.9277 33.6324 16.9341Z" fill="#7FBE24"/>
<path d="M21.904 33.6765C20.5284 33.5985 19.239 32.9815 18.3152 31.9594C16.4778 30.122 16.1172 27.5806 17.5081 26.1897C17.6694 26.0557 17.875 25.9869 18.0844 25.9966C18.2939 26.0063 18.4922 26.0938 18.6405 26.2421C18.7888 26.3904 18.8763 26.5887 18.886 26.7982C18.8957 27.0076 18.8269 27.2132 18.6929 27.3745C17.9889 28.0786 18.3495 29.6412 19.4828 30.8089C20.6162 31.9765 22.196 32.32 22.9172 31.6159C23.6384 30.9119 23.2434 29.3493 22.1101 28.1816C20.2727 26.3442 19.9293 23.82 21.3202 22.4291C22.7111 21.0382 25.2353 21.3816 27.0727 23.219C27.8855 24.0007 28.4372 25.0141 28.6525 26.121C28.7656 26.6258 28.7543 27.1506 28.6197 27.6501C28.4851 28.1496 28.2312 28.609 27.8798 28.9887C27.7184 29.1226 27.5129 29.1915 27.3034 29.1818C27.0939 29.1721 26.8956 29.0845 26.7474 28.9362C26.5991 28.788 26.5115 28.5897 26.5018 28.3802C26.4921 28.1707 26.561 27.9652 26.6949 27.8038C26.846 27.609 26.9533 27.3839 27.0096 27.1439C27.0659 26.9039 27.0698 26.6546 27.0212 26.4129C26.8565 25.6474 26.468 24.9481 25.905 24.4038C24.7545 23.2705 23.1919 22.8927 22.4707 23.5968C21.7495 24.3008 22.1444 25.8634 23.2778 27.0311C25.1151 28.8685 25.4586 31.3927 24.0677 32.7836C23.7869 33.072 23.4501 33.3 23.0781 33.4535C22.706 33.6071 22.3065 33.683 21.904 33.6765Z" fill="#7FBE24"/>
<path d="M26.4718 24.6958C26.2533 24.6945 26.044 24.6083 25.8879 24.4554C25.7317 24.2978 25.644 24.0849 25.644 23.863C25.644 23.6411 25.7317 23.4282 25.8879 23.2706L27.1071 22.0514C27.1837 21.9746 27.2747 21.9136 27.3749 21.872C27.4751 21.8304 27.5825 21.809 27.691 21.809C27.7995 21.809 27.9069 21.8304 28.0071 21.872C28.1072 21.9136 28.1982 21.9746 28.2748 22.0514C28.4311 22.209 28.5187 22.4219 28.5187 22.6438C28.5187 22.8657 28.4311 23.0786 28.2748 23.2362L27.0556 24.4554C26.8996 24.6083 26.6902 24.6945 26.4718 24.6958Z" fill="#7FBE24"/>
<path d="M17.6798 33.4879C17.4614 33.4866 17.252 33.4004 17.096 33.2475C16.9397 33.0899 16.8521 32.877 16.8521 32.6551C16.8521 32.4332 16.9397 32.2203 17.096 32.0627L18.3152 30.8435C18.3917 30.7667 18.4827 30.7057 18.5829 30.6641C18.6831 30.6225 18.7905 30.6011 18.899 30.6011C19.0075 30.6011 19.1149 30.6225 19.2151 30.6641C19.3153 30.7057 19.4063 30.7667 19.4828 30.8435C19.6391 31.0011 19.7267 31.214 19.7267 31.4359C19.7267 31.6578 19.6391 31.8708 19.4828 32.0283L18.2808 33.2475C18.1176 33.4 17.9032 33.4858 17.6798 33.4879Z" fill="#7FBE24"/>
</g>
<defs>
<clipPath id="clip0_2041_5154">
<rect width="41.71" height="41.71" fill="white" transform="translate(3.29004 4.99994)"/>
</clipPath>
</defs>
</svg>
