<svg width="51" height="53" viewBox="0 0 51 53" fill="none" xmlns="http://www.w3.org/2000/svg">
<path d="M28.8282 24.0805L28.828 24.0808C28.0742 25.282 26.747 25.9891 24.9333 25.9891C23.0758 25.9891 21.7356 25.25 20.9957 24.004L28.8282 24.0805ZM28.8282 24.0805C29.5581 22.9151 29.6713 21.4074 29.3563 19.9218C29.0429 18.4442 28.2721 16.7228 27.5055 15.2501C26.7415 13.7824 25.9426 12.4888 25.5227 11.8089L25.513 11.7931L25.5129 11.793M28.8282 24.0805L25.5129 11.793M25.5129 11.793C25.4481 11.6882 25.3571 11.6023 25.2488 11.5437C25.1404 11.4852 25.0187 11.4561 24.8956 11.4593C24.7725 11.4625 24.6524 11.4979 24.5473 11.562L24.7398 11.8778M25.5129 11.793L24.7398 11.8778M24.7398 11.8778L24.5473 11.562C24.4421 11.6261 24.3557 11.7167 24.2965 11.8247L24.2957 11.8261M24.7398 11.8778L24.2957 11.8261M24.2957 11.8261C24.1706 12.0567 23.9981 12.3513 23.7887 12.7089C23.7003 12.86 23.6053 13.0223 23.5045 13.1957C23.1686 13.7736 22.7839 14.4445 22.4011 15.1645L22.4008 15.1651M24.2957 11.8261L22.4008 15.1651M22.4008 15.1651C21.6466 16.5897 20.8647 18.2531 20.5348 19.7219L20.5348 19.7219M22.4008 15.1651L20.5348 19.7219M20.5348 19.7219C20.1929 21.2439 20.2776 22.7971 20.9955 24.0036L20.5348 19.7219ZM24.9339 13.5426C24.8669 13.6571 24.7973 13.7766 24.7245 13.9025L24.7234 13.9044C24.3905 14.4728 24.0154 15.1293 23.6442 15.8262L24.9339 13.5426ZM24.9339 13.5426C25.3258 14.197 25.7979 15.0153 26.2585 15.9001L26.2585 15.9001C27.0123 17.3478 27.7057 18.9185 27.9799 20.2147L27.98 20.2152C28.2482 21.4746 28.1109 22.5754 27.6364 23.3325C27.1849 24.0527 26.3533 24.58 24.935 24.58C23.4852 24.58 22.6511 24.0309 22.2056 23.2815L22.2055 23.2813C21.7343 22.4896 21.6168 21.3386 21.914 20.0303L21.9145 20.028C22.1947 18.7564 22.8952 17.2351 23.6442 15.8263L24.9339 13.5426Z" fill="#7FBE24" stroke="#7FBE24" stroke-width="0.739669"/>
<mask id="path-2-outside-1_2004_798" maskUnits="userSpaceOnUse" x="4.40607" y="30.7661" width="43" height="15" fill="black">
<rect fill="white" x="4.40607" y="30.7661" width="43" height="15"/>
<path d="M45.8558 33.8492C45.8558 33.7606 45.8205 33.6755 45.7578 33.6128C45.6951 33.5501 45.6101 33.5149 45.5214 33.5149C44.7692 33.5149 44.4399 33.1572 43.9334 32.695C43.6561 32.4264 43.3379 32.2035 42.9906 32.0347C42.5911 31.8508 42.1064 31.7455 41.4778 31.7706C40.8493 31.7957 40.3913 31.9252 40.0152 32.1191C39.6973 32.291 39.4063 32.5087 39.1518 32.7652C38.9194 32.9859 38.7381 33.1622 38.5015 33.2943C38.265 33.4263 37.9859 33.5116 37.5446 33.5116C36.86 33.484 36.5324 33.1371 36.0443 32.6942C35.7675 32.4253 35.4495 32.2024 35.1024 32.0339C34.702 31.85 34.2181 31.7447 33.5887 31.7698C32.9594 31.7949 32.5022 31.9244 32.1269 32.1175C31.8098 32.2911 31.5198 32.5102 31.266 32.7677C31.0337 32.9884 30.8531 33.1647 30.6166 33.2968C30.3801 33.4288 30.1009 33.5141 29.6596 33.5141C28.9124 33.5141 28.5789 33.1564 28.0716 32.6942C27.7944 32.4257 27.4765 32.2029 27.1297 32.0339C26.7293 31.85 26.2445 31.7447 25.616 31.7698C24.9875 31.7949 24.5295 31.9244 24.1542 32.1183C23.837 32.2914 23.5469 32.5103 23.2933 32.7677C23.061 32.9884 22.8796 33.1647 22.6431 33.2968C22.4065 33.4288 22.1282 33.5141 21.6861 33.5141C20.9389 33.5141 20.6054 33.1564 20.0981 32.6942C19.8212 32.4253 19.5032 32.2024 19.1561 32.0339C18.7558 31.85 18.2718 31.7447 17.6425 31.7698C17.0131 31.7949 16.5559 31.9244 16.1807 32.1183C15.8637 32.2914 15.5739 32.5103 15.3206 32.7677C15.0883 32.9884 14.9027 33.1647 14.6704 33.2968C14.438 33.4288 14.1547 33.5141 13.7134 33.5141C12.9662 33.5141 12.6327 33.1564 12.1254 32.6942C11.8484 32.4255 11.5304 32.2027 11.1834 32.0339C10.7831 31.85 10.2991 31.7447 9.66979 31.7698C9.04043 31.7949 8.58325 31.9244 8.20798 32.1183C7.89077 32.2914 7.60071 32.5103 7.3471 32.7677C7.11475 32.9884 6.93338 33.1647 6.69769 33.2968C6.46199 33.4288 6.182 33.5141 5.7407 33.5141V33.5208C5.65203 33.5208 5.56699 33.556 5.5043 33.6187C5.4416 33.6814 5.40638 33.7664 5.40638 33.8551V37.1615C5.406 37.1676 5.406 37.1738 5.40638 37.1799C5.40596 37.186 5.40596 37.1922 5.40638 37.1983V40.5047C5.406 40.5108 5.406 40.517 5.40638 40.5231C5.40596 40.5292 5.40596 40.5354 5.40638 40.5415V43.8479C5.40638 43.9366 5.4416 44.0216 5.5043 44.0843C5.56699 44.147 5.65203 44.1822 5.7407 44.1822H45.5248C45.6134 44.1822 45.6985 44.147 45.7612 44.0843C45.8239 44.0216 45.8591 43.9366 45.8591 43.8479V40.5415C45.8595 40.5354 45.8595 40.5292 45.8591 40.5231C45.8594 40.517 45.8594 40.5108 45.8591 40.5047V37.1983C45.8595 37.1922 45.8595 37.186 45.8591 37.1799C45.8594 37.1738 45.8594 37.1676 45.8591 37.1615L45.8558 33.8492ZM45.1871 40.5356V43.5077H6.07167V40.5356C6.07208 40.5295 6.07208 40.5234 6.07167 40.5173C6.07202 40.5111 6.07202 40.505 6.07167 40.4989V37.5268H45.1871V40.4989C45.1867 40.505 45.1867 40.5111 45.1871 40.5173C45.1867 40.5234 45.1867 40.5295 45.1871 40.5356ZM7.02031 33.8752C7.30721 33.7 7.57065 33.4891 7.80429 33.2475C8.0121 33.0332 8.25036 32.8507 8.51137 32.7059C8.78719 32.5638 9.15243 32.4551 9.69236 32.4317C10.2323 32.4083 10.6067 32.5003 10.9009 32.6357C11.1854 32.7761 11.4458 32.9609 11.6724 33.1831C12.1496 33.6161 12.667 34.1769 13.7117 34.1769C14.1584 34.1907 14.6009 34.0866 14.9947 33.8752C15.2817 33.7003 15.5452 33.4893 15.7787 33.2475C15.9868 33.0332 16.2253 32.8507 16.4866 32.7059C16.7616 32.5638 17.1268 32.4551 17.6676 32.4317C18.2083 32.4083 18.5811 32.5003 18.8761 32.6357C19.1605 32.7763 19.4209 32.9611 19.6476 33.1831C20.124 33.6161 20.6422 34.1769 21.6861 34.1769C22.1331 34.1906 22.5758 34.0866 22.9699 33.8752C23.2565 33.7 23.5197 33.4891 23.753 33.2475C23.9613 33.0334 24.1998 32.8509 24.4609 32.7059C24.7368 32.5638 25.102 32.4551 25.6419 32.4317C26.1819 32.4083 26.5563 32.5003 26.8505 32.6357C27.135 32.7761 27.3954 32.9609 27.6219 33.1831C28.0992 33.6161 28.6165 34.1769 29.6613 34.1769C30.108 34.1907 30.5505 34.0866 30.9442 33.8752C31.2313 33.7003 31.4948 33.4893 31.7282 33.2475C31.9362 33.0334 32.1744 32.8509 32.4353 32.7059C32.7111 32.5638 33.0764 32.4551 33.6171 32.4317C34.1579 32.4083 34.5307 32.5003 34.8249 32.6357C35.1095 32.7759 35.3699 32.9607 35.5963 33.1831C36.0736 33.6161 36.5917 34.1769 37.6357 34.1769V34.171C38.0523 34.1727 38.4626 34.0698 38.8292 33.8718C39.1162 33.6969 39.3797 33.486 39.6132 33.2441C39.8213 33.0298 40.0598 32.8473 40.3211 32.7025C40.5961 32.5604 40.9621 32.4518 41.5021 32.4284C42.042 32.405 42.4164 32.4969 42.7106 32.6323C42.995 32.773 43.2554 32.9578 43.4821 33.1798C43.905 33.5642 44.3605 34.0473 45.1871 34.1526V36.8147H6.07167V34.1535C6.40384 34.1279 6.72698 34.0331 7.02031 33.8752Z"/>
</mask>
<path d="M45.8558 33.8492C45.8558 33.7606 45.8205 33.6755 45.7578 33.6128C45.6951 33.5501 45.6101 33.5149 45.5214 33.5149C44.7692 33.5149 44.4399 33.1572 43.9334 32.695C43.6561 32.4264 43.3379 32.2035 42.9906 32.0347C42.5911 31.8508 42.1064 31.7455 41.4778 31.7706C40.8493 31.7957 40.3913 31.9252 40.0152 32.1191C39.6973 32.291 39.4063 32.5087 39.1518 32.7652C38.9194 32.9859 38.7381 33.1622 38.5015 33.2943C38.265 33.4263 37.9859 33.5116 37.5446 33.5116C36.86 33.484 36.5324 33.1371 36.0443 32.6942C35.7675 32.4253 35.4495 32.2024 35.1024 32.0339C34.702 31.85 34.2181 31.7447 33.5887 31.7698C32.9594 31.7949 32.5022 31.9244 32.1269 32.1175C31.8098 32.2911 31.5198 32.5102 31.266 32.7677C31.0337 32.9884 30.8531 33.1647 30.6166 33.2968C30.3801 33.4288 30.1009 33.5141 29.6596 33.5141C28.9124 33.5141 28.5789 33.1564 28.0716 32.6942C27.7944 32.4257 27.4765 32.2029 27.1297 32.0339C26.7293 31.85 26.2445 31.7447 25.616 31.7698C24.9875 31.7949 24.5295 31.9244 24.1542 32.1183C23.837 32.2914 23.5469 32.5103 23.2933 32.7677C23.061 32.9884 22.8796 33.1647 22.6431 33.2968C22.4065 33.4288 22.1282 33.5141 21.6861 33.5141C20.9389 33.5141 20.6054 33.1564 20.0981 32.6942C19.8212 32.4253 19.5032 32.2024 19.1561 32.0339C18.7558 31.85 18.2718 31.7447 17.6425 31.7698C17.0131 31.7949 16.5559 31.9244 16.1807 32.1183C15.8637 32.2914 15.5739 32.5103 15.3206 32.7677C15.0883 32.9884 14.9027 33.1647 14.6704 33.2968C14.438 33.4288 14.1547 33.5141 13.7134 33.5141C12.9662 33.5141 12.6327 33.1564 12.1254 32.6942C11.8484 32.4255 11.5304 32.2027 11.1834 32.0339C10.7831 31.85 10.2991 31.7447 9.66979 31.7698C9.04043 31.7949 8.58325 31.9244 8.20798 32.1183C7.89077 32.2914 7.60071 32.5103 7.3471 32.7677C7.11475 32.9884 6.93338 33.1647 6.69769 33.2968C6.46199 33.4288 6.182 33.5141 5.7407 33.5141V33.5208C5.65203 33.5208 5.56699 33.556 5.5043 33.6187C5.4416 33.6814 5.40638 33.7664 5.40638 33.8551V37.1615C5.406 37.1676 5.406 37.1738 5.40638 37.1799C5.40596 37.186 5.40596 37.1922 5.40638 37.1983V40.5047C5.406 40.5108 5.406 40.517 5.40638 40.5231C5.40596 40.5292 5.40596 40.5354 5.40638 40.5415V43.8479C5.40638 43.9366 5.4416 44.0216 5.5043 44.0843C5.56699 44.147 5.65203 44.1822 5.7407 44.1822H45.5248C45.6134 44.1822 45.6985 44.147 45.7612 44.0843C45.8239 44.0216 45.8591 43.9366 45.8591 43.8479V40.5415C45.8595 40.5354 45.8595 40.5292 45.8591 40.5231C45.8594 40.517 45.8594 40.5108 45.8591 40.5047V37.1983C45.8595 37.1922 45.8595 37.186 45.8591 37.1799C45.8594 37.1738 45.8594 37.1676 45.8591 37.1615L45.8558 33.8492ZM45.1871 40.5356V43.5077H6.07167V40.5356C6.07208 40.5295 6.07208 40.5234 6.07167 40.5173C6.07202 40.5111 6.07202 40.505 6.07167 40.4989V37.5268H45.1871V40.4989C45.1867 40.505 45.1867 40.5111 45.1871 40.5173C45.1867 40.5234 45.1867 40.5295 45.1871 40.5356ZM7.02031 33.8752C7.30721 33.7 7.57065 33.4891 7.80429 33.2475C8.0121 33.0332 8.25036 32.8507 8.51137 32.7059C8.78719 32.5638 9.15243 32.4551 9.69236 32.4317C10.2323 32.4083 10.6067 32.5003 10.9009 32.6357C11.1854 32.7761 11.4458 32.9609 11.6724 33.1831C12.1496 33.6161 12.667 34.1769 13.7117 34.1769C14.1584 34.1907 14.6009 34.0866 14.9947 33.8752C15.2817 33.7003 15.5452 33.4893 15.7787 33.2475C15.9868 33.0332 16.2253 32.8507 16.4866 32.7059C16.7616 32.5638 17.1268 32.4551 17.6676 32.4317C18.2083 32.4083 18.5811 32.5003 18.8761 32.6357C19.1605 32.7763 19.4209 32.9611 19.6476 33.1831C20.124 33.6161 20.6422 34.1769 21.6861 34.1769C22.1331 34.1906 22.5758 34.0866 22.9699 33.8752C23.2565 33.7 23.5197 33.4891 23.753 33.2475C23.9613 33.0334 24.1998 32.8509 24.4609 32.7059C24.7368 32.5638 25.102 32.4551 25.6419 32.4317C26.1819 32.4083 26.5563 32.5003 26.8505 32.6357C27.135 32.7761 27.3954 32.9609 27.6219 33.1831C28.0992 33.6161 28.6165 34.1769 29.6613 34.1769C30.108 34.1907 30.5505 34.0866 30.9442 33.8752C31.2313 33.7003 31.4948 33.4893 31.7282 33.2475C31.9362 33.0334 32.1744 32.8509 32.4353 32.7059C32.7111 32.5638 33.0764 32.4551 33.6171 32.4317C34.1579 32.4083 34.5307 32.5003 34.8249 32.6357C35.1095 32.7759 35.3699 32.9607 35.5963 33.1831C36.0736 33.6161 36.5917 34.1769 37.6357 34.1769V34.171C38.0523 34.1727 38.4626 34.0698 38.8292 33.8718C39.1162 33.6969 39.3797 33.486 39.6132 33.2441C39.8213 33.0298 40.0598 32.8473 40.3211 32.7025C40.5961 32.5604 40.9621 32.4518 41.5021 32.4284C42.042 32.405 42.4164 32.4969 42.7106 32.6323C42.995 32.773 43.2554 32.9578 43.4821 33.1798C43.905 33.5642 44.3605 34.0473 45.1871 34.1526V36.8147H6.07167V34.1535C6.40384 34.1279 6.72698 34.0331 7.02031 33.8752Z" fill="#7FBE24"/>
<path d="M45.8558 33.8492C45.8558 33.7606 45.8205 33.6755 45.7578 33.6128C45.6951 33.5501 45.6101 33.5149 45.5214 33.5149C44.7692 33.5149 44.4399 33.1572 43.9334 32.695C43.6561 32.4264 43.3379 32.2035 42.9906 32.0347C42.5911 31.8508 42.1064 31.7455 41.4778 31.7706C40.8493 31.7957 40.3913 31.9252 40.0152 32.1191C39.6973 32.291 39.4063 32.5087 39.1518 32.7652C38.9194 32.9859 38.7381 33.1622 38.5015 33.2943C38.265 33.4263 37.9859 33.5116 37.5446 33.5116C36.86 33.484 36.5324 33.1371 36.0443 32.6942C35.7675 32.4253 35.4495 32.2024 35.1024 32.0339C34.702 31.85 34.2181 31.7447 33.5887 31.7698C32.9594 31.7949 32.5022 31.9244 32.1269 32.1175C31.8098 32.2911 31.5198 32.5102 31.266 32.7677C31.0337 32.9884 30.8531 33.1647 30.6166 33.2968C30.3801 33.4288 30.1009 33.5141 29.6596 33.5141C28.9124 33.5141 28.5789 33.1564 28.0716 32.6942C27.7944 32.4257 27.4765 32.2029 27.1297 32.0339C26.7293 31.85 26.2445 31.7447 25.616 31.7698C24.9875 31.7949 24.5295 31.9244 24.1542 32.1183C23.837 32.2914 23.5469 32.5103 23.2933 32.7677C23.061 32.9884 22.8796 33.1647 22.6431 33.2968C22.4065 33.4288 22.1282 33.5141 21.6861 33.5141C20.9389 33.5141 20.6054 33.1564 20.0981 32.6942C19.8212 32.4253 19.5032 32.2024 19.1561 32.0339C18.7558 31.85 18.2718 31.7447 17.6425 31.7698C17.0131 31.7949 16.5559 31.9244 16.1807 32.1183C15.8637 32.2914 15.5739 32.5103 15.3206 32.7677C15.0883 32.9884 14.9027 33.1647 14.6704 33.2968C14.438 33.4288 14.1547 33.5141 13.7134 33.5141C12.9662 33.5141 12.6327 33.1564 12.1254 32.6942C11.8484 32.4255 11.5304 32.2027 11.1834 32.0339C10.7831 31.85 10.2991 31.7447 9.66979 31.7698C9.04043 31.7949 8.58325 31.9244 8.20798 32.1183C7.89077 32.2914 7.60071 32.5103 7.3471 32.7677C7.11475 32.9884 6.93338 33.1647 6.69769 33.2968C6.46199 33.4288 6.182 33.5141 5.7407 33.5141V33.5208C5.65203 33.5208 5.56699 33.556 5.5043 33.6187C5.4416 33.6814 5.40638 33.7664 5.40638 33.8551V37.1615C5.406 37.1676 5.406 37.1738 5.40638 37.1799C5.40596 37.186 5.40596 37.1922 5.40638 37.1983V40.5047C5.406 40.5108 5.406 40.517 5.40638 40.5231C5.40596 40.5292 5.40596 40.5354 5.40638 40.5415V43.8479C5.40638 43.9366 5.4416 44.0216 5.5043 44.0843C5.56699 44.147 5.65203 44.1822 5.7407 44.1822H45.5248C45.6134 44.1822 45.6985 44.147 45.7612 44.0843C45.8239 44.0216 45.8591 43.9366 45.8591 43.8479V40.5415C45.8595 40.5354 45.8595 40.5292 45.8591 40.5231C45.8594 40.517 45.8594 40.5108 45.8591 40.5047V37.1983C45.8595 37.1922 45.8595 37.186 45.8591 37.1799C45.8594 37.1738 45.8594 37.1676 45.8591 37.1615L45.8558 33.8492ZM45.1871 40.5356V43.5077H6.07167V40.5356C6.07208 40.5295 6.07208 40.5234 6.07167 40.5173C6.07202 40.5111 6.07202 40.505 6.07167 40.4989V37.5268H45.1871V40.4989C45.1867 40.505 45.1867 40.5111 45.1871 40.5173C45.1867 40.5234 45.1867 40.5295 45.1871 40.5356ZM7.02031 33.8752C7.30721 33.7 7.57065 33.4891 7.80429 33.2475C8.0121 33.0332 8.25036 32.8507 8.51137 32.7059C8.78719 32.5638 9.15243 32.4551 9.69236 32.4317C10.2323 32.4083 10.6067 32.5003 10.9009 32.6357C11.1854 32.7761 11.4458 32.9609 11.6724 33.1831C12.1496 33.6161 12.667 34.1769 13.7117 34.1769C14.1584 34.1907 14.6009 34.0866 14.9947 33.8752C15.2817 33.7003 15.5452 33.4893 15.7787 33.2475C15.9868 33.0332 16.2253 32.8507 16.4866 32.7059C16.7616 32.5638 17.1268 32.4551 17.6676 32.4317C18.2083 32.4083 18.5811 32.5003 18.8761 32.6357C19.1605 32.7763 19.4209 32.9611 19.6476 33.1831C20.124 33.6161 20.6422 34.1769 21.6861 34.1769C22.1331 34.1906 22.5758 34.0866 22.9699 33.8752C23.2565 33.7 23.5197 33.4891 23.753 33.2475C23.9613 33.0334 24.1998 32.8509 24.4609 32.7059C24.7368 32.5638 25.102 32.4551 25.6419 32.4317C26.1819 32.4083 26.5563 32.5003 26.8505 32.6357C27.135 32.7761 27.3954 32.9609 27.6219 33.1831C28.0992 33.6161 28.6165 34.1769 29.6613 34.1769C30.108 34.1907 30.5505 34.0866 30.9442 33.8752C31.2313 33.7003 31.4948 33.4893 31.7282 33.2475C31.9362 33.0334 32.1744 32.8509 32.4353 32.7059C32.7111 32.5638 33.0764 32.4551 33.6171 32.4317C34.1579 32.4083 34.5307 32.5003 34.8249 32.6357C35.1095 32.7759 35.3699 32.9607 35.5963 33.1831C36.0736 33.6161 36.5917 34.1769 37.6357 34.1769V34.171C38.0523 34.1727 38.4626 34.0698 38.8292 33.8718C39.1162 33.6969 39.3797 33.486 39.6132 33.2441C39.8213 33.0298 40.0598 32.8473 40.3211 32.7025C40.5961 32.5604 40.9621 32.4518 41.5021 32.4284C42.042 32.405 42.4164 32.4969 42.7106 32.6323C42.995 32.773 43.2554 32.9578 43.4821 33.1798C43.905 33.5642 44.3605 34.0473 45.1871 34.1526V36.8147H6.07167V34.1535C6.40384 34.1279 6.72698 34.0331 7.02031 33.8752Z" stroke="#7FBE24" stroke-width="1.47934" mask="url(#path-2-outside-1_2004_798)"/>
<mask id="path-3-outside-2_2004_798" maskUnits="userSpaceOnUse" x="37.2495" y="39.7864" width="5" height="3" fill="black">
<rect fill="white" x="37.2495" y="39.7864" width="5" height="3"/>
<path d="M41.0056 40.8324C40.5701 41.0831 40.2651 41.201 39.9575 41.2068C39.6499 41.2127 39.2889 41.1099 38.7389 40.8249C38.6603 40.7837 38.5686 40.7755 38.484 40.802C38.3993 40.8285 38.3287 40.8875 38.2876 40.9661C38.2464 41.0447 38.2382 41.1364 38.2647 41.221C38.2912 41.3057 38.3502 41.3763 38.4288 41.4174C39.0139 41.7225 39.4936 41.8846 39.97 41.8755C40.4464 41.8663 40.8735 41.6849 41.3441 41.4091C41.4206 41.3642 41.4761 41.2908 41.4984 41.2049C41.5207 41.1191 41.5081 41.028 41.4632 40.9515C41.4183 40.875 41.3449 40.8195 41.2591 40.7972C41.1732 40.7748 41.0821 40.7875 41.0056 40.8324Z"/>
</mask>
<path d="M41.0056 40.8324C40.5701 41.0831 40.2651 41.201 39.9575 41.2068C39.6499 41.2127 39.2889 41.1099 38.7389 40.8249C38.6603 40.7837 38.5686 40.7755 38.484 40.802C38.3993 40.8285 38.3287 40.8875 38.2876 40.9661C38.2464 41.0447 38.2382 41.1364 38.2647 41.221C38.2912 41.3057 38.3502 41.3763 38.4288 41.4174C39.0139 41.7225 39.4936 41.8846 39.97 41.8755C40.4464 41.8663 40.8735 41.6849 41.3441 41.4091C41.4206 41.3642 41.4761 41.2908 41.4984 41.2049C41.5207 41.1191 41.5081 41.028 41.4632 40.9515C41.4183 40.875 41.3449 40.8195 41.2591 40.7972C41.1732 40.7748 41.0821 40.7875 41.0056 40.8324Z" fill="#7FBE24"/>
<path d="M41.0056 40.8324L41.3747 41.4734L41.38 41.4703L41.0056 40.8324ZM38.7389 40.8249L38.396 41.4802L38.3986 41.4816L38.7389 40.8249ZM38.4288 41.4174L38.0859 42.0728L38.0868 42.0733L38.4288 41.4174ZM41.3441 41.4091L41.7181 42.0472L41.7185 42.047L41.3441 41.4091ZM40.6365 40.1914C40.2298 40.4256 40.0588 40.4651 39.9434 40.4673L39.9716 41.9464C40.4713 41.9368 40.9105 41.7407 41.3747 41.4734L40.6365 40.1914ZM39.9434 40.4673C39.819 40.4696 39.5896 40.4326 39.0792 40.1681L38.3986 41.4816C38.9881 41.7871 39.4808 41.9557 39.9716 41.9464L39.9434 40.4673ZM39.0818 40.1695C38.8295 40.0374 38.5349 40.011 38.2631 40.0961L38.7049 41.5079C38.6023 41.54 38.4912 41.53 38.396 41.4802L39.0818 40.1695ZM38.2631 40.0961C37.9912 40.1812 37.7643 40.3708 37.6322 40.6232L38.9429 41.309C38.8931 41.4043 38.8075 41.4758 38.7049 41.5079L38.2631 40.0961ZM37.6322 40.6232C37.5001 40.8756 37.4737 41.1701 37.5588 41.4419L38.9706 41.0001C39.0027 41.1027 38.9928 41.2138 38.9429 41.309L37.6322 40.6232ZM37.5588 41.4419C37.6439 41.7138 37.8335 41.9407 38.0859 42.0728L38.7717 40.7621C38.867 40.8119 38.9385 40.8975 38.9706 41.0001L37.5588 41.4419ZM38.0868 42.0733C38.7133 42.4 39.3248 42.6277 39.9843 42.615L39.9558 41.1359C39.6625 41.1416 39.3144 41.045 38.7708 40.7616L38.0868 42.0733ZM39.9843 42.615C40.6494 42.6022 41.2086 42.3459 41.7181 42.0472L40.97 40.771C40.5385 41.0239 40.2435 41.1304 39.9558 41.1359L39.9843 42.615ZM41.7185 42.047C41.9642 41.9028 42.1425 41.6669 42.2142 41.3913L40.7826 41.0186C40.8097 40.9146 40.877 40.8256 40.9697 40.7712L41.7185 42.047ZM42.2142 41.3913C42.286 41.1156 42.2453 40.8227 42.1011 40.5771L40.8253 41.3259C40.7709 41.2332 40.7555 41.1227 40.7826 41.0186L42.2142 41.3913ZM42.1011 40.5771C41.9569 40.3314 41.721 40.1531 41.4454 40.0813L41.0727 41.513C40.9687 41.4859 40.8797 41.4186 40.8253 41.3259L42.1011 40.5771ZM41.4454 40.0813C41.1697 40.0096 40.8768 40.0503 40.6312 40.1945L41.38 41.4703C41.2873 41.5247 41.1768 41.5401 41.0727 41.513L41.4454 40.0813Z" fill="#7FBE24" mask="url(#path-3-outside-2_2004_798)"/>
<mask id="path-5-outside-3_2004_798" maskUnits="userSpaceOnUse" x="31.566" y="38.282" width="5" height="3" fill="black">
<rect fill="white" x="31.566" y="38.282" width="5" height="3"/>
<path d="M35.3221 39.328C34.8867 39.5787 34.5816 39.6966 34.274 39.7024C33.9664 39.7083 33.6054 39.6055 33.0554 39.3205C32.9768 39.2793 32.8851 39.2711 32.8005 39.2976C32.7159 39.3241 32.6452 39.3831 32.6041 39.4617C32.563 39.5403 32.5548 39.632 32.5812 39.7166C32.6077 39.8013 32.6668 39.8719 32.7453 39.913C33.3304 40.2181 33.8102 40.3803 34.2866 40.3711C34.763 40.3619 35.1901 40.1805 35.6606 39.9047C35.6985 39.8825 35.7316 39.853 35.7581 39.818C35.7846 39.7829 35.8039 39.743 35.8149 39.7006C35.826 39.6581 35.8286 39.6138 35.8225 39.5703C35.8165 39.5268 35.8019 39.485 35.7797 39.4471C35.7575 39.4092 35.728 39.3761 35.693 39.3496C35.658 39.3231 35.6181 39.3038 35.5756 39.2928C35.5331 39.2817 35.4888 39.2791 35.4453 39.2852C35.4019 39.2912 35.36 39.3058 35.3221 39.328Z"/>
</mask>
<path d="M35.3221 39.328C34.8867 39.5787 34.5816 39.6966 34.274 39.7024C33.9664 39.7083 33.6054 39.6055 33.0554 39.3205C32.9768 39.2793 32.8851 39.2711 32.8005 39.2976C32.7159 39.3241 32.6452 39.3831 32.6041 39.4617C32.563 39.5403 32.5548 39.632 32.5812 39.7166C32.6077 39.8013 32.6668 39.8719 32.7453 39.913C33.3304 40.2181 33.8102 40.3803 34.2866 40.3711C34.763 40.3619 35.1901 40.1805 35.6606 39.9047C35.6985 39.8825 35.7316 39.853 35.7581 39.818C35.7846 39.7829 35.8039 39.743 35.8149 39.7006C35.826 39.6581 35.8286 39.6138 35.8225 39.5703C35.8165 39.5268 35.8019 39.485 35.7797 39.4471C35.7575 39.4092 35.728 39.3761 35.693 39.3496C35.658 39.3231 35.6181 39.3038 35.5756 39.2928C35.5331 39.2817 35.4888 39.2791 35.4453 39.2852C35.4019 39.2912 35.36 39.3058 35.3221 39.328Z" fill="#7FBE24"/>
<path d="M35.3221 39.328L35.6912 39.969L35.6965 39.9659L35.3221 39.328ZM33.0554 39.3205L32.7125 39.9758L32.7151 39.9772L33.0554 39.3205ZM32.7453 39.913L32.4024 40.5684L32.4034 40.5689L32.7453 39.913ZM35.6606 39.9047L36.0346 40.5428L36.035 40.5426L35.6606 39.9047ZM34.953 38.687C34.5463 38.9212 34.3753 38.9607 34.26 38.9629L34.2881 40.442C34.7879 40.4325 35.227 40.2363 35.6912 39.969L34.953 38.687ZM34.26 38.9629C34.1356 38.9653 33.9062 38.9282 33.3958 38.6637L32.7151 39.9772C33.3046 40.2827 33.7973 40.4513 34.2881 40.442L34.26 38.9629ZM33.3984 38.6651C33.146 38.533 32.8515 38.5066 32.5796 38.5917L33.0214 40.0035C32.9188 40.0356 32.8077 40.0256 32.7125 39.9758L33.3984 38.6651ZM32.5796 38.5917C32.3077 38.6768 32.0808 38.8664 31.9487 39.1188L33.2595 39.8046C33.2096 39.8999 33.124 39.9714 33.0214 40.0035L32.5796 38.5917ZM31.9487 39.1188C31.8167 39.3712 31.7903 39.6657 31.8753 39.9376L33.2872 39.4957C33.3193 39.5983 33.3093 39.7094 33.2595 39.8046L31.9487 39.1188ZM31.8753 39.9376C31.9604 40.2094 32.15 40.4363 32.4024 40.5684L33.0883 39.2577C33.1835 39.3075 33.255 39.3931 33.2872 39.4957L31.8753 39.9376ZM32.4034 40.5689C33.0299 40.8956 33.6413 41.1233 34.3008 41.1106L34.2723 39.6315C33.979 39.6372 33.631 39.5406 33.0873 39.2572L32.4034 40.5689ZM34.3008 41.1106C34.9659 41.0978 35.5251 40.8415 36.0346 40.5428L35.2866 39.2666C34.855 39.5195 34.56 39.626 34.2723 39.6315L34.3008 41.1106ZM36.035 40.5426C36.1567 40.4712 36.2631 40.3765 36.3481 40.264L35.168 39.3719C35.2001 39.3295 35.2403 39.2937 35.2862 39.2668L36.035 40.5426ZM36.3481 40.264C36.4332 40.1515 36.4952 40.0234 36.5308 39.8869L35.0991 39.5142C35.1125 39.4627 35.136 39.4144 35.168 39.3719L36.3481 40.264ZM36.5308 39.8869C36.5663 39.7503 36.5746 39.6082 36.5552 39.4685L35.0899 39.6721C35.0826 39.6194 35.0857 39.5658 35.0991 39.5142L36.5308 39.8869ZM36.5552 39.4685C36.5358 39.3288 36.489 39.1943 36.4176 39.0727L35.1418 39.8215C35.1149 39.7756 35.0972 39.7248 35.0899 39.6721L36.5552 39.4685ZM36.4176 39.0727C36.3462 38.951 36.2516 38.8446 36.1391 38.7596L35.2469 39.9397C35.2045 39.9076 35.1688 39.8674 35.1418 39.8215L36.4176 39.0727ZM36.1391 38.7596C36.0266 38.6745 35.8984 38.6125 35.7619 38.5769L35.3893 40.0086C35.3377 39.9952 35.2894 39.9717 35.2469 39.9397L36.1391 38.7596ZM35.7619 38.5769C35.6254 38.5414 35.4833 38.5331 35.3435 38.5525L35.5472 40.0178C35.4944 40.0251 35.4408 40.022 35.3893 40.0086L35.7619 38.5769ZM35.3435 38.5525C35.2038 38.5719 35.0693 38.6187 34.9477 38.6901L35.6965 39.9659C35.6506 39.9928 35.5999 40.0105 35.5472 40.0178L35.3435 38.5525Z" fill="#7FBE24" mask="url(#path-5-outside-3_2004_798)"/>
<mask id="path-7-outside-4_2004_798" maskUnits="userSpaceOnUse" x="19.9484" y="38.282" width="5" height="3" fill="black">
<rect fill="white" x="19.9484" y="38.282" width="5" height="3"/>
<path d="M23.7046 39.328C23.2691 39.5787 22.964 39.6966 22.6565 39.7024C22.3489 39.7083 21.9836 39.6055 21.4379 39.3205C21.399 39.3001 21.3564 39.2876 21.3127 39.2837C21.2689 39.2798 21.2249 39.2845 21.1829 39.2976C21.0983 39.3241 21.0277 39.3831 20.9865 39.4617C20.9454 39.5403 20.9372 39.632 20.9637 39.7166C20.9902 39.8013 21.0492 39.8719 21.1278 39.913C21.7128 40.2181 22.1926 40.3803 22.669 40.3711C23.1454 40.3619 23.5725 40.1805 24.0431 39.9047C24.0809 39.8825 24.114 39.853 24.1405 39.818C24.167 39.7829 24.1863 39.743 24.1974 39.7006C24.2084 39.6581 24.211 39.6138 24.205 39.5703C24.1989 39.5268 24.1844 39.485 24.1622 39.4471C24.1399 39.4092 24.1105 39.3761 24.0754 39.3496C24.0404 39.3231 24.0005 39.3038 23.958 39.2928C23.9155 39.2817 23.8713 39.2791 23.8278 39.2852C23.7843 39.2912 23.7424 39.3058 23.7046 39.328Z"/>
</mask>
<path d="M23.7046 39.328C23.2691 39.5787 22.964 39.6966 22.6565 39.7024C22.3489 39.7083 21.9836 39.6055 21.4379 39.3205C21.399 39.3001 21.3564 39.2876 21.3127 39.2837C21.2689 39.2798 21.2249 39.2845 21.1829 39.2976C21.0983 39.3241 21.0277 39.3831 20.9865 39.4617C20.9454 39.5403 20.9372 39.632 20.9637 39.7166C20.9902 39.8013 21.0492 39.8719 21.1278 39.913C21.7128 40.2181 22.1926 40.3803 22.669 40.3711C23.1454 40.3619 23.5725 40.1805 24.0431 39.9047C24.0809 39.8825 24.114 39.853 24.1405 39.818C24.167 39.7829 24.1863 39.743 24.1974 39.7006C24.2084 39.6581 24.211 39.6138 24.205 39.5703C24.1989 39.5268 24.1844 39.485 24.1622 39.4471C24.1399 39.4092 24.1105 39.3761 24.0754 39.3496C24.0404 39.3231 24.0005 39.3038 23.958 39.2928C23.9155 39.2817 23.8713 39.2791 23.8278 39.2852C23.7843 39.2912 23.7424 39.3058 23.7046 39.328Z" fill="#7FBE24"/>
<path d="M23.7046 39.328L24.0737 39.969L24.079 39.9659L23.7046 39.328ZM21.4379 39.3205L21.0949 39.9758L21.0955 39.9761L21.4379 39.3205ZM21.1829 39.2976L20.962 38.5917L21.1829 39.2976ZM21.1278 39.913L20.7849 40.5684L20.7858 40.5689L21.1278 39.913ZM24.0431 39.9047L24.4171 40.5428L24.4175 40.5426L24.0431 39.9047ZM23.3355 38.687C22.9287 38.9212 22.7578 38.9607 22.6424 38.9629L22.6705 40.442C23.1703 40.4325 23.6095 40.2363 24.0737 39.969L23.3355 38.687ZM22.6424 38.9629C22.5172 38.9653 22.2832 38.9275 21.7803 38.6648L21.0955 39.9761C21.6841 40.2835 22.1806 40.4513 22.6705 40.442L22.6424 38.9629ZM21.7808 38.6651C21.6559 38.5997 21.5192 38.5596 21.3787 38.547L21.2467 40.0204C21.1936 40.0156 21.1421 40.0005 21.0949 39.9758L21.7808 38.6651ZM21.3787 38.547C21.2383 38.5344 21.0967 38.5496 20.962 38.5917L21.4039 40.0035C21.3531 40.0194 21.2996 40.0251 21.2467 40.0204L21.3787 38.547ZM20.962 38.5917C20.6902 38.6768 20.4632 38.8664 20.3312 39.1188L21.6419 39.8046C21.5921 39.8999 21.5065 39.9714 21.4039 40.0035L20.962 38.5917ZM20.3312 39.1188C20.1991 39.3712 20.1727 39.6657 20.2578 39.9376L21.6696 39.4957C21.7017 39.5983 21.6917 39.7094 21.6419 39.8046L20.3312 39.1188ZM20.2578 39.9376C20.3429 40.2094 20.5325 40.4363 20.7849 40.5684L21.4707 39.2577C21.566 39.3075 21.6375 39.3931 21.6696 39.4957L20.2578 39.9376ZM20.7858 40.5689C21.4123 40.8956 22.0237 41.1233 22.6833 41.1106L22.6547 39.6315C22.3615 39.6372 22.0134 39.5406 21.4698 39.2572L20.7858 40.5689ZM22.6833 41.1106C23.3484 41.0978 23.9076 40.8415 24.4171 40.5428L23.669 39.2666C23.2374 39.5195 22.9424 39.626 22.6547 39.6315L22.6833 41.1106ZM24.4175 40.5426C24.5392 40.4712 24.6455 40.3765 24.7306 40.264L23.5505 39.3719C23.5826 39.3295 23.6227 39.2937 23.6686 39.2668L24.4175 40.5426ZM24.7306 40.264C24.8156 40.1515 24.8777 40.0234 24.9132 39.8869L23.4816 39.5142C23.495 39.4627 23.5184 39.4144 23.5505 39.3719L24.7306 40.264ZM24.9132 39.8869C24.9487 39.7503 24.957 39.6082 24.9376 39.4685L23.4723 39.6721C23.465 39.6194 23.4681 39.5658 23.4816 39.5142L24.9132 39.8869ZM24.9376 39.4685C24.9182 39.3288 24.8715 39.1943 24.8001 39.0727L23.5243 39.8215C23.4973 39.7756 23.4797 39.7248 23.4723 39.6721L24.9376 39.4685ZM24.8001 39.0727C24.7287 38.951 24.634 38.8446 24.5215 38.7596L23.6294 39.9397C23.5869 39.9076 23.5512 39.8674 23.5243 39.8215L24.8001 39.0727ZM24.5215 38.7596C24.409 38.6745 24.2808 38.6125 24.1443 38.5769L23.7717 40.0086C23.7202 39.9952 23.6718 39.9718 23.6294 39.9397L24.5215 38.7596ZM24.1443 38.5769C24.0079 38.5414 23.8657 38.5331 23.726 38.5525L23.9296 40.0178C23.8768 40.0251 23.8232 40.022 23.7717 40.0086L24.1443 38.5769ZM23.726 38.5525C23.5863 38.5719 23.4518 38.6187 23.3301 38.6901L24.079 39.9659C24.0331 39.9928 23.9823 40.0105 23.9296 40.0178L23.726 38.5525Z" fill="#7FBE24" mask="url(#path-7-outside-4_2004_798)"/>
<mask id="path-9-outside-5_2004_798" maskUnits="userSpaceOnUse" x="25.6318" y="39.7864" width="5" height="3" fill="black">
<rect fill="white" x="25.6318" y="39.7864" width="5" height="3"/>
<path d="M29.388 40.8324C28.9525 41.0831 28.6475 41.201 28.3399 41.2068C28.0323 41.2127 27.6712 41.1099 27.1213 40.8249C27.0427 40.7837 26.951 40.7755 26.8664 40.802C26.7817 40.8285 26.7111 40.8875 26.6699 40.9661C26.6288 41.0447 26.6206 41.1364 26.6471 41.221C26.6736 41.3057 26.7326 41.3763 26.8112 41.4174C27.3963 41.7225 27.876 41.8846 28.3524 41.8755C28.8288 41.8663 29.2559 41.6849 29.7265 41.4091C29.8029 41.3642 29.8585 41.2908 29.8808 41.2049C29.9031 41.1191 29.8905 41.028 29.8456 40.9515C29.8007 40.875 29.7273 40.8195 29.6414 40.7972C29.5556 40.7748 29.4644 40.7875 29.388 40.8324Z"/>
</mask>
<path d="M29.388 40.8324C28.9525 41.0831 28.6475 41.201 28.3399 41.2068C28.0323 41.2127 27.6712 41.1099 27.1213 40.8249C27.0427 40.7837 26.951 40.7755 26.8664 40.802C26.7817 40.8285 26.7111 40.8875 26.6699 40.9661C26.6288 41.0447 26.6206 41.1364 26.6471 41.221C26.6736 41.3057 26.7326 41.3763 26.8112 41.4174C27.3963 41.7225 27.876 41.8846 28.3524 41.8755C28.8288 41.8663 29.2559 41.6849 29.7265 41.4091C29.8029 41.3642 29.8585 41.2908 29.8808 41.2049C29.9031 41.1191 29.8905 41.028 29.8456 40.9515C29.8007 40.875 29.7273 40.8195 29.6414 40.7972C29.5556 40.7748 29.4644 40.7875 29.388 40.8324Z" fill="#7FBE24"/>
<path d="M29.388 40.8324L29.7571 41.4734L29.7624 41.4703L29.388 40.8324ZM27.1213 40.8249L26.7783 41.4802L26.7809 41.4816L27.1213 40.8249ZM26.8112 41.4174L26.4683 42.0728L26.4692 42.0733L26.8112 41.4174ZM29.7265 41.4091L30.1005 42.0472L30.1009 42.047L29.7265 41.4091ZM29.0189 40.1914C28.6122 40.4256 28.4412 40.4651 28.3258 40.4673L28.3539 41.9464C28.8537 41.9368 29.2929 41.7407 29.7571 41.4734L29.0189 40.1914ZM28.3258 40.4673C28.2014 40.4696 27.972 40.4326 27.4616 40.1681L26.7809 41.4816C27.3705 41.7871 27.8632 41.9557 28.3539 41.9464L28.3258 40.4673ZM27.4642 40.1695C27.2119 40.0374 26.9173 40.011 26.6454 40.0961L27.0873 41.5079C26.9847 41.54 26.8736 41.53 26.7783 41.4802L27.4642 40.1695ZM26.6454 40.0961C26.3736 40.1812 26.1467 40.3708 26.0146 40.6232L27.3253 41.309C27.2755 41.4043 27.1899 41.4758 27.0873 41.5079L26.6454 40.0961ZM26.0146 40.6232C25.8825 40.8756 25.8561 41.1701 25.9412 41.4419L27.353 41.0001C27.3851 41.1027 27.3752 41.2138 27.3253 41.309L26.0146 40.6232ZM25.9412 41.4419C26.0263 41.7138 26.2159 41.9407 26.4683 42.0728L27.1541 40.7621C27.2494 40.8119 27.3209 40.8975 27.353 41.0001L25.9412 41.4419ZM26.4692 42.0733C27.0957 42.4 27.7072 42.6277 28.3667 42.615L28.3381 41.1359C28.0449 41.1416 27.6968 41.045 27.1532 40.7616L26.4692 42.0733ZM28.3667 42.615C29.0318 42.6022 29.591 42.3459 30.1005 42.0472L29.3524 40.771C28.9208 41.0239 28.6258 41.1304 28.3381 41.1359L28.3667 42.615ZM30.1009 42.047C30.3465 41.9028 30.5249 41.6669 30.5966 41.3913L29.165 41.0186C29.1921 40.9146 29.2593 40.8256 29.352 40.7712L30.1009 42.047ZM30.5966 41.3913C30.6684 41.1156 30.6277 40.8227 30.4835 40.5771L29.2077 41.3259C29.1533 41.2332 29.1379 41.1227 29.165 41.0186L30.5966 41.3913ZM30.4835 40.5771C30.3393 40.3314 30.1034 40.1531 29.8278 40.0813L29.4551 41.513C29.3511 41.4859 29.2621 41.4186 29.2077 41.3259L30.4835 40.5771ZM29.8278 40.0813C29.5521 40.0096 29.2592 40.0503 29.0136 40.1945L29.7624 41.4703C29.6697 41.5247 29.5591 41.5401 29.4551 41.513L29.8278 40.0813Z" fill="#7FBE24" mask="url(#path-9-outside-5_2004_798)"/>
<mask id="path-11-outside-6_2004_798" maskUnits="userSpaceOnUse" x="8.33093" y="38.282" width="5" height="3" fill="black">
<rect fill="white" x="8.33093" y="38.282" width="5" height="3"/>
<path d="M12.0871 39.328C11.6516 39.5787 11.3465 39.6966 11.039 39.7024C10.7314 39.7083 10.3662 39.6055 9.82038 39.3205C9.7418 39.2793 9.6501 39.2711 9.56546 39.2976C9.48082 39.3241 9.41017 39.3831 9.36905 39.4617C9.32793 39.5403 9.31971 39.632 9.3462 39.7166C9.37269 39.8013 9.43172 39.8719 9.5103 39.913C10.0954 40.2181 10.5751 40.3803 11.0515 40.3711C11.5279 40.3619 11.955 40.1805 12.4256 39.9047C12.4634 39.8825 12.4966 39.853 12.523 39.818C12.5495 39.7829 12.5688 39.743 12.5799 39.7006C12.5909 39.6581 12.5935 39.6138 12.5875 39.5703C12.5814 39.5268 12.5669 39.485 12.5447 39.4471C12.5224 39.4092 12.493 39.3761 12.458 39.3496C12.4229 39.3231 12.383 39.3038 12.3405 39.2928C12.298 39.2817 12.2538 39.2791 12.2103 39.2852C12.1668 39.2912 12.1249 39.3058 12.0871 39.328Z"/>
</mask>
<path d="M12.0871 39.328C11.6516 39.5787 11.3465 39.6966 11.039 39.7024C10.7314 39.7083 10.3662 39.6055 9.82038 39.3205C9.7418 39.2793 9.6501 39.2711 9.56546 39.2976C9.48082 39.3241 9.41017 39.3831 9.36905 39.4617C9.32793 39.5403 9.31971 39.632 9.3462 39.7166C9.37269 39.8013 9.43172 39.8719 9.5103 39.913C10.0954 40.2181 10.5751 40.3803 11.0515 40.3711C11.5279 40.3619 11.955 40.1805 12.4256 39.9047C12.4634 39.8825 12.4966 39.853 12.523 39.818C12.5495 39.7829 12.5688 39.743 12.5799 39.7006C12.5909 39.6581 12.5935 39.6138 12.5875 39.5703C12.5814 39.5268 12.5669 39.485 12.5447 39.4471C12.5224 39.4092 12.493 39.3761 12.458 39.3496C12.4229 39.3231 12.383 39.3038 12.3405 39.2928C12.298 39.2817 12.2538 39.2791 12.2103 39.2852C12.1668 39.2912 12.1249 39.3058 12.0871 39.328Z" fill="#7FBE24"/>
<path d="M12.0871 39.328L12.4562 39.969L12.4615 39.9659L12.0871 39.328ZM9.82038 39.3205L9.47744 39.9758L9.47799 39.9761L9.82038 39.3205ZM9.5103 39.913L9.16736 40.5684L9.16831 40.5689L9.5103 39.913ZM12.4256 39.9047L12.7996 40.5428L12.8 40.5426L12.4256 39.9047ZM11.718 38.687C11.3112 38.9212 11.1403 38.9607 11.0249 38.9629L11.053 40.442C11.5528 40.4325 11.992 40.2363 12.4562 39.969L11.718 38.687ZM11.0249 38.9629C10.8997 38.9653 10.6657 38.9275 10.1628 38.6648L9.47799 39.9761C10.0666 40.2835 10.5631 40.4513 11.053 40.442L11.0249 38.9629ZM10.1633 38.6651C9.91094 38.533 9.61642 38.5066 9.34453 38.5917L9.78638 40.0035C9.68377 40.0356 9.57265 40.0257 9.47744 39.9758L10.1633 38.6651ZM9.34453 38.5917C9.07267 38.6768 8.84575 38.8664 8.71368 39.1188L10.0244 39.8046C9.97458 39.8999 9.88896 39.9714 9.78638 40.0035L9.34453 38.5917ZM8.71368 39.1188C8.58161 39.3712 8.55521 39.6657 8.64029 39.9376L10.0521 39.4957C10.0842 39.5983 10.0742 39.7094 10.0244 39.8046L8.71368 39.1188ZM8.64029 39.9376C8.72537 40.2094 8.91497 40.4363 9.16736 40.5684L9.85323 39.2577C9.94846 39.3075 10.02 39.3931 10.0521 39.4957L8.64029 39.9376ZM9.16831 40.5689C9.79481 40.8956 10.4063 41.1233 11.0658 41.1106L11.0372 39.6315C10.744 39.6372 10.3959 39.5406 9.85228 39.2572L9.16831 40.5689ZM11.0658 41.1106C11.7309 41.0978 12.2901 40.8415 12.7996 40.5428L12.0515 39.2666C11.6199 39.5195 11.3249 39.626 11.0372 39.6315L11.0658 41.1106ZM12.8 40.5426C12.9217 40.4712 13.028 40.3765 13.1131 40.264L11.933 39.3719C11.9651 39.3295 12.0052 39.2937 12.0511 39.2668L12.8 40.5426ZM13.1131 40.264C13.1981 40.1515 13.2602 40.0234 13.2957 39.8869L11.8641 39.5142C11.8775 39.4627 11.9009 39.4144 11.933 39.3719L13.1131 40.264ZM13.2957 39.8869C13.3312 39.7504 13.3395 39.6082 13.3201 39.4685L11.8549 39.6721C11.8475 39.6194 11.8507 39.5658 11.8641 39.5142L13.2957 39.8869ZM13.3201 39.4685C13.3007 39.3288 13.254 39.1943 13.1826 39.0727L11.9068 39.8215C11.8798 39.7756 11.8622 39.7249 11.8549 39.6721L13.3201 39.4685ZM13.1826 39.0727C13.1112 38.9511 13.0165 38.8447 12.904 38.7596L12.0119 39.9397C11.9694 39.9075 11.9337 39.8674 11.9068 39.8215L13.1826 39.0727ZM12.904 38.7596C12.7915 38.6745 12.6633 38.6125 12.5268 38.5769L12.1542 40.0086C12.1027 39.9952 12.0544 39.9718 12.0119 39.9397L12.904 38.7596ZM12.5268 38.5769C12.3904 38.5414 12.2482 38.5331 12.1085 38.5525L12.3121 40.0178C12.2593 40.0251 12.2057 40.022 12.1542 40.0086L12.5268 38.5769ZM12.1085 38.5525C11.9688 38.5719 11.8343 38.6187 11.7126 38.6901L12.4615 39.9659C12.4156 39.9928 12.3648 40.0105 12.3121 40.0178L12.1085 38.5525Z" fill="#7FBE24" mask="url(#path-11-outside-6_2004_798)"/>
<mask id="path-13-outside-7_2004_798" maskUnits="userSpaceOnUse" x="14.0143" y="39.7864" width="5" height="3" fill="black">
<rect fill="white" x="14.0143" y="39.7864" width="5" height="3"/>
<path d="M17.7704 40.8324C17.335 41.0831 17.0299 41.201 16.7223 41.2068C16.4148 41.2127 16.0495 41.1099 15.5037 40.8249C15.4648 40.8045 15.4223 40.792 15.3785 40.7881C15.3348 40.7842 15.2907 40.7889 15.2488 40.802C15.1642 40.8285 15.0935 40.8875 15.0524 40.9661C15.0113 41.0447 15.0031 41.1364 15.0295 41.221C15.056 41.3057 15.1151 41.3763 15.1936 41.4174C15.7787 41.7225 16.2585 41.8846 16.7349 41.8755C17.2113 41.8663 17.6384 41.6849 18.1089 41.4091C18.1468 41.3869 18.1799 41.3574 18.2064 41.3224C18.2329 41.2873 18.2522 41.2474 18.2632 41.2049C18.2743 41.1625 18.2769 41.1182 18.2708 41.0747C18.2648 41.0312 18.2502 40.9894 18.228 40.9515C18.2058 40.9136 18.1763 40.8805 18.1413 40.854C18.1063 40.8275 18.0664 40.8082 18.0239 40.7972C17.9814 40.7861 17.9371 40.7835 17.8936 40.7896C17.8502 40.7956 17.8083 40.8102 17.7704 40.8324Z"/>
</mask>
<path d="M17.7704 40.8324C17.335 41.0831 17.0299 41.201 16.7223 41.2068C16.4148 41.2127 16.0495 41.1099 15.5037 40.8249C15.4648 40.8045 15.4223 40.792 15.3785 40.7881C15.3348 40.7842 15.2907 40.7889 15.2488 40.802C15.1642 40.8285 15.0935 40.8875 15.0524 40.9661C15.0113 41.0447 15.0031 41.1364 15.0295 41.221C15.056 41.3057 15.1151 41.3763 15.1936 41.4174C15.7787 41.7225 16.2585 41.8846 16.7349 41.8755C17.2113 41.8663 17.6384 41.6849 18.1089 41.4091C18.1468 41.3869 18.1799 41.3574 18.2064 41.3224C18.2329 41.2873 18.2522 41.2474 18.2632 41.2049C18.2743 41.1625 18.2769 41.1182 18.2708 41.0747C18.2648 41.0312 18.2502 40.9894 18.228 40.9515C18.2058 40.9136 18.1763 40.8805 18.1413 40.854C18.1063 40.8275 18.0664 40.8082 18.0239 40.7972C17.9814 40.7861 17.9371 40.7835 17.8936 40.7896C17.8502 40.7956 17.8083 40.8102 17.7704 40.8324Z" fill="#7FBE24"/>
<path d="M17.7704 40.8324L18.1395 41.4734L18.1448 41.4703L17.7704 40.8324ZM15.5037 40.8249L15.1608 41.4802L15.1613 41.4805L15.5037 40.8249ZM15.2488 40.802L15.0279 40.0961L15.2488 40.802ZM15.1936 41.4174L14.8507 42.0728L14.8517 42.0733L15.1936 41.4174ZM18.1089 41.4091L18.483 42.0472L18.4833 42.047L18.1089 41.4091ZM17.4013 40.1914C16.9946 40.4256 16.8236 40.4651 16.7083 40.4673L16.7364 41.9464C17.2362 41.9368 17.6753 41.7407 18.1395 41.4734L17.4013 40.1914ZM16.7083 40.4673C16.583 40.4697 16.3491 40.4318 15.8461 40.1692L15.1613 41.4805C15.75 41.7879 16.2465 41.9557 16.7364 41.9464L16.7083 40.4673ZM15.8467 40.1695C15.7217 40.1041 15.5851 40.064 15.4446 40.0514L15.3125 41.5248C15.2595 41.52 15.2079 41.5049 15.1608 41.4802L15.8467 40.1695ZM15.4446 40.0514C15.3041 40.0388 15.1625 40.054 15.0279 40.0961L15.4697 41.5079C15.4189 41.5238 15.3655 41.5295 15.3125 41.5248L15.4446 40.0514ZM15.0279 40.0961C14.756 40.1812 14.5291 40.3708 14.397 40.6232L15.7078 41.309C15.6579 41.4043 15.5723 41.4758 15.4697 41.5079L15.0279 40.0961ZM14.397 40.6232C14.265 40.8756 14.2386 41.1701 14.3236 41.442L15.7355 41.0001C15.7676 41.1027 15.7576 41.2138 15.7078 41.309L14.397 40.6232ZM14.3236 41.442C14.4087 41.7138 14.5983 41.9407 14.8507 42.0728L15.5366 40.7621C15.6318 40.8119 15.7033 40.8975 15.7355 41.0001L14.3236 41.442ZM14.8517 42.0733C15.4782 42.4 16.0896 42.6277 16.7491 42.615L16.7206 41.1359C16.4273 41.1416 16.0793 41.045 15.5356 40.7616L14.8517 42.0733ZM16.7491 42.615C17.4143 42.6022 17.9734 42.3459 18.483 42.0472L17.7349 40.771C17.3033 41.0239 17.0083 41.1304 16.7206 41.1359L16.7491 42.615ZM18.4833 42.047C18.605 41.9756 18.7114 41.8809 18.7964 41.7684L17.6163 40.8763C17.6484 40.8339 17.6886 40.7981 17.7345 40.7712L18.4833 42.047ZM18.7964 41.7684C18.8815 41.6559 18.9435 41.5278 18.9791 41.3913L17.5474 41.0186C17.5608 40.9671 17.5843 40.9187 17.6163 40.8763L18.7964 41.7684ZM18.9791 41.3913C19.0146 41.2548 19.0229 41.1126 19.0035 40.9729L17.5382 41.1765C17.5309 41.1238 17.534 41.0701 17.5474 41.0186L18.9791 41.3913ZM19.0035 40.9729C18.9841 40.8332 18.9373 40.6987 18.8659 40.5771L17.5901 41.3259C17.5632 41.28 17.5455 41.2293 17.5382 41.1765L19.0035 40.9729ZM18.8659 40.5771C18.7945 40.4554 18.6999 40.3491 18.5874 40.264L17.6952 41.4441C17.6528 41.4119 17.617 41.3718 17.5901 41.3259L18.8659 40.5771ZM18.5874 40.264C18.4748 40.1789 18.3467 40.1169 18.2102 40.0813L17.8376 41.513C17.7861 41.4996 17.7377 41.4762 17.6952 41.4441L18.5874 40.264ZM18.2102 40.0813C18.0737 40.0458 17.9316 40.0375 17.7918 40.0569L17.9955 41.5222C17.9427 41.5295 17.8891 41.5264 17.8376 41.513L18.2102 40.0813ZM17.7918 40.0569C17.6521 40.0763 17.5176 40.1231 17.396 40.1945L18.1448 41.4703C18.0989 41.4972 18.0482 41.5149 17.9955 41.5222L17.7918 40.0569Z" fill="#7FBE24" mask="url(#path-13-outside-7_2004_798)"/>
</svg>
