<svg width="51" height="54" viewBox="0 0 51 54" fill="none" xmlns="http://www.w3.org/2000/svg">
<path d="M28.1797 36.332L28.417 36.4698" stroke="#7FBE24" stroke-width="1.53125" stroke-linecap="round" stroke-linejoin="round"/>
<path d="M28.417 36.4698L33.9984 39.6855" stroke="#7FBE24" stroke-width="1.53125" stroke-linecap="round" stroke-linejoin="round"/>
<path d="M25.5615 39.7238L25.5998 39.7467" stroke="#7FBE24" stroke-width="1.53125" stroke-linecap="round" stroke-linejoin="round"/>
<path d="M25.5996 39.7469L29.7493 42.1357" stroke="#7FBE24" stroke-width="1.53125" stroke-linecap="round" stroke-linejoin="round"/>
<path d="M28.18 36.3322L28.0498 36.2556" stroke="#7FBE24" stroke-width="1.53125" stroke-linecap="round" stroke-linejoin="round"/>
<circle cx="21.251" cy="42.1355" r="0.765625" stroke="#7FBE24" stroke-width="1.53125" stroke-linecap="round" stroke-linejoin="round"/>
<circle cx="17.002" cy="39.6853" r="0.765625" stroke="#7FBE24" stroke-width="1.53125" stroke-linecap="round" stroke-linejoin="round"/>
<path d="M25.3086 39.5859L25.5459 39.7237" stroke="#7FBE24" stroke-width="1.53125" stroke-linecap="round" stroke-linejoin="round"/>
<path d="M21.2509 42.1355L20.8145 41.8828" stroke="#7FBE24" stroke-width="1.53125" stroke-linecap="round" stroke-linejoin="round"/>
<path d="M17.0014 39.6857L16.8789 39.6168" stroke="#7FBE24" stroke-width="1.53125" stroke-linecap="round" stroke-linejoin="round"/>
<circle cx="21.251" cy="42.1355" r="0.765625" stroke="#7FBE24" stroke-width="1.53125" stroke-linecap="round" stroke-linejoin="round"/>
<path d="M33.9984 39.6855L28.417 36.4698" stroke="#7FBE24" stroke-width="1.53125" stroke-linecap="round" stroke-linejoin="round"/>
<circle cx="37.957" cy="37.0748" r="0.765625" stroke="#7FBE24" stroke-width="1.53125" stroke-linecap="round" stroke-linejoin="round"/>
<path d="M25.2852 39.5631L25.3234 39.5861" stroke="#7FBE24" stroke-width="1.53125" stroke-linecap="round" stroke-linejoin="round"/>
<path d="M24.8799 44.2258L25.5 44.5857" stroke="#7FBE24" stroke-width="1.53125" stroke-linecap="round" stroke-linejoin="round"/>
<path d="M25.3085 39.5631L25.209 39.5095" stroke="#7FBE24" stroke-width="1.53125" stroke-linecap="round" stroke-linejoin="round"/>
<path d="M28.417 36.4698L28.1797 36.332" stroke="#7FBE24" stroke-width="1.53125" stroke-linecap="round" stroke-linejoin="round"/>
<path d="M25.5616 39.7238L25.3242 39.5859" stroke="#7FBE24" stroke-width="1.53125" stroke-linecap="round" stroke-linejoin="round"/>
<path d="M29.7493 42.1357L25.5996 39.7469" stroke="#7FBE24" stroke-width="1.53125" stroke-linecap="round" stroke-linejoin="round"/>
<path d="M25.5998 39.7469H25.5615" stroke="#7FBE24" stroke-width="1.53125" stroke-linecap="round" stroke-linejoin="round"/>
<path d="M30.0322 42.2965C30.5193 42.581 30.8735 43.0472 31.017 43.5928C31.1606 44.1383 31.0817 44.7185 30.7978 45.2059V45.2518C30.5252 45.7264 30.0755 46.0736 29.5473 46.2171C29.0191 46.3606 28.4556 46.2888 27.9803 46.0175L25.5303 44.601" stroke="#7FBE24" stroke-width="1.53125" stroke-linecap="round" stroke-linejoin="round"/>
<path d="M37.9563 37.075L30.1699 32.5808L37.9487 37.0674L37.9563 37.075Z" stroke="#7FBE24" stroke-width="1.53125" stroke-linecap="round" stroke-linejoin="round"/>
<path d="M34.3579 39.9L33.998 39.6857" stroke="#7FBE24" stroke-width="1.53125" stroke-linecap="round" stroke-linejoin="round"/>
<path d="M34.3579 39.8997L33.998 39.6853" stroke="#7FBE24" stroke-width="1.53125" stroke-linecap="round" stroke-linejoin="round"/>
<path d="M30.0325 42.2963L29.7568 42.1355" stroke="#7FBE24" stroke-width="1.53125" stroke-linecap="round" stroke-linejoin="round"/>
<circle cx="13.043" cy="37.0748" r="0.765625" stroke="#7FBE24" stroke-width="1.53125" stroke-linecap="round" stroke-linejoin="round"/>
<path d="M40.1615 33.4458L41.4937 34.2114C41.9808 34.4959 42.3351 34.9621 42.4786 35.5077C42.6222 36.0532 42.5433 36.6334 42.2594 37.1208V37.1668C41.9882 37.6408 41.5399 37.9878 41.013 38.1314C40.486 38.275 39.9237 38.2034 39.4495 37.9324L37.9795 37.0902" stroke="#7FBE24" stroke-width="1.53125" stroke-linecap="round" stroke-linejoin="round"/>
<path d="M30.0323 42.2963L29.749 42.1355" stroke="#7FBE24" stroke-width="1.53125" stroke-linecap="round" stroke-linejoin="round"/>
<path d="M37.9568 37.0748C38.205 37.2107 38.4235 37.3949 38.5994 37.6165C38.7754 37.8381 38.9051 38.0927 38.9812 38.3653C39.0572 38.6378 39.0779 38.9228 39.0421 39.2035C39.0063 39.4842 38.9146 39.7549 38.7726 39.9996C38.6306 40.2443 38.441 40.4581 38.2151 40.6285C37.9891 40.7988 37.7314 40.9222 37.457 40.9914C37.1827 41.0606 36.8972 41.0742 36.6175 41.0314C36.3378 40.9886 36.0695 40.8903 35.8284 40.7422L34.3584 39.9" stroke="#7FBE24" stroke-width="1.53125" stroke-linecap="round" stroke-linejoin="round"/>
<path d="M34.3585 39.8999C34.6009 40.0386 34.8133 40.2241 34.9834 40.4456C35.1534 40.6672 35.2777 40.9203 35.349 41.1904C35.4202 41.4605 35.437 41.742 35.3984 42.0186C35.3598 42.2952 35.2666 42.5614 35.1241 42.8016V42.8475C34.9906 43.0841 34.8115 43.2917 34.5971 43.4585C34.3827 43.6252 34.1374 43.7478 33.8753 43.819C33.6132 43.8902 33.3396 43.9087 33.0703 43.8734C32.801 43.838 32.5414 43.7496 32.3066 43.6132L30.0557 42.3116" stroke="#7FBE24" stroke-width="1.53125" stroke-linecap="round" stroke-linejoin="round"/>
<path d="M10.8379 33.4458C10.8379 33.3386 10.7689 33.2391 10.7383 33.1319L7.05566 31.0111" stroke="#7FBE24" stroke-width="1.53125" stroke-linecap="round" stroke-linejoin="round"/>
<circle cx="7.05566" cy="31.0111" r="0.765625" stroke="#7FBE24" stroke-width="1.53125" stroke-linecap="round" stroke-linejoin="round"/>
<path d="M14.2832 18.5237L17.9582 20.6445L19.2215 20.1468C21.2444 19.3634 23.4903 19.3826 25.4996 20.2004" stroke="#7FBE24" stroke-width="1.53125" stroke-linecap="round" stroke-linejoin="round"/>
<path d="M1.76562 30.1995L6.20625 32.481L7.06375 31.011" stroke="#7FBE24" stroke-width="1.53125" stroke-linecap="round" stroke-linejoin="round"/>
<path d="M7.3927 12.5901L15.1332 17.0537L7.06348 31.011" stroke="#7FBE24" stroke-width="1.53125" stroke-linecap="round" stroke-linejoin="round"/>
<path d="M13.0584 37.0748C12.8102 37.2107 12.5917 37.3949 12.4158 37.6165C12.2398 37.8381 12.11 38.0927 12.034 38.3653C11.958 38.6378 11.9373 38.9228 11.9731 39.2035C12.0089 39.4842 12.1006 39.7549 12.2426 39.9996C12.3846 40.2443 12.5742 40.4581 12.8001 40.6285C13.0261 40.7988 13.2838 40.9222 13.5582 40.9914C13.8326 41.0606 14.118 41.0742 14.3977 41.0314C14.6774 40.9886 14.9457 40.8903 15.1868 40.7422L16.3506 40.0761" stroke="#7FBE24" stroke-width="1.53125" stroke-linecap="round" stroke-linejoin="round"/>
<path d="M23.0498 46.0022L23.0804 45.9792" stroke="#7FBE24" stroke-width="1.53125" stroke-linecap="round" stroke-linejoin="round"/>
<path d="M17.002 39.6855L17.0632 39.6549" stroke="#7FBE24" stroke-width="1.53125" stroke-linecap="round" stroke-linejoin="round"/>
<circle cx="29.749" cy="42.1355" r="0.765625" stroke="#7FBE24" stroke-width="1.53125" stroke-linecap="round" stroke-linejoin="round"/>
<path d="M23.0811 45.979L23.8926 45.512" stroke="#7FBE24" stroke-width="1.53125" stroke-linecap="round" stroke-linejoin="round"/>
<circle cx="33.998" cy="39.6853" r="0.765625" stroke="#7FBE24" stroke-width="1.53125" stroke-linecap="round" stroke-linejoin="round"/>
<path d="M17.0632 39.6549C17.469 39.4175 17.5226 39.3869 17.002 39.6549" stroke="#7FBE24" stroke-width="1.53125" stroke-linecap="round" stroke-linejoin="round"/>
<path d="M16.6345 39.8999L16.3359 40.076" stroke="#7FBE24" stroke-width="1.53125" stroke-linecap="round" stroke-linejoin="round"/>
<path d="M13.1044 37.0364L13.0508 37.067" stroke="#7FBE24" stroke-width="1.53125" stroke-linecap="round" stroke-linejoin="round"/>
<path d="M13.0508 37.067L13.1044 37.0364" stroke="#7FBE24" stroke-width="1.53125" stroke-linecap="round" stroke-linejoin="round"/>
<path d="M25.5004 44.5857L23.8926 45.5121" stroke="#7FBE24" stroke-width="1.53125" stroke-linecap="round" stroke-linejoin="round"/>
<path d="M13.1045 37.0366L13.472 36.8298L13.1045 37.0366Z" stroke="#7FBE24" stroke-width="1.53125" stroke-linecap="round" stroke-linejoin="round"/>
<path d="M13.0585 37.0749L11.5885 37.9171C11.1143 38.1881 10.5519 38.2597 10.025 38.1161C9.49808 37.9726 9.04975 37.6256 8.77862 37.1515V37.1055C8.49466 36.6181 8.41578 36.0379 8.55934 35.4924C8.7029 34.9469 9.05715 34.4807 9.54425 34.1962L10.8764 33.4305" stroke="#7FBE24" stroke-width="1.53125" stroke-linecap="round" stroke-linejoin="round"/>
<path d="M16.6338 39.8997L17.0013 39.6853" stroke="#7FBE24" stroke-width="1.53125" stroke-linecap="round" stroke-linejoin="round"/>
<path d="M13.043 37.0749L13.0506 37.0673" stroke="#7FBE24" stroke-width="1.53125" stroke-linecap="round" stroke-linejoin="round"/>
<path d="M16.6338 39.9L16.9936 39.6857" stroke="#7FBE24" stroke-width="1.53125" stroke-linecap="round" stroke-linejoin="round"/>
<path d="M36.7164 18.5237L33.0414 20.6445L31.7781 20.1468C29.7552 19.3634 27.5093 19.3826 25.5 20.2004" stroke="#7FBE24" stroke-width="1.53125" stroke-linecap="round" stroke-linejoin="round"/>
<path d="M16.6345 39.8999C16.3928 40.0393 16.1811 40.2252 16.0116 40.4468C15.8421 40.6685 15.7182 40.9215 15.6471 41.1912C15.5759 41.461 15.5588 41.7422 15.5969 42.0186C15.635 42.295 15.7274 42.5611 15.8688 42.8016V42.8475C16.0023 43.0841 16.1815 43.2917 16.3958 43.4585C16.6102 43.6252 16.8555 43.7478 17.1176 43.819C17.3797 43.8902 17.6533 43.9087 17.9226 43.8734C18.1919 43.838 18.4515 43.7496 18.6863 43.6132L19.896 42.9164" stroke="#7FBE24" stroke-width="1.53125" stroke-linecap="round" stroke-linejoin="round"/>
<circle cx="37.957" cy="37.0748" r="0.765625" stroke="#7FBE24" stroke-width="1.53125" stroke-linecap="round" stroke-linejoin="round"/>
<path d="M23.0497 46.0021C22.5744 46.2735 22.0108 46.3453 21.4827 46.2017C20.9545 46.0582 20.5048 45.7111 20.2322 45.2365V45.1905C20.0918 44.9498 20.0002 44.6837 19.9627 44.4075C19.9251 44.1313 19.9424 43.8505 20.0135 43.581C20.0847 43.3115 20.2082 43.0586 20.3771 42.8369C20.546 42.6152 20.7569 42.429 20.9978 42.2888" stroke="#7FBE24" stroke-width="1.53125" stroke-linecap="round" stroke-linejoin="round"/>
<path d="M20.9756 42.2963L21.2512 42.1355" stroke="#7FBE24" stroke-width="1.53125" stroke-linecap="round" stroke-linejoin="round"/>
<path d="M21.251 42.1356L21.3964 42.0514" stroke="#7FBE24" stroke-width="1.53125" stroke-linecap="round" stroke-linejoin="round"/>
<path d="M21.2512 42.1355L20.9756 42.2963" stroke="#7FBE24" stroke-width="1.53125" stroke-linecap="round" stroke-linejoin="round"/>
<path d="M28.1641 26.5243L29.6034 27.3588" stroke="#7FBE24" stroke-width="1.53125" stroke-linecap="round" stroke-linejoin="round"/>
<path d="M28.1641 26.5243L29.6034 27.3588" stroke="#7FBE24" stroke-width="1.53125" stroke-linecap="round" stroke-linejoin="round"/>
<path d="M40.1615 33.4458L29.6035 27.3591" stroke="#7FBE24" stroke-width="1.53125" stroke-linecap="round" stroke-linejoin="round"/>
<path d="M34.1589 26.8152C31.862 26.8152 29.7948 26.6851 28.1641 26.5243" stroke="#7FBE24" stroke-width="1.53125" stroke-linecap="round" stroke-linejoin="round"/>
<path d="M25.4999 20.2003C25.1338 20.3437 24.7781 20.5126 24.4356 20.7056L22.9044 21.6014L20.2017 23.1327C19.7399 23.3942 19.3362 23.7469 19.015 24.1695C18.6939 24.592 18.462 25.0754 18.3336 25.5903L17.2924 29.6941C17.254 29.8497 17.2516 30.012 17.2853 30.1686C17.3189 30.3253 17.3878 30.4723 17.4866 30.5984C17.5855 30.7245 17.7117 30.8266 17.8558 30.8967C17.9999 30.9669 18.1581 31.0033 18.3183 31.0033C18.9354 31.0044 19.5395 30.8253 20.0563 30.488C20.5731 30.1507 20.9802 29.6699 21.2277 29.1045L22.0316 27.2441L24.0069 25.9425C24.0069 25.9425 25.5764 26.2641 28.1872 26.5167" stroke="#7FBE24" stroke-width="1.53125" stroke-linecap="round" stroke-linejoin="round"/>
<path d="M40.1621 33.4458C40.1621 33.3386 40.231 33.2391 40.2616 33.1319L43.9443 31.0111" stroke="#7FBE24" stroke-width="1.53125" stroke-linecap="round" stroke-linejoin="round"/>
<circle cx="43.9443" cy="31.0111" r="0.765625" stroke="#7FBE24" stroke-width="1.53125" stroke-linecap="round" stroke-linejoin="round"/>
<path d="M19.9258 42.9014L20.9747 42.2965" stroke="#7FBE24" stroke-width="1.53125" stroke-linecap="round" stroke-linejoin="round"/>
<path d="M43.9443 31.011L44.7942 32.481L49.2348 30.1995" stroke="#7FBE24" stroke-width="1.53125" stroke-linecap="round" stroke-linejoin="round"/>
<path d="M43.6067 12.5901L35.8662 17.0537L43.9436 31.011" stroke="#7FBE24" stroke-width="1.53125" stroke-linecap="round" stroke-linejoin="round"/>
<circle cx="13.043" cy="37.0748" r="0.765625" stroke="#7FBE24" stroke-width="1.53125" stroke-linecap="round" stroke-linejoin="round"/>
<path d="M13.043 37.0747L13.1042 37.0364" stroke="#7FBE24" stroke-width="1.53125" stroke-linecap="round" stroke-linejoin="round"/>
<path d="M13.105 37.0366C13.5923 36.7544 13.9476 36.2901 14.0926 35.7459C14.2376 35.2017 14.1605 34.6222 13.8783 34.1349C13.596 33.6476 13.1318 33.2923 12.5876 33.1473C12.0434 33.0023 11.4639 33.0794 10.9766 33.3616" stroke="#7FBE24" stroke-width="1.53125" stroke-linecap="round" stroke-linejoin="round"/>
<path d="M13.0432 37.0748L12.002 37.672" stroke="#7FBE24" stroke-width="1.53125" stroke-linecap="round" stroke-linejoin="round"/>
<circle cx="14.207" cy="36.401" r="0.765625" stroke="#7FBE24" stroke-width="1.53125" stroke-linecap="round" stroke-linejoin="round"/>
<path d="M14.207 36.4009C14.6404 36.1505 15.1483 36.0614 15.641 36.1494C16.1337 36.2374 16.5794 36.4968 16.8993 36.8817C17.2192 37.2667 17.3926 37.7523 17.3889 38.2528C17.3852 38.7533 17.2046 39.2364 16.8791 39.6165" stroke="#7FBE24" stroke-width="1.53125" stroke-linecap="round" stroke-linejoin="round"/>
<path d="M16.8864 39.6168C16.7324 39.7996 16.5486 39.9549 16.3428 40.0762" stroke="#7FBE24" stroke-width="1.53125" stroke-linecap="round" stroke-linejoin="round"/>
<path d="M19.9492 42.9011C20.3487 42.668 20.6607 42.3103 20.8373 41.8828" stroke="#7FBE24" stroke-width="1.53125" stroke-linecap="round" stroke-linejoin="round"/>
<path d="M17.8057 39.1956C18.1896 38.9711 18.6345 38.8735 19.0772 38.9166C19.5198 38.9597 19.9376 39.1413 20.271 39.4357C20.6044 39.7301 20.8364 40.1221 20.934 40.556C21.0316 40.9899 20.9898 41.4436 20.8146 41.8524" stroke="#7FBE24" stroke-width="1.53125" stroke-linecap="round" stroke-linejoin="round"/>
<circle cx="17.8057" cy="39.2263" r="0.765625" stroke="#7FBE24" stroke-width="1.53125" stroke-linecap="round" stroke-linejoin="round"/>
<path d="M21.2511 42.1355L20.9678 42.3039" stroke="#7FBE24" stroke-width="1.53125" stroke-linecap="round" stroke-linejoin="round"/>
<path d="M19.9258 42.9013L20.967 42.3041" stroke="#7FBE24" stroke-width="1.53125" stroke-linecap="round" stroke-linejoin="round"/>
<path d="M23.0498 46.0022L23.0804 45.9792" stroke="#7FBE24" stroke-width="1.53125" stroke-linecap="round" stroke-linejoin="round"/>
<path d="M23.0811 45.9789L23.8926 45.5195" stroke="#7FBE24" stroke-width="1.53125" stroke-linecap="round" stroke-linejoin="round"/>
<path d="M24.88 44.2256C24.9887 43.8198 24.9744 43.3908 24.8389 42.9932C24.7034 42.5955 24.4529 42.247 24.1191 41.9919C23.7853 41.7368 23.3832 41.5867 22.9639 41.5604C22.5446 41.5342 22.127 41.633 21.7639 41.8445L21.251 42.1355" stroke="#7FBE24" stroke-width="1.53125" stroke-linecap="round" stroke-linejoin="round"/>
<path d="M23.8926 45.5121C24.3792 45.2311 24.7344 44.7685 24.8802 44.2258" stroke="#7FBE24" stroke-width="1.53125" stroke-linecap="round" stroke-linejoin="round"/>
<path d="M22.79 46.1548L23.0504 46.0017" stroke="#7FBE24" stroke-width="1.53125" stroke-linecap="round" stroke-linejoin="round"/>
<path d="M17.8052 39.2263L17.0625 39.6551" stroke="#7FBE24" stroke-width="1.53125" stroke-linecap="round" stroke-linejoin="round"/>
<path d="M18.1732 39.0194L17.8057 39.2261" stroke="#7FBE24" stroke-width="1.53125" stroke-linecap="round" stroke-linejoin="round"/>
<path d="M14.2067 36.401L13.4717 36.8298" stroke="#7FBE24" stroke-width="1.53125" stroke-linecap="round" stroke-linejoin="round"/>
<path d="M14.5745 36.1868L14.207 36.4011" stroke="#7FBE24" stroke-width="1.53125" stroke-linecap="round" stroke-linejoin="round"/>
</svg>
