<svg width="183" height="67" viewBox="0 0 183 67" fill="none" xmlns="http://www.w3.org/2000/svg">
<g clip-path="url(#clip0_3_75)">
<path d="M9.74677 49.3257H4.01878L2.92654 51.973H0.00834656L5.50706 39.629H8.32937L13.8448 51.973H10.8474L9.74677 49.3257ZM8.85047 47.1579L6.89111 42.4347L4.93592 47.1579H8.85047Z" fill="#00783B"/>
<path d="M23.7666 51.973L21.3862 48.5337H18.7598V51.973H15.9042V39.629H21.2445C24.542 39.629 26.6014 41.3382 26.6014 44.1064C26.6353 44.9392 26.409 45.762 25.9541 46.4605C25.4992 47.159 24.8381 47.6985 24.0626 48.0042L26.8307 51.973H23.7666ZM21.086 41.9677H18.7598V46.2575H21.086C22.8286 46.2575 23.7124 45.4487 23.7124 44.1064C23.7124 42.764 22.8286 41.9594 21.086 41.9594V41.9677Z" fill="#00783B"/>
<path d="M32.0168 41.9594H28.0689V39.629H38.8245V41.9594H34.8724V51.9646H32.0168V41.9594Z" fill="#00783B"/>
<path d="M41.134 39.629H43.973V51.973H41.1174L41.134 39.629Z" fill="#00783B"/>
<path d="M50.5473 41.9219V45.1819H56.2586V47.4748H50.5473V51.973H47.6917V39.629H57.0174V41.9219H50.5473Z" fill="#00783B"/>
<path d="M59.7354 39.629H62.5911V51.973H59.7354V39.629Z" fill="#00783B"/>
<path d="M65.5176 45.7989C65.5176 42.0803 68.3733 39.4206 72.217 39.4206C74.3514 39.4206 76.1315 40.196 77.2946 41.6051L75.4603 43.2976C75.0836 42.8408 74.6097 42.4739 74.0731 42.2236C73.5365 41.9734 72.9508 41.846 72.3587 41.851C71.3084 41.851 70.301 42.2683 69.5583 43.011C68.8156 43.7537 68.3983 44.7611 68.3983 45.8114C68.3983 46.8618 68.8156 47.8691 69.5583 48.6119C70.301 49.3546 71.3084 49.7718 72.3587 49.7718C72.9526 49.7775 73.54 49.6488 74.0771 49.3954C74.6142 49.142 75.0871 48.7705 75.4603 48.3086L77.2946 50.0011C76.1315 51.4269 74.3514 52.2023 72.2003 52.2023C68.3733 52.1814 65.5176 49.5217 65.5176 45.7989Z" fill="#00783B"/>
<path d="M79.9919 39.629H82.8476V51.973H79.9919V39.629Z" fill="#00783B"/>
<path d="M94.6788 49.3257H88.9508L87.8543 51.973H84.9361L90.439 39.629H93.2613L98.7767 51.973H95.7793L94.6788 49.3257ZM93.7783 47.1579L91.8231 42.4347L89.8679 47.1579H93.7783Z" fill="#00783B"/>
<path d="M100.832 39.629H103.688V49.6342H109.878V51.9646H100.832V39.629Z" fill="#00783B"/>
<path d="M126.362 45.6071H128.972V50.6098C127.51 51.6445 125.76 52.1929 123.969 52.1773C120.092 52.1773 117.236 49.5175 117.236 45.7947C117.236 42.072 120.092 39.4164 124.023 39.4164C126.191 39.4164 127.988 40.1543 129.188 41.5467L127.354 43.2392C126.954 42.7911 126.462 42.4347 125.912 42.1944C125.361 41.954 124.766 41.8355 124.165 41.8468C121.768 41.8468 120.125 43.4519 120.125 45.7947C120.125 48.1376 121.768 49.7468 124.127 49.7468C124.901 49.7628 125.666 49.5805 126.349 49.2174L126.362 45.6071Z" fill="#00783B"/>
<path d="M140.273 51.973L137.893 48.5337H135.271V51.973H132.394V39.629H137.735C141.032 39.629 143.096 41.3382 143.096 44.1064C143.13 44.9392 142.903 45.762 142.448 46.4605C141.994 47.159 141.332 47.6985 140.557 48.0042L143.325 51.973H140.273ZM137.593 41.9677H135.271V46.2575H137.597C139.344 46.2575 140.223 45.4487 140.223 44.1064C140.223 42.764 139.323 41.9594 137.576 41.9594L137.593 41.9677Z" fill="#00783B"/>
<path d="M154.256 49.3257H148.528L147.431 51.973H144.513L150.016 39.629H152.834L158.354 51.973H155.356L154.256 49.3257ZM153.355 47.1579L151.4 42.4347L149.445 47.1579H153.355Z" fill="#00783B"/>
<path d="M159.45 50.7557L160.417 48.6046C161.615 49.4326 163.034 49.8814 164.49 49.8927C166.183 49.8927 166.871 49.3258 166.871 48.567C166.871 46.2575 159.696 47.8458 159.696 43.2601C159.696 41.1757 161.389 39.4206 164.895 39.4206C166.396 39.3879 167.878 39.7655 169.18 40.5128L168.301 42.6806C167.263 42.0653 166.084 41.7306 164.878 41.7093C163.185 41.7093 162.535 42.3471 162.535 43.1225C162.535 45.3945 169.71 43.8271 169.71 48.3586C169.71 50.418 168 52.1815 164.474 52.1815C162.51 52.1815 160.534 51.602 159.45 50.7557Z" fill="#00783B"/>
<path d="M171.465 50.7557L172.436 48.6045C173.633 49.4337 175.053 49.8827 176.509 49.8927C178.202 49.8927 178.885 49.3257 178.885 48.567C178.885 46.2575 171.711 47.8458 171.711 43.2601C171.711 41.1757 173.403 39.4206 176.913 39.4206C178.415 39.3885 179.896 39.7661 181.199 40.5128L180.315 42.6806C179.279 42.0658 178.101 41.7311 176.897 41.7093C175.204 41.7093 174.55 42.3471 174.55 43.1225C174.55 45.3945 181.724 43.827 181.724 48.3586C181.724 50.418 180.015 52.1814 176.488 52.1814C174.533 52.1814 172.557 51.6019 171.465 50.7557Z" fill="#00783B"/>
<path d="M0.616997 30.8536V0.454346H26.343V6.57839H7.43307V12.5232H25.6718V18.6055H7.43307V24.7296H26.3513V30.8536H0.616997Z" fill="#7FBE24"/>
<path d="M29.4404 30.8536V0.454346H36.244V24.7296H54.3493V30.8536H29.4404Z" fill="#7FBE24"/>
<path d="M58.3639 30.8536V0.454346H74.243C81.2801 0.454346 85.8158 4.44393 85.8158 11.4351C85.8158 18.4263 81.2801 22.4617 74.243 22.4617H65.1675V30.8536H58.3639ZM65.1675 6.57839V16.3335H73.5052C77.2571 16.3335 79.0414 15.2454 79.0414 11.4351C79.0414 7.71231 77.2738 6.57839 73.5052 6.57839H65.1675Z" fill="#00783B"/>
<path d="M120.15 20.5982V20.3272H126.958V21.161C126.958 23.975 128.363 25.1089 134.533 25.1089C139.982 25.1089 141.249 24.2751 141.249 22.2491C141.249 20.3898 140.207 19.7103 137.08 19.1641L128.546 17.9093C123.098 17.0464 119.879 14.3241 119.879 9.37984C119.879 4.79411 123.598 -0.0125732 133.808 -0.0125732C143.158 -0.0125732 147.511 4.29802 147.511 10.6972V10.9682H140.661V10.3345C140.661 7.41631 139.165 6.20318 133.128 6.20318C128.225 6.20318 126.729 7.15785 126.729 9.12138C126.729 10.889 127.729 11.5268 130.268 11.977L138.802 13.3236C145.605 14.4116 148.057 17.7259 148.057 21.8989C148.057 26.8473 144.201 31.2913 134.533 31.2913C125.324 31.308 120.15 27.6811 120.15 20.5982Z" fill="#00783B"/>
<path d="M150.145 15.6539C150.145 6.1698 156.399 -9.15527e-05 166.483 -9.15527e-05C176.78 -9.15527e-05 182.996 6.1698 182.996 15.6539C182.996 25.1381 176.78 31.308 166.483 31.308C156.407 31.308 150.145 25.1381 150.145 15.6539ZM175.738 15.6539C175.738 8.89206 173.149 6.53249 166.483 6.53249C159.817 6.53249 157.366 8.89206 157.366 15.6539C157.366 22.4158 159.813 24.7754 166.487 24.7754C173.162 24.7754 175.738 22.4158 175.738 15.6539Z" fill="#00783B"/>
<path d="M102.725 9.64245L101.474 6.64921H100.978L98.8351 11.7185L98.7934 11.7435C94.6312 14.1883 90.8149 17.1789 87.4458 20.6357L96.3421 0.429291H106.064L108.982 7.07444C106.847 7.80562 104.758 8.66314 102.725 9.64245Z" fill="#00783B"/>
<path d="M111.984 14.0156L119.346 30.8536H111.717L106.343 18.1761C108.139 16.6786 110.023 15.2893 111.984 14.0156Z" fill="#00783B"/>
<path d="M100.207 14.1865C105.538 11.0861 111.348 8.89522 117.399 7.70398C110.01 10.8766 103.424 15.661 98.1222 21.7071C97.2634 22.691 96.4839 23.6748 95.7543 24.6462C99.2561 23.6248 103.079 23.7666 106.593 24.5545C103.215 24.5567 99.8751 25.2668 96.7882 26.6389C94.8006 27.5427 93.0855 28.953 91.8147 30.7285L91.7522 30.8411H82.9268C87.2578 23.9761 93.1867 18.2618 100.207 14.1865Z" fill="#7FBE24"/>
<path d="M64.9215 65.826L65.4926 64.5754C66.1967 65.0646 67.0324 65.3291 67.8897 65.3341C68.8861 65.3341 69.2946 65.0006 69.2946 64.5546C69.2946 63.1955 65.0632 64.1377 65.0632 61.4279C65.0632 60.1773 66.0638 59.1642 68.1315 59.1642C69.0149 59.1458 69.8866 59.3677 70.6537 59.8062L70.1326 61.0861C69.5223 60.7243 68.8284 60.5274 68.119 60.5149C67.1227 60.5149 66.7391 60.8901 66.7391 61.3487C66.7391 62.6911 70.9663 61.7656 70.9663 64.4336C70.9663 65.6509 69.9575 66.689 67.8814 66.689C66.8299 66.7097 65.7971 66.4086 64.9215 65.826Z" fill="#00783B"/>
<path d="M74.3639 63.3498V59.2768H76.0315V63.2873C76.0315 64.6671 76.6318 65.2383 77.649 65.2383C78.6662 65.2383 79.2707 64.6671 79.2707 63.2873V59.2768H80.9382V63.3498C80.9382 65.4884 79.7126 66.6849 77.6448 66.6849C75.5771 66.6849 74.3639 65.4843 74.3639 63.3498Z" fill="#00783B"/>
<path d="M91.2269 61.9115C91.2269 63.5332 90.0096 64.5379 88.0669 64.5379H86.6037V66.5431H84.9361V59.2726H88.0836C90.0096 59.2726 91.2269 60.2815 91.2269 61.9115ZM89.5219 61.9115C89.5219 61.1111 89.0008 60.6609 87.9752 60.6609H86.6037V63.1622H87.9752C88.9966 63.1663 89.5219 62.6994 89.5219 61.9115Z" fill="#00783B"/>
<path d="M101.032 61.9115C101.032 63.5332 99.8189 64.5379 97.8763 64.5379H96.4088V66.5431H94.7413V59.2726H97.8888C99.8356 59.2726 101.032 60.2815 101.032 61.9115ZM99.3312 61.9115C99.3312 61.1111 98.8101 60.6609 97.7804 60.6609H96.4088V63.1622H97.7804C98.8101 63.1663 99.3312 62.6994 99.3312 61.9115Z" fill="#00783B"/>
<path d="M104.534 59.2726H106.201V65.1716H109.849V66.5431H104.534V59.2726Z" fill="#00783B"/>
<path d="M115.861 63.9668V66.5431H114.193V63.9459L111.379 59.2726H113.168L115.106 62.5035L117.049 59.2726H118.716L115.861 63.9668Z" fill="#00783B"/>
<path d="M57.0299 63.5791L37.282 63.0663L57.0299 62.5494V63.5791Z" fill="#00783B"/>
<path d="M125.97 63.5791L145.718 63.0663L125.97 62.5494V63.5791Z" fill="#00783B"/>
</g>
<defs>
<clipPath id="clip0_3_75">
<rect width="183" height="66.6683" fill="white"/>
</clipPath>
</defs>
</svg>
