<svg width="140" height="52" viewBox="0 0 140 52" fill="none" xmlns="http://www.w3.org/2000/svg">
<g clip-path="url(#clip0_62_1224)">
<path d="M7.45654 38.2464H3.07447L2.23888 40.2716H0.00637817L4.21304 30.8281H6.37219L10.5916 40.2716H8.29852L7.45654 38.2464ZM6.77085 36.588L5.27188 32.9745L3.7761 36.588H6.77085Z" fill="white"/>
<path d="M18.1821 40.2716L16.361 37.6405H14.3518V40.2716H12.1671V30.8281H16.2526C18.7753 30.8281 20.3508 32.1357 20.3508 34.2534C20.3767 34.8906 20.2036 35.52 19.8556 36.0544C19.5076 36.5887 19.0018 37.0015 18.4086 37.2354L20.5262 40.2716H18.1821ZM16.1314 32.6173H14.3518V35.8991H16.1314C17.4645 35.8991 18.1407 35.2804 18.1407 34.2534C18.1407 33.2265 17.4645 32.6109 16.1314 32.6109V32.6173Z" fill="white"/>
<path d="M24.4937 32.6109H21.4734V30.8281H29.7018V32.6109H26.6784V40.2652H24.4937V32.6109Z" fill="white"/>
<path d="M31.4687 30.8281H33.6406V40.2716H31.4559L31.4687 30.8281Z" fill="white"/>
<path d="M38.6701 32.5822V35.0763H43.0394V36.8304H38.6701V40.2716H36.4854V30.8281H43.6198V32.5822H38.6701Z" fill="white"/>
<path d="M45.6992 30.8281H47.8839V40.2716H45.6992V30.8281Z" fill="white"/>
<path d="M50.1228 35.5481C50.1228 32.7032 52.3074 30.6685 55.248 30.6685C56.8809 30.6685 58.2427 31.2617 59.1325 32.3397L57.7292 33.6345C57.441 33.285 57.0784 33.0043 56.6679 32.8129C56.2574 32.6214 55.8093 32.524 55.3564 32.5278C54.5528 32.5278 53.7822 32.847 53.214 33.4152C52.6458 33.9834 52.3266 34.7541 52.3266 35.5576C52.3266 36.3612 52.6458 37.1318 53.214 37.7C53.7822 38.2682 54.5528 38.5875 55.3564 38.5875C55.8107 38.5918 56.2601 38.4933 56.671 38.2995C57.0819 38.1056 57.4437 37.8214 57.7292 37.468L59.1325 38.7629C58.2427 39.8536 56.8809 40.4468 55.2352 40.4468C52.3074 40.4309 50.1228 38.3961 50.1228 35.5481Z" fill="white"/>
<path d="M61.196 30.8281H63.3806V40.2716H61.196V30.8281Z" fill="white"/>
<path d="M72.4318 38.2464H68.0498L67.211 40.2716H64.9785L69.1883 30.8281H71.3475L75.5669 40.2716H73.2738L72.4318 38.2464ZM71.743 36.588L70.2472 32.9745L68.7514 36.588H71.743Z" fill="white"/>
<path d="M77.1392 30.8281H79.3239V38.4824H84.06V40.2652H77.1392V30.8281Z" fill="white"/>
<path d="M96.6704 35.4016H98.6669V39.2287C97.5487 40.0203 96.2097 40.4399 94.8397 40.4279C91.8737 40.4279 89.689 38.3932 89.689 35.5451C89.689 32.6971 91.8737 30.6655 94.8812 30.6655C96.5396 30.6655 97.9142 31.23 98.8327 32.2952L97.4294 33.5901C97.1235 33.2473 96.7471 32.9746 96.326 32.7907C95.9049 32.6069 95.449 32.5162 94.9896 32.5249C93.1558 32.5249 91.8992 33.7528 91.8992 35.5451C91.8992 37.3375 93.1558 38.5686 94.9609 38.5686C95.5528 38.5808 96.138 38.4413 96.6608 38.1635L96.6704 35.4016Z" fill="white"/>
<path d="M107.313 40.2716L105.492 37.6405H103.486V40.2716H101.285V30.8281H105.371C107.893 30.8281 109.472 32.1357 109.472 34.2534C109.498 34.8906 109.325 35.52 108.977 36.0544C108.629 36.5887 108.123 37.0015 107.53 37.2354L109.648 40.2716H107.313ZM105.262 32.6173H103.486V35.8991H105.266C106.602 35.8991 107.275 35.2804 107.275 34.2534C107.275 33.2265 106.586 32.6109 105.25 32.6109L105.262 32.6173Z" fill="white"/>
<path d="M118.01 38.2464H113.628L112.789 40.2716H110.557L114.766 30.8281H116.922L121.145 40.2716H118.852L118.01 38.2464ZM117.321 36.588L115.825 32.9745L114.329 36.588H117.321Z" fill="white"/>
<path d="M121.984 39.3402L122.724 37.6945C123.64 38.328 124.726 38.6713 125.84 38.68C127.134 38.68 127.661 38.2462 127.661 37.6658C127.661 35.8989 122.172 37.114 122.172 33.6058C122.172 32.0112 123.467 30.6685 126.149 30.6685C127.297 30.6435 128.431 30.9324 129.428 31.5041L128.755 33.1625C127.961 32.6918 127.059 32.4357 126.136 32.4194C124.841 32.4194 124.344 32.9074 124.344 33.5006C124.344 35.2387 129.833 34.0396 129.833 37.5063C129.833 39.0818 128.525 40.4309 125.827 40.4309C124.325 40.4309 122.813 39.9876 121.984 39.3402Z" fill="white"/>
<path d="M131.175 39.3401L131.918 37.6944C132.834 38.3288 133.92 38.6722 135.034 38.6799C136.329 38.6799 136.852 38.2462 136.852 37.6657C136.852 35.8989 131.363 37.114 131.363 33.6058C131.363 32.0111 132.658 30.6684 135.344 30.6684C136.492 30.6439 137.626 30.9328 138.622 31.504L137.946 33.1625C137.154 32.6921 136.252 32.4361 135.331 32.4194C134.036 32.4194 133.535 32.9073 133.535 33.5005C133.535 35.2387 139.024 34.0395 139.024 37.5063C139.024 39.0818 137.716 40.4309 135.018 40.4309C133.523 40.4309 132.011 39.9875 131.175 39.3401Z" fill="white"/>
<path d="M0.472015 24.1151V0.858887H20.1531V5.54395H5.6865V10.0919H19.6396V14.745H5.6865V19.4301H20.1595V24.1151H0.472015Z" fill="white"/>
<path d="M22.5227 24.1151V0.858887H27.7276V19.4301H41.5787V24.1151H22.5227Z" fill="white"/>
<path d="M44.65 24.1151V0.858887H56.7979C62.1815 0.858887 65.6514 3.91103 65.6514 9.25946C65.6514 14.6079 62.1815 17.6951 56.7979 17.6951H49.8549V24.1151H44.65ZM49.8549 5.54395V13.0069H56.2334C59.1038 13.0069 60.4688 12.1745 60.4688 9.25946C60.4688 6.41143 59.1166 5.54395 56.2334 5.54395H49.8549Z" fill="white"/>
<path d="M91.9184 16.2688V16.0615H97.1265V16.6993C97.1265 18.8521 98.2012 19.7196 102.921 19.7196C107.09 19.7196 108.059 19.0817 108.059 17.5318C108.059 16.1093 107.262 15.5895 104.87 15.1717L98.3416 14.2117C94.1732 13.5515 91.7111 11.4689 91.7111 7.68643C91.7111 4.17822 94.5559 0.500977 102.366 0.500977C109.52 0.500977 112.85 3.7987 112.85 8.69425V8.90155H107.61V8.41677C107.61 6.18427 106.465 5.2562 101.847 5.2562C98.096 5.2562 96.9511 5.98655 96.9511 7.4887C96.9511 8.84095 97.7165 9.32891 99.6588 9.67335L106.187 10.7035C111.392 11.5359 113.267 14.0714 113.267 17.2639C113.267 21.0495 110.317 24.4493 102.921 24.4493C95.8763 24.4621 91.9184 21.6874 91.9184 16.2688Z" fill="white"/>
<path d="M114.865 12.4865C114.865 5.23088 119.649 0.510742 127.364 0.510742C135.242 0.510742 139.997 5.23088 139.997 12.4865C139.997 19.7421 135.242 24.4623 127.364 24.4623C119.656 24.4623 114.865 19.7421 114.865 12.4865ZM134.444 12.4865C134.444 7.31348 132.464 5.50834 127.364 5.50834C122.264 5.50834 120.389 7.31348 120.389 12.4865C120.389 17.6595 122.261 19.4647 127.367 19.4647C132.473 19.4647 134.444 17.6595 134.444 12.4865Z" fill="white"/>
<path d="M78.5872 7.88768L77.6304 5.59776H77.2509L75.6116 9.47593L75.5797 9.49507C72.3955 11.3654 69.4759 13.6532 66.8984 16.2978L73.7044 0.839355H81.1418L83.3743 5.92308C81.741 6.48245 80.1425 7.13848 78.5872 7.88768Z" fill="white"/>
<path d="M85.6706 11.2334L91.3028 24.1149H85.4665L81.3555 14.4163C82.7294 13.2706 84.1703 12.2078 85.6706 11.2334Z" fill="white"/>
<path d="M76.6608 11.3641C80.7392 8.99217 85.1842 7.31611 89.8134 6.40479C84.1607 8.83194 79.122 12.4921 75.0662 17.1176C74.4092 17.8703 73.8128 18.6229 73.2546 19.366C75.9336 18.5847 78.8582 18.6931 81.5468 19.2959C78.9625 19.2976 76.4071 19.8408 74.0456 20.8905C72.525 21.5819 71.2129 22.6609 70.2408 24.0192L70.1929 24.1053H63.4412C66.7546 18.8534 71.2904 14.4818 76.6608 11.3641Z" fill="white"/>
<path d="M49.6667 50.8697L50.1036 49.913C50.6423 50.2872 51.2816 50.4896 51.9375 50.4934C52.6997 50.4934 53.0123 50.2383 53.0123 49.897C53.0123 48.8573 49.7752 49.5781 49.7752 47.505C49.7752 46.5483 50.5406 45.7733 52.1225 45.7733C52.7983 45.7592 53.4652 45.929 54.052 46.2644L53.6533 47.2435C53.1864 46.9667 52.6556 46.8162 52.1129 46.8066C51.3507 46.8066 51.0572 47.0936 51.0572 47.4445C51.0572 48.4714 54.2912 47.7634 54.2912 49.8045C54.2912 50.7358 53.5194 51.5299 51.9311 51.5299C51.1267 51.5457 50.3366 51.3154 49.6667 50.8697Z" fill="white"/>
<path d="M56.8904 48.9753V45.8594H58.1662V48.9275C58.1662 49.9831 58.6254 50.4201 59.4036 50.4201C60.1818 50.4201 60.6442 49.9831 60.6442 48.9275V45.8594H61.9199V48.9753C61.9199 50.6114 60.9823 51.5267 59.4004 51.5267C57.8185 51.5267 56.8904 50.6082 56.8904 48.9753Z" fill="white"/>
<path d="M69.7911 47.8748C69.7911 49.1154 68.8598 49.884 67.3736 49.884H66.2542V51.4181H64.9785V45.856H67.3864C68.8598 45.856 69.7911 46.6278 69.7911 47.8748ZM68.4867 47.8748C68.4867 47.2624 68.088 46.918 67.3035 46.918H66.2542V48.8316H67.3035C68.0848 48.8348 68.4867 48.4776 68.4867 47.8748Z" fill="white"/>
<path d="M77.2923 47.8748C77.2923 49.1154 76.3642 49.884 74.878 49.884H73.7554V51.4181H72.4797V45.856H74.8876C76.377 45.856 77.2923 46.6278 77.2923 47.8748ZM75.9911 47.8748C75.9911 47.2624 75.5924 46.918 74.8047 46.918H73.7554V48.8316H74.8047C75.5924 48.8348 75.9911 48.4776 75.9911 47.8748Z" fill="white"/>
<path d="M79.9713 45.856H81.247V50.3688H84.0376V51.4181H79.9713V45.856Z" fill="white"/>
<path d="M88.6366 49.4471V51.4181H87.3609V49.4312L85.2081 45.856H86.5763L88.0593 48.3277L89.5455 45.856H90.8212L88.6366 49.4471Z" fill="white"/>
<path d="M43.6294 49.1505L28.5218 48.7583L43.6294 48.3628V49.1505Z" fill="white"/>
<path d="M96.3706 49.1505L111.478 48.7583L96.3706 48.3628V49.1505Z" fill="white"/>
</g>
<defs>
<clipPath id="clip0_62_1224">
<rect width="140" height="51.003" fill="white" transform="translate(0 0.510742)"/>
</clipPath>
</defs>
</svg>
