<svg width="32" height="27" viewBox="0 0 32 27" fill="none" xmlns="http://www.w3.org/2000/svg">
<path d="M20.549 10.566C20.6312 10.6481 20.6964 10.7457 20.741 10.8531C20.7855 10.9605 20.8084 11.0756 20.8084 11.1919C20.8084 11.3081 20.7855 11.4232 20.741 11.5306C20.6964 11.638 20.6312 11.7356 20.549 11.8177L14.3566 18.01C14.2745 18.0923 14.1769 18.1575 14.0695 18.202C13.9621 18.2466 13.847 18.2695 13.7308 18.2695C13.6145 18.2695 13.4994 18.2466 13.392 18.202C13.2846 18.1575 13.1871 18.0923 13.1049 18.01L10.4511 15.3562C10.2851 15.1902 10.1918 14.9651 10.1918 14.7303C10.1918 14.4956 10.2851 14.2704 10.4511 14.1045C10.6171 13.9385 10.8422 13.8452 11.0769 13.8452C11.3117 13.8452 11.5368 13.9385 11.7028 14.1045L13.7308 16.1335L19.2972 10.566C19.3794 10.4837 19.4769 10.4185 19.5843 10.374C19.6917 10.3295 19.8068 10.3065 19.9231 10.3065C20.0393 10.3065 20.1544 10.3295 20.2618 10.374C20.3692 10.4185 20.4668 10.4837 20.549 10.566ZM27 13.8457C27 16.1202 26.3255 18.3436 25.0619 20.2348C23.7983 22.1259 22.0022 23.5999 19.9009 24.4703C17.7995 25.3407 15.4872 25.5685 13.2565 25.1247C11.0257 24.681 8.97658 23.5857 7.36828 21.9774C5.75997 20.3691 4.6647 18.32 4.22097 16.0892C3.77724 13.8585 4.00498 11.5462 4.87539 9.44484C5.7458 7.34349 7.21978 5.54744 9.11095 4.2838C11.0021 3.02017 13.2255 2.3457 15.5 2.3457C18.549 2.34892 21.4722 3.56156 23.6282 5.71753C25.7841 7.8735 26.9968 10.7967 27 13.8457ZM25.2308 13.8457C25.2308 11.9211 24.6601 10.0398 23.5908 8.43958C22.5216 6.83936 21.0019 5.59214 19.2238 4.85564C17.4457 4.11915 15.4892 3.92644 13.6016 4.30191C11.714 4.67737 9.98019 5.60414 8.61931 6.96501C7.25844 8.32588 6.33167 10.0597 5.95621 11.9473C5.58075 13.8349 5.77345 15.7914 6.50995 17.5695C7.24645 19.3476 8.49366 20.8673 10.0939 21.9365C11.6941 23.0058 13.5754 23.5765 15.5 23.5765C18.0799 23.5735 20.5532 22.5474 22.3775 20.7232C24.2017 18.8989 25.2278 16.4256 25.2308 13.8457Z" fill="#7FBE24"/>
</svg>
