<svg width="32" height="26" viewBox="0 0 32 26" fill="none" xmlns="http://www.w3.org/2000/svg">
<path d="M20.549 9.72029C20.6312 9.80245 20.6964 9.90001 20.741 10.0074C20.7855 10.1148 20.8084 10.2299 20.8084 10.3462C20.8084 10.4624 20.7855 10.5775 20.741 10.6849C20.6964 10.7923 20.6312 10.8899 20.549 10.972L14.3566 17.1643C14.2745 17.2466 14.1769 17.3118 14.0695 17.3563C13.9621 17.4009 13.847 17.4238 13.7308 17.4238C13.6145 17.4238 13.4994 17.4009 13.392 17.3563C13.2846 17.3118 13.1871 17.2466 13.1049 17.1643L10.4511 14.5105C10.2851 14.3445 10.1918 14.1194 10.1918 13.8846C10.1918 13.6499 10.2851 13.4247 10.4511 13.2588C10.6171 13.0928 10.8422 12.9995 11.0769 12.9995C11.3117 12.9995 11.5368 13.0928 11.7028 13.2588L13.7308 15.2878L19.2972 9.72029C19.3794 9.63804 19.4769 9.57279 19.5843 9.52828C19.6917 9.48376 19.8068 9.46084 19.9231 9.46084C20.0393 9.46084 20.1544 9.48376 20.2618 9.52828C20.3692 9.57279 20.4668 9.63804 20.549 9.72029ZM27 13C27 15.2745 26.3255 17.4979 25.0619 19.3891C23.7983 21.2802 22.0022 22.7542 19.9009 23.6246C17.7995 24.495 15.4872 24.7228 13.2565 24.279C11.0257 23.8353 8.97658 22.74 7.36828 21.1317C5.75997 19.5234 4.6647 17.4743 4.22097 15.2435C3.77724 13.0128 4.00498 10.7005 4.87539 8.59914C5.7458 6.49779 7.21978 4.70174 9.11095 3.4381C11.0021 2.17446 13.2255 1.5 15.5 1.5C18.549 1.50322 21.4722 2.71586 23.6282 4.87183C25.7841 7.0278 26.9968 9.951 27 13ZM25.2308 13C25.2308 11.0754 24.6601 9.19409 23.5908 7.59387C22.5216 5.99366 21.0019 4.74644 19.2238 4.00994C17.4457 3.27344 15.4892 3.08074 13.6016 3.45621C11.714 3.83167 9.98019 4.75844 8.61931 6.11931C7.25844 7.48018 6.33167 9.21404 5.95621 11.1016C5.58075 12.9892 5.77345 14.9457 6.50995 16.7238C7.24645 18.5019 8.49366 20.0216 10.0939 21.0908C11.6941 22.1601 13.5754 22.7308 15.5 22.7308C18.0799 22.7278 20.5532 21.7017 22.3775 19.8775C24.2017 18.0532 25.2278 15.5799 25.2308 13Z" fill="#7FBE24"/>
</svg>
