<svg width="24" height="24" viewBox="0 0 24 24" fill="none" xmlns="http://www.w3.org/2000/svg">
<path d="M12.0001 2.15H12C10.0519 2.15 8.14746 2.72769 6.52764 3.81002C4.90781 4.89236 3.64531 6.43072 2.89979 8.23057C2.15427 10.0304 1.9592 12.0109 2.33927 13.9216C2.71933 15.8324 3.65746 17.5875 5.035 18.965C6.41255 20.3425 8.16765 21.2807 10.0784 21.6607C11.9891 22.0408 13.9696 21.8457 15.7694 21.1002C17.5693 20.3547 19.1076 19.0922 20.19 17.4724C21.2723 15.8525 21.85 13.9481 21.85 12V11.9999C21.8472 9.38839 20.8086 6.88463 18.962 5.03801C17.1154 3.1914 14.6116 2.15276 12.0001 2.15ZM11.9999 20.15C10.388 20.15 8.81234 19.672 7.47211 18.7765C6.13185 17.8809 5.08724 16.6081 4.47039 15.1189C3.85353 13.6297 3.69213 11.991 4.0066 10.41C4.32107 8.82907 5.09729 7.37688 6.23708 6.23708C7.37688 5.09728 8.82907 4.32107 10.41 4.0066C11.991 3.69213 13.6297 3.85353 15.1189 4.47038C16.6081 5.08724 17.8809 6.13184 18.7765 7.4721C19.672 8.81233 20.15 10.388 20.15 11.9999C20.1476 14.1607 19.2881 16.2323 17.7602 17.7602C16.2323 19.2881 14.1607 20.1475 11.9999 20.15ZM15.0519 15.8019C15.5629 15.2908 15.85 14.5977 15.85 13.875C15.85 13.1523 15.5629 12.4592 15.0519 11.9481C14.5408 11.4371 13.8477 11.15 13.125 11.15H10.875C10.6032 11.15 10.3424 11.042 10.1502 10.8498C9.95799 10.6576 9.85 10.3968 9.85 10.125C9.85 9.85315 9.95799 9.59244 10.1502 9.40022C10.3424 9.20799 10.6032 9.1 10.875 9.1H14.25C14.4754 9.1 14.6916 9.01045 14.851 8.85104C15.0105 8.69163 15.1 8.47543 15.1 8.25C15.1 8.02457 15.0105 7.80837 14.851 7.64896C14.6916 7.48955 14.4754 7.4 14.25 7.4H12.85V6.75C12.85 6.52457 12.7605 6.30837 12.601 6.14896C12.4416 5.98955 12.2254 5.9 12 5.9C11.7746 5.9 11.5584 5.98955 11.399 6.14896C11.2396 6.30837 11.15 6.52457 11.15 6.75V7.4H10.875C10.1523 7.4 9.45918 7.6871 8.94814 8.19813C8.4371 8.70917 8.15 9.40229 8.15 10.125C8.15 10.8477 8.4371 11.5408 8.94814 12.0519C9.45918 12.5629 10.1523 12.85 10.875 12.85H13.125C13.3969 12.85 13.6576 12.958 13.8498 13.1502C14.042 13.3424 14.15 13.6032 14.15 13.875C14.15 14.1468 14.042 14.4076 13.8498 14.5998C13.6576 14.792 13.3969 14.9 13.125 14.9H9.75C9.52457 14.9 9.30837 14.9896 9.14896 15.149C8.98956 15.3084 8.9 15.5246 8.9 15.75C8.9 15.9754 8.98956 16.1916 9.14896 16.351C9.30837 16.5104 9.52457 16.6 9.75 16.6H11.15V17.25C11.15 17.4754 11.2396 17.6916 11.399 17.851C11.5584 18.0104 11.7746 18.1 12 18.1C12.2254 18.1 12.4416 18.0104 12.601 17.851C12.7605 17.6916 12.85 17.4754 12.85 17.25V16.6H13.125C13.8477 16.6 14.5408 16.3129 15.0519 15.8019Z" fill="white" stroke="white" stroke-width="0.2"/>
</svg>
