<svg width="62" height="43" viewBox="0 0 62 43" fill="none" xmlns="http://www.w3.org/2000/svg">
<rect y="0.668243" width="61.2342" height="41.9892" rx="5.24865" fill="white"/>
<rect x="0.247968" y="0.916211" width="60.7383" height="41.4933" rx="5.00068" stroke="#121312" stroke-opacity="0.2" stroke-width="0.495935"/>
<path fill-rule="evenodd" clip-rule="evenodd" d="M31.0538 30.6849C28.969 32.4841 26.2647 33.5702 23.3096 33.5702C16.7162 33.5702 11.3711 28.1631 11.3711 21.4931C11.3711 14.8231 16.7162 9.41595 23.3096 9.41595C26.2647 9.41595 28.969 10.5021 31.0538 12.3012C33.1385 10.5021 35.8429 9.41595 38.798 9.41595C45.3914 9.41595 50.7365 14.8231 50.7365 21.4931C50.7365 28.1631 45.3914 33.5702 38.798 33.5702C35.8429 33.5702 33.1385 32.4841 31.0538 30.6849Z" fill="#ED0006"/>
<path fill-rule="evenodd" clip-rule="evenodd" d="M31.0547 30.6849C33.6215 28.4698 35.2491 25.1737 35.2491 21.4931C35.2491 17.8124 33.6215 14.5164 31.0547 12.3012C33.1394 10.5021 35.8437 9.41595 38.7988 9.41595C45.3923 9.41595 50.7374 14.8231 50.7374 21.4931C50.7374 28.1631 45.3923 33.5702 38.7988 33.5702C35.8437 33.5702 33.1394 32.4841 31.0547 30.6849Z" fill="#F9A000"/>
<path fill-rule="evenodd" clip-rule="evenodd" d="M31.0537 30.6849C33.6205 28.4697 35.2481 25.1737 35.2481 21.4931C35.2481 17.8125 33.6205 14.5164 31.0537 12.3012C28.4869 14.5164 26.8594 17.8125 26.8594 21.4931C26.8594 25.1737 28.4869 28.4697 31.0537 30.6849Z" fill="#FF5E00"/>
</svg>
