<svg width="63" height="43" viewBox="0 0 63 43" fill="none" xmlns="http://www.w3.org/2000/svg">
<rect x="0.794922" y="0.668274" width="61.2342" height="41.9892" rx="5.24865" fill="white"/>
<rect x="1.04289" y="0.916242" width="60.7383" height="41.4933" rx="5.00068" stroke="#121312" stroke-opacity="0.2" stroke-width="0.495935"/>
<path fill-rule="evenodd" clip-rule="evenodd" d="M19.3844 29.1129H15.6748L12.8931 18.5003C12.761 18.0121 12.4807 17.5806 12.0683 17.3772C11.0392 16.866 9.90511 16.4592 8.66797 16.254V15.8454H14.6439C15.4686 15.8454 16.0872 16.4592 16.1903 17.172L17.6336 24.8272L21.3414 15.8454H24.9479L19.3844 29.1129ZM27.0092 29.1129H23.5058L26.3906 15.8454H29.8941L27.0092 29.1129ZM34.4284 19.5209C34.5315 18.8063 35.1501 18.3977 35.8717 18.3977C37.0058 18.2952 38.2411 18.5003 39.2721 19.0097L39.8906 16.1532C38.8597 15.7446 37.7256 15.5394 36.6965 15.5394C33.2962 15.5394 30.8219 17.3772 30.8219 19.9277C30.8219 21.868 32.5745 22.8868 33.8116 23.5006C35.1501 24.1126 35.6655 24.5212 35.5625 25.1332C35.5625 26.0512 34.5315 26.4597 33.5024 26.4597C32.2652 26.4597 31.0281 26.1537 29.8959 25.6426L29.2773 28.5009C30.5144 29.0103 31.8528 29.2155 33.09 29.2155C36.9027 29.3163 39.2721 27.4803 39.2721 24.7246C39.2721 21.2543 34.4284 21.0509 34.4284 19.5209ZM51.5319 29.1129L48.7501 15.8454H45.7622C45.1436 15.8454 44.525 16.254 44.3188 16.866L39.1677 29.1129H42.7742L43.4941 27.1743H47.9254L48.3377 29.1129H51.5319ZM46.2776 19.4183L47.3067 24.4186H44.4219L46.2776 19.4183Z" fill="#172B85"/>
</svg>
