<svg width="62" height="43" viewBox="0 0 62 43" fill="none" xmlns="http://www.w3.org/2000/svg">
<rect x="0.587891" y="0.668274" width="61.2342" height="41.9892" rx="5.24865" fill="#1F72CD"/>
<rect x="0.835858" y="0.916242" width="60.7383" height="41.4933" rx="5.00068" stroke="#121312" stroke-opacity="0.2" stroke-width="0.495935"/>
<path fill-rule="evenodd" clip-rule="evenodd" d="M11.5651 15.5393L5.83594 28.2179H12.6946L13.5449 26.1964H15.4884L16.3387 28.2179H23.8881V26.675L24.5608 28.2179H28.466L29.1387 26.6424V28.2179H44.8395L46.7487 26.2489L48.5363 28.2179L56.6006 28.2342L50.8533 21.914L56.6006 15.5393H48.6614L46.803 17.4719L45.0716 15.5393H27.9912L26.5245 18.8118L25.0234 15.5393H18.179V17.0297L17.4176 15.5393H11.5651ZM35.0117 17.3397H44.0279L46.7855 20.3184L49.632 17.3397H52.3896L48.1997 21.9122L52.3896 26.432H49.5069L46.7493 23.4187L43.8883 26.432H35.0117V17.3397ZM37.2383 20.8841V19.2233V19.2217H42.8641L45.3189 21.8778L42.7553 24.5483H37.2383V22.7352H42.157V20.8841H37.2383ZM12.8925 17.3397H16.2357L20.0359 25.9371V17.3397H23.6983L26.6335 23.504L29.3386 17.3397H32.9827V26.4374H30.7653L30.7472 19.3085L27.5146 26.4374H25.5311L22.2803 19.3085V26.4374H17.7187L16.8539 24.3978H12.1818L11.3188 26.4356H8.87478L12.8925 17.3397ZM12.9805 22.5123L14.5197 18.879L16.0572 22.5123H12.9805Z" fill="white"/>
</svg>
