<svg width="62" height="43" viewBox="0 0 62 43" fill="none" xmlns="http://www.w3.org/2000/svg">
<rect x="0.382812" y="0.668152" width="61.2342" height="41.9892" rx="5.24865" fill="white"/>
<rect x="0.63078" y="0.91612" width="60.7383" height="41.4933" rx="5.00068" stroke="#121312" stroke-opacity="0.2" stroke-width="0.495935"/>
<path d="M26.1602 41.7826L60.7138 31.7227V37.4087C60.7138 39.8243 58.7555 41.7826 56.3399 41.7826H26.1602Z" fill="#FD6020"/>
<path fill-rule="evenodd" clip-rule="evenodd" d="M54.1554 17.4828C56.0564 17.4828 57.102 18.3287 57.102 19.9267C57.197 21.1487 56.3416 22.1827 55.201 22.3707L57.7673 25.8486H55.7713L53.5852 22.4646H53.3951V25.8486H51.7792V17.4828H54.1554ZM53.3946 21.3367H53.8698C54.9154 21.3367 55.3906 20.8667 55.3906 20.0207C55.3906 19.2688 54.9154 18.7988 53.8698 18.7988H53.3946V21.3367ZM46.1716 25.8486H50.734V24.4386H47.7875V22.1826H50.6389V20.7727H47.7875V18.8927H50.734V17.4827H46.1716V25.8486ZM41.4204 23.1226L39.2342 17.4827H37.5234L41.0402 26.0365H41.8956L45.4124 17.4827H43.7016L41.4204 23.1226ZM22.1249 21.7126C22.1249 24.0626 24.0259 26.0366 26.4021 26.0366C27.1625 26.0366 27.8279 25.8486 28.4932 25.5666V23.6866C28.018 24.2506 27.3526 24.6266 26.5922 24.6266C25.0714 24.6266 23.8358 23.4986 23.8358 21.9946V21.8066C23.7408 20.3027 24.9764 18.9867 26.4972 18.8927C27.2576 18.8927 28.018 19.2687 28.4932 19.8327V17.9527C27.9229 17.5767 27.1625 17.4827 26.4972 17.4827C24.0259 17.2947 22.1249 19.2687 22.1249 21.7126ZM19.1769 20.6787C18.2264 20.3027 17.9413 20.1147 17.9413 19.6447C18.0363 19.0807 18.5116 18.6107 19.0819 18.7047C19.5571 18.7047 20.0323 18.9867 20.4125 19.3627L21.268 18.2347C20.6026 17.6707 19.7472 17.2948 18.8918 17.2948C17.5611 17.2008 16.4205 18.2347 16.3254 19.5507V19.6447C16.3254 20.7727 16.8007 21.4307 18.3215 21.9007C18.7017 21.9947 19.0819 22.1827 19.4621 22.3706C19.7472 22.5586 19.9373 22.8406 19.9373 23.2166C19.9373 23.8746 19.367 24.4386 18.7967 24.4386H18.7017C17.9413 24.4386 17.2759 23.9686 16.9908 23.3106L15.9452 24.3446C16.5155 25.3786 17.6561 25.9426 18.7967 25.9426C20.3175 26.0366 21.5531 24.9086 21.6482 23.4046V23.1226C21.5531 21.9947 21.0779 21.4307 19.1769 20.6787ZM13.664 25.8485H15.2798V17.4827H13.664V25.8485ZM6.15625 17.4828H8.53248H9.00773C11.2889 17.5768 13.0948 19.4567 12.9998 21.7127C12.9998 22.9346 12.4295 24.0626 11.479 24.9086C10.6236 25.5666 9.57802 25.9426 8.53248 25.8486H6.15625V17.4828ZM8.24692 24.4386C9.00732 24.5326 9.86276 24.2506 10.4331 23.7806C11.0033 23.2166 11.2885 22.4646 11.2885 21.6187C11.2885 20.8667 11.0033 20.1147 10.4331 19.5507C9.86276 19.0807 9.00732 18.7987 8.24692 18.8927H7.77168V24.4386H8.24692Z" fill="black"/>
<path fill-rule="evenodd" clip-rule="evenodd" d="M33.3391 17.2888C30.9628 17.2888 28.9668 19.1688 28.9668 21.6128C28.9668 23.9627 30.8678 25.9367 33.3391 26.0307C35.8103 26.1247 37.7113 24.1507 37.8064 21.7068C37.7113 19.2628 35.8103 17.2888 33.3391 17.2888V17.2888Z" fill="#FD6020"/>
</svg>
