<svg width="62" height="43" viewBox="0 0 62 43" fill="none" xmlns="http://www.w3.org/2000/svg">
<rect x="0.177734" y="0.668243" width="61.2342" height="41.9892" rx="5.24865" fill="#5A31F4"/>
<rect x="0.425702" y="0.916211" width="60.7383" height="41.4933" rx="5.00068" stroke="#121312" stroke-opacity="0.2" stroke-width="0.495935"/>
<path d="M34.6497 20.0205C34.6497 22.7149 32.7607 24.6384 30.1208 24.6384H27.6338C27.6063 24.6384 27.5791 24.6438 27.5538 24.6544C27.5284 24.6649 27.5054 24.6804 27.486 24.6998C27.4666 24.7193 27.4513 24.7424 27.4409 24.7678C27.4305 24.7932 27.4252 24.8204 27.4253 24.8479V28.3892C27.4253 28.4446 27.4034 28.4977 27.3643 28.537C27.3253 28.5762 27.2723 28.5984 27.2169 28.5987H25.4766C25.4352 28.5985 25.3948 28.5861 25.3604 28.5631C25.326 28.54 25.2992 28.5074 25.2833 28.4692C25.2728 28.4442 25.2673 28.4174 25.2671 28.3903V15.6109C25.267 15.5835 25.2723 15.5563 25.2827 15.5309C25.2931 15.5055 25.3084 15.4824 25.3278 15.4629C25.3472 15.4434 25.3702 15.428 25.3955 15.4175C25.4209 15.4069 25.4481 15.4015 25.4755 15.4015H30.132C32.7607 15.3985 34.6497 17.3219 34.6497 20.0205ZM32.4794 20.0205C32.4794 18.4714 31.423 17.3391 29.9903 17.3391H27.6338C27.6063 17.3391 27.5791 17.3446 27.5538 17.3551C27.5284 17.3656 27.5054 17.3811 27.486 17.4005C27.4666 17.42 27.4513 17.4431 27.4409 17.4685C27.4305 17.4939 27.4252 17.5211 27.4253 17.5486V22.4802C27.4253 22.5355 27.4473 22.5885 27.4864 22.6276C27.5255 22.6667 27.5785 22.6886 27.6338 22.6886H29.9903C31.423 22.6988 32.4794 21.5655 32.4794 20.0205ZM35.1658 26.147C35.1477 25.7338 35.2332 25.3226 35.4145 24.9508C35.5958 24.579 35.8672 24.2584 36.2039 24.0182C36.8828 23.5072 37.9442 23.2431 39.5024 23.1885L41.1618 23.1298V22.6401C41.1618 21.6586 40.5041 21.2438 39.4478 21.2438C38.3915 21.2438 37.7216 21.6181 37.5678 22.2303C37.5553 22.2733 37.5288 22.311 37.4926 22.3374C37.4563 22.3637 37.4123 22.3773 37.3675 22.376H35.7283C35.6982 22.3768 35.6682 22.371 35.6405 22.3589C35.6128 22.3468 35.5882 22.3288 35.5683 22.3061C35.5484 22.2834 35.5337 22.2565 35.5254 22.2275C35.517 22.1985 35.5151 22.168 35.5199 22.1382C35.7627 20.6873 36.9698 19.5844 39.5227 19.5844C42.2384 19.5844 43.2189 20.8491 43.2189 23.2634V28.3892C43.2183 28.4452 43.1957 28.4986 43.1558 28.5378C43.116 28.5771 43.0623 28.599 43.0064 28.5987H41.3541C41.2988 28.5985 41.2458 28.5768 41.2063 28.538C41.187 28.5186 41.1717 28.4955 41.1613 28.4702C41.1509 28.4448 41.1455 28.4177 41.1456 28.3903V28.0068C41.1462 27.9751 41.1372 27.944 41.1198 27.9175C41.1023 27.891 41.0773 27.8705 41.0479 27.8585C41.0186 27.8466 40.9863 27.8438 40.9553 27.8506C40.9243 27.8574 40.8962 27.8734 40.8745 27.8965C40.3787 28.4358 39.5783 28.8253 38.2963 28.8253C36.4103 28.8253 35.1658 27.8439 35.1658 26.147ZM41.1618 25.0361V24.6384L39.0127 24.7517C37.8805 24.8094 37.2218 25.2799 37.2218 26.0722C37.2218 26.7885 37.8258 27.1852 38.8812 27.1852C40.3149 27.1852 41.1618 26.4111 41.1618 25.0361ZM44.8782 32.4719V30.9866C44.8786 30.9554 44.8857 30.9247 44.8992 30.8967C44.9127 30.8686 44.9322 30.8438 44.9564 30.8241C44.9805 30.8044 45.0087 30.7903 45.0389 30.7827C45.0691 30.7751 45.1006 30.7742 45.1312 30.7802C45.3842 30.8277 45.6422 30.852 45.9002 30.853C46.3438 30.8746 46.7817 30.7468 47.144 30.4899C47.5063 30.2331 47.772 29.8622 47.8985 29.4365L48.0058 29.0945C48.0214 29.0486 48.0214 28.9988 48.0058 28.9528L44.5626 20.1095C44.5501 20.0774 44.5456 20.0428 44.5495 20.0087C44.5534 19.9745 44.5655 19.9418 44.5848 19.9133C44.6041 19.8849 44.63 19.8615 44.6603 19.8453C44.6907 19.829 44.7245 19.8204 44.7588 19.8201H46.4284C46.471 19.8206 46.5125 19.8338 46.5475 19.8582C46.5826 19.8825 46.6094 19.9169 46.6246 19.9567L48.963 26.1936C48.9776 26.235 49.0047 26.2709 49.0406 26.2963C49.0765 26.3216 49.1194 26.3353 49.1633 26.3353C49.2073 26.3353 49.2501 26.3216 49.286 26.2963C49.3219 26.2709 49.349 26.235 49.3637 26.1936L51.3944 19.9739C51.4085 19.9314 51.4356 19.8944 51.4719 19.8683C51.5083 19.8421 51.552 19.8281 51.5967 19.8282H53.3239C53.3585 19.8284 53.3926 19.837 53.4231 19.8532C53.4537 19.8694 53.4799 19.8928 53.4995 19.9213C53.5191 19.9499 53.5314 19.9827 53.5356 20.017C53.5397 20.0514 53.5355 20.0862 53.5233 20.1186L49.8402 29.9394C48.9923 32.222 47.5383 32.8058 45.9376 32.8058C45.6341 32.8139 45.3305 32.7775 45.0371 32.6976C44.9883 32.6847 44.9456 32.655 44.9166 32.6137C44.8875 32.5724 44.8739 32.5222 44.8782 32.4719ZM14.0834 14.6649C11.8899 14.6493 9.77376 15.4749 8.17035 16.9718C8.10179 17.0346 8.05904 17.1207 8.05044 17.2133C8.04183 17.3059 8.06799 17.3983 8.12381 17.4727L9.11641 18.8285C9.14859 18.8737 9.19027 18.9112 9.23851 18.9385C9.28676 18.9658 9.34041 18.9822 9.39567 18.9866C9.45094 18.9909 9.50649 18.9831 9.5584 18.9636C9.61032 18.9442 9.65735 18.9136 9.69618 18.8741C10.2727 18.2977 10.9584 17.842 11.7131 17.5336C12.4677 17.2252 13.2763 17.0704 14.0915 17.0781C17.4953 17.0781 19.2731 19.64 19.2731 22.1696C19.2731 24.9197 17.4053 26.8543 14.7209 26.8928C12.6467 26.8928 11.0834 25.5177 11.0834 23.7015C11.0856 23.2426 11.1895 22.79 11.3877 22.3762C11.586 21.9624 11.8736 21.5977 12.2298 21.3085C12.3051 21.2456 12.3527 21.1557 12.3623 21.058C12.372 20.9604 12.3429 20.8628 12.2814 20.7864L11.2382 19.469C11.2067 19.4292 11.1674 19.3961 11.1229 19.3716C11.0783 19.3472 11.0293 19.3319 10.9788 19.3267C10.9282 19.3216 10.8771 19.3265 10.8286 19.3414C10.78 19.3563 10.7348 19.3808 10.6959 19.4134C10.0552 19.9295 9.53819 20.5826 9.18277 21.3246C8.82735 22.0666 8.64253 22.8787 8.64186 23.7015C8.64186 26.828 11.2989 29.2807 14.7027 29.3009H14.7482C18.7894 29.2483 21.7116 26.2553 21.7116 22.1645C21.7116 18.5321 19.0363 14.6649 14.0845 14.6649H14.0834Z" fill="white"/>
</svg>
