<svg width="63" height="43" viewBox="0 0 63 43" fill="none" xmlns="http://www.w3.org/2000/svg">
<rect x="0.970703" y="0.668243" width="61.2342" height="41.9892" rx="5.24865" fill="white"/>
<rect x="1.21867" y="0.916211" width="60.7383" height="41.4933" rx="5.00068" stroke="#121312" stroke-opacity="0.2" stroke-width="0.495935"/>
<path fill-rule="evenodd" clip-rule="evenodd" d="M15.5728 16.2969C16.3952 16.3663 17.2175 15.8807 17.7315 15.265C18.2369 14.632 18.571 13.7822 18.4853 12.9151C17.7572 12.9498 16.8577 13.4007 16.3438 14.0337C15.8726 14.58 15.47 15.4645 15.5728 16.2969ZM25.3555 27.4655V13.9469H30.3668C32.9538 13.9469 34.7612 15.7506 34.7612 18.3866C34.7612 21.0227 32.9195 22.8437 30.2982 22.8437H27.4285V27.4655H25.3555ZM18.477 16.4616C17.7525 16.4194 17.0915 16.6822 16.5575 16.8944L16.5575 16.8944C16.2139 17.031 15.9229 17.1467 15.7015 17.1467C15.4531 17.1467 15.1501 17.0248 14.8099 16.888C14.3642 16.7088 13.8545 16.5038 13.3201 16.5137C12.0951 16.531 10.9558 17.2334 10.3305 18.352C9.04556 20.5892 9.99641 23.9016 11.2385 25.7226C11.8467 26.6244 12.5749 27.6129 13.5343 27.5782C13.9564 27.5621 14.26 27.4317 14.5742 27.2967C14.936 27.1413 15.3118 26.9799 15.8986 26.9799C16.465 26.9799 16.8244 27.1371 17.1693 27.288C17.4974 27.4315 17.8124 27.5693 18.28 27.5609C19.2737 27.5435 19.899 26.6591 20.5072 25.7573C21.1636 24.7894 21.452 23.8447 21.4958 23.7014L21.5009 23.6848C21.4998 23.6838 21.4917 23.68 21.4774 23.6734C21.258 23.5717 19.581 22.7945 19.5649 20.7106C19.5488 18.9614 20.8951 18.0751 21.107 17.9356C21.1199 17.9271 21.1286 17.9214 21.1325 17.9184C20.2759 16.6351 18.9396 16.4963 18.477 16.4616ZM38.5458 27.5696C39.8479 27.5696 41.0557 26.9019 41.6039 25.844H41.6468V27.4656H43.5656V20.7366C43.5656 18.7856 42.0237 17.5283 39.6508 17.5283C37.4493 17.5283 35.8217 18.8029 35.7617 20.5545H37.6292C37.7834 19.7221 38.5458 19.1758 39.5909 19.1758C40.8587 19.1758 41.5697 19.7741 41.5697 20.8754V21.6211L38.9827 21.7772C36.5755 21.9246 35.2735 22.9218 35.2735 24.6561C35.2735 26.4077 36.6184 27.5696 38.5458 27.5696ZM39.1044 25.9654C37.9993 25.9654 37.2969 25.4278 37.2969 24.604C37.2969 23.7542 37.9736 23.2599 39.2671 23.1819L41.5715 23.0345V23.7976C41.5715 25.0636 40.5093 25.9654 39.1044 25.9654ZM49.9327 27.9945C49.1017 30.3618 48.1509 31.1422 46.1292 31.1422C45.975 31.1422 45.4611 31.1249 45.3411 31.0902V29.4686C45.4696 29.486 45.7866 29.5033 45.9493 29.5033C46.8659 29.5033 47.3799 29.1131 47.6969 28.0986L47.8853 27.5003L44.3732 17.6583H46.5404L48.9818 25.6446H49.0246L51.466 17.6583H53.5733L49.9327 27.9945ZM27.4297 15.7159H29.8197C31.6186 15.7159 32.6466 16.6871 32.6466 18.3953C32.6466 20.1036 31.6186 21.0834 29.8111 21.0834H27.4297V15.7159Z" fill="black"/>
</svg>
