<svg width="62" height="43" viewBox="0 0 62 43" fill="none" xmlns="http://www.w3.org/2000/svg">
<rect x="0.765625" y="0.668213" width="61.2342" height="41.9892" rx="5.24865" fill="white"/>
<rect x="1.01359" y="0.916181" width="60.7383" height="41.4933" rx="5.00068" stroke="#121312" stroke-opacity="0.2" stroke-width="0.495935"/>
<path fill-rule="evenodd" clip-rule="evenodd" d="M29.6862 28.2376V22.9523H32.4141C33.5319 22.9523 34.4754 22.5777 35.2445 21.839L35.4291 21.6518C36.834 20.1224 36.7417 17.7398 35.2445 16.3248C34.4959 15.5757 33.4704 15.17 32.4141 15.1908H28.0352V28.2376H29.6862ZM29.6875 21.35V16.793H32.4568C33.0517 16.793 33.6158 17.0219 34.0363 17.438C34.9287 18.312 34.9492 19.7686 34.0876 20.6737C33.6671 21.1211 33.0722 21.3708 32.4568 21.35H29.6875ZM43.1305 20.0079C42.4229 19.3524 41.4589 19.0195 40.2386 19.0195C38.6696 19.0195 37.4902 19.6021 36.7108 20.757L38.1671 21.683C38.7003 20.8923 39.4284 20.4969 40.3514 20.4969C40.9359 20.4969 41.5 20.7154 41.9409 21.1108C42.3716 21.4853 42.6178 22.0263 42.6178 22.5985V22.9835C41.9819 22.6298 41.182 22.4425 40.1976 22.4425C39.049 22.4425 38.126 22.713 37.4389 23.2644C36.7519 23.8158 36.4032 24.5441 36.4032 25.4701C36.3827 26.3128 36.7416 27.1139 37.3774 27.655C38.0235 28.2376 38.8439 28.5289 39.8079 28.5289C40.9462 28.5289 41.8486 28.0191 42.5357 26.9995H42.6075V28.2376H44.1868V22.7338C44.1868 21.5789 43.8381 20.6634 43.1305 20.0079ZM38.6491 26.5938C38.3106 26.3441 38.1055 25.9383 38.1055 25.5014C38.1055 25.0124 38.3311 24.6066 38.7722 24.2841C39.2235 23.9616 39.7876 23.7951 40.4543 23.7951C41.3774 23.7847 42.0953 23.9928 42.6082 24.4089C42.6082 25.1164 42.3312 25.7303 41.7876 26.2505C41.2953 26.7499 40.6286 27.0308 39.9312 27.0308C39.4696 27.0412 39.0183 26.8851 38.6491 26.5938ZM47.7362 32.16L53.2535 19.3109H51.4588L48.9053 25.7198H48.8745L46.2595 19.3109H44.4648L48.0849 27.6654L46.0339 32.16H47.7362Z" fill="#3C4043"/>
<path d="M23.9847 21.808C23.9847 21.2982 23.9437 20.7884 23.8616 20.289H16.8984V23.171H20.8877C20.7236 24.0969 20.1903 24.9293 19.4109 25.4495V27.3222H21.7901C23.1848 26.0217 23.9847 24.0969 23.9847 21.808Z" fill="#4285F4"/>
<path d="M16.9007 29.1325C18.8901 29.1325 20.572 28.4667 21.7923 27.3222L19.4132 25.4495C18.7466 25.9073 17.8954 26.1674 16.9007 26.1674C14.9727 26.1674 13.3421 24.846 12.7576 23.0773H10.3066V25.0125C11.5578 27.5407 14.1113 29.1325 16.9007 29.1325Z" fill="#34A853"/>
<path d="M12.7574 23.0773C12.4497 22.1514 12.4497 21.1421 12.7574 20.2058V18.281H10.306C9.24956 20.393 9.24956 22.89 10.306 25.0021L12.7574 23.0773Z" fill="#FBBC04"/>
<path d="M16.9007 17.1157C17.9569 17.0949 18.9722 17.5007 19.7311 18.2394L21.8436 16.0961C20.5002 14.8268 18.7363 14.1297 16.9007 14.1505C14.1113 14.1505 11.5578 15.7528 10.3066 18.281L12.7576 20.2162C13.3421 18.437 14.9727 17.1157 16.9007 17.1157Z" fill="#EA4335"/>
</svg>
