<svg width="21" height="22" viewBox="0 0 21 22" fill="none" xmlns="http://www.w3.org/2000/svg">
<path d="M18.2413 13.1665L14.3768 11.4348L14.3661 11.4299C14.1655 11.3441 13.9467 11.3096 13.7294 11.3297C13.5121 11.3497 13.3033 11.4236 13.1217 11.5447C13.1004 11.5588 13.0798 11.5742 13.0602 11.5907L11.0636 13.2928C9.79864 12.6784 8.4927 11.3823 7.87829 10.1338L9.5829 8.10679C9.5993 8.08628 9.61489 8.06577 9.62966 8.04362C9.74813 7.86258 9.82001 7.65506 9.83891 7.43952C9.8578 7.22399 9.82311 7.00712 9.73794 6.80823V6.79839L8.00134 2.92733C7.88874 2.66751 7.69513 2.45107 7.44942 2.31033C7.2037 2.16958 6.91906 2.11208 6.63798 2.1464C5.52643 2.29266 4.50613 2.83855 3.76765 3.6821C3.02916 4.52565 2.623 5.60917 2.62501 6.7303C2.62501 13.2436 7.92423 18.5428 14.4375 18.5428C15.5586 18.5448 16.6422 18.1386 17.4857 17.4002C18.3293 16.6617 18.8751 15.6414 19.0214 14.5298C19.0558 14.2488 18.9984 13.9643 18.8578 13.7186C18.7172 13.4729 18.501 13.2792 18.2413 13.1665ZM14.4375 17.2303C11.6537 17.2273 8.98472 16.12 7.01624 14.1516C5.04777 12.1831 3.94055 9.51414 3.93751 6.7303C3.93442 5.92926 4.22302 5.15448 4.7494 4.55066C5.27578 3.94683 6.00396 3.55526 6.79794 3.44905C6.79761 3.45233 6.79761 3.45562 6.79794 3.4589L8.52059 7.31437L6.82501 9.34382C6.8078 9.36362 6.79216 9.38474 6.77825 9.40698C6.6548 9.59641 6.58239 9.81451 6.56802 10.0401C6.55364 10.2658 6.5978 10.4913 6.69622 10.6949C7.43942 12.2149 8.97094 13.735 10.5074 14.4773C10.7124 14.5748 10.9393 14.6175 11.1657 14.6011C11.3922 14.5847 11.6105 14.5098 11.7994 14.3838C11.8204 14.3696 11.8407 14.3543 11.8601 14.3379L13.8543 12.6366L17.7097 14.3633C17.7097 14.3633 17.7163 14.3633 17.7188 14.3633C17.6139 15.1584 17.2229 15.8881 16.6189 16.4157C16.015 16.9434 15.2395 17.233 14.4375 17.2303Z" fill="#7FBE24"/>
</svg>
