<svg width="26" height="26" viewBox="0 0 26 26" fill="none" xmlns="http://www.w3.org/2000/svg">
<rect width="26" height="26" rx="13" fill="white"/>
<path d="M19.9996 16.5025V18.6142C20.0004 18.8103 19.9602 19.0043 19.8817 19.184C19.8031 19.3636 19.6879 19.5248 19.5435 19.6574C19.399 19.7899 19.2285 19.8908 19.0428 19.9536C18.8571 20.0164 18.6603 20.0397 18.465 20.0221C16.299 19.7867 14.2183 19.0466 12.3902 17.8611C10.6895 16.7803 9.24748 15.3383 8.16674 13.6376C6.9771 11.8012 6.23677 9.71041 6.00571 7.53461C5.98812 7.33995 6.01126 7.14376 6.07364 6.95854C6.13603 6.77331 6.2363 6.60311 6.36807 6.45875C6.49984 6.3144 6.66022 6.19907 6.839 6.1201C7.01779 6.04113 7.21106 6.00025 7.40651 6.00007H9.51826C9.85987 5.99671 10.1911 6.11768 10.4501 6.34043C10.7091 6.56319 10.8783 6.87253 10.9261 7.2108C11.0152 7.88661 11.1805 8.55016 11.4188 9.18881C11.5135 9.44076 11.534 9.71457 11.4779 9.97781C11.4218 10.2411 11.2913 10.4827 11.1021 10.6741L10.2081 11.568C11.2102 13.3303 12.6693 14.7895 14.4316 15.7915L15.3256 14.8976C15.5169 14.7083 15.7586 14.5779 16.0218 14.5217C16.2851 14.4656 16.5589 14.4861 16.8108 14.5808C17.4495 14.8191 18.113 14.9844 18.7888 15.0735C19.1308 15.1218 19.4431 15.294 19.6663 15.5575C19.8895 15.821 20.0081 16.1573 19.9996 16.5025Z" fill="#00783B"/>
</svg>
