<svg width="75" height="75" viewBox="0 0 75 75" fill="none" xmlns="http://www.w3.org/2000/svg">
<rect x="1.70668" y="1.5522" width="71.5867" height="71.5867" rx="35.1867" fill="white"/>
<rect x="1.70668" y="1.5522" width="71.5867" height="71.5867" rx="35.1867" stroke="#CC4C05" stroke-width="2.42667"/>
<path fill-rule="evenodd" clip-rule="evenodd" d="M33.9328 24.7511C33.6444 24.5347 33.3014 24.403 32.9423 24.3706C32.5833 24.3383 32.2223 24.4065 31.8998 24.5677C31.5773 24.729 31.3061 24.9768 31.1166 25.2835C30.9271 25.5902 30.8267 25.9436 30.8267 26.3041V49.6001C30.8267 49.9607 30.9271 50.3141 31.1166 50.6207C31.3061 50.9274 31.5773 51.1753 31.8998 51.3365C32.2223 51.4977 32.5833 51.566 32.9423 51.5336C33.3014 51.5012 33.6444 51.3695 33.9328 51.1532L49.4635 39.5052C49.7046 39.3244 49.9003 39.0899 50.035 38.8203C50.1698 38.5508 50.24 38.2535 50.24 37.9521C50.24 37.6507 50.1698 37.3535 50.035 37.0839C49.9003 36.8144 49.7046 36.5799 49.4635 36.3991L33.9328 24.7511Z" fill="#CC4C05"/>
</svg>
