<svg width="14" height="14" viewBox="0 0 14 14" fill="none" xmlns="http://www.w3.org/2000/svg">
<path d="M13.0303 7.54254C13.171 7.40189 13.25 7.21112 13.25 7.01221C13.25 6.81329 13.171 6.62253 13.0303 6.48188C12.8897 6.34122 12.6989 6.26221 12.5 6.26221H7.75V1.51221C7.75 1.3133 7.67098 1.12253 7.53033 0.981877C7.38968 0.841225 7.19891 0.762207 7 0.762207C6.80109 0.762207 6.61032 0.841225 6.46967 0.981877C6.32902 1.12253 6.25 1.31329 6.25 1.51221V6.26221H1.5C1.30109 6.26221 1.11032 6.34123 0.96967 6.48188C0.829018 6.62253 0.75 6.81329 0.75 7.01221C0.75 7.21112 0.829018 7.40189 0.96967 7.54254C1.11032 7.68319 1.30109 7.76221 1.5 7.76221H6.25V12.5122C6.25 12.7111 6.32902 12.9019 6.46967 13.0425C6.61032 13.1832 6.80109 13.2622 7 13.2622C7.19891 13.2622 7.38968 13.1832 7.53033 13.0425C7.67098 12.9019 7.75 12.7111 7.75 12.5122V7.76221H12.5C12.6989 7.76221 12.8897 7.68319 13.0303 7.54254Z" fill="#7FBE24" stroke="#7FBE24" stroke-width="0.5"/>
</svg>
