<svg width="24" height="25" viewBox="0 0 24 25" fill="none" xmlns="http://www.w3.org/2000/svg">
<g clip-path="url(#clip0_10007_6260)">
<path d="M20 17.6261C20.3852 17.6263 20.7556 17.7747 21.0344 18.0405C21.3132 18.3064 21.479 18.6693 21.4975 19.054C21.516 19.4388 21.3858 19.816 21.1338 20.1073C20.8818 20.3987 20.5274 20.582 20.144 20.6191L20 20.6261H4C3.61478 20.6259 3.24441 20.4776 2.96561 20.2117C2.68682 19.9459 2.52099 19.583 2.50248 19.1982C2.48396 18.8134 2.61419 18.4363 2.86618 18.1449C3.11816 17.8536 3.47258 17.6703 3.856 17.6331L4 17.6261H20ZM20 10.6261C20.3978 10.6261 20.7794 10.7842 21.0607 11.0655C21.342 11.3468 21.5 11.7283 21.5 12.1261C21.5 12.524 21.342 12.9055 21.0607 13.1868C20.7794 13.4681 20.3978 13.6261 20 13.6261H4C3.60218 13.6261 3.22064 13.4681 2.93934 13.1868C2.65804 12.9055 2.5 12.524 2.5 12.1261C2.5 11.7283 2.65804 11.3468 2.93934 11.0655C3.22064 10.7842 3.60218 10.6261 4 10.6261H20ZM20 3.62613C20.3978 3.62613 20.7794 3.78416 21.0607 4.06547C21.342 4.34677 21.5 4.7283 21.5 5.12613C21.5 5.52395 21.342 5.90548 21.0607 6.18679C20.7794 6.46809 20.3978 6.62613 20 6.62613H4C3.60218 6.62613 3.22064 6.46809 2.93934 6.18679C2.65804 5.90548 2.5 5.52395 2.5 5.12613C2.5 4.7283 2.65804 4.34677 2.93934 4.06547C3.22064 3.78416 3.60218 3.62613 4 3.62613H20Z" fill="#121312"/>
</g>
<defs>
<clipPath id="clip0_10007_6260">
<rect width="24" height="24" fill="white" transform="translate(0 0.126129)"/>
</clipPath>
</defs>
</svg>
