<svg width="23" height="18" viewBox="0 0 23 18" fill="none" xmlns="http://www.w3.org/2000/svg">
<path d="M17.6343 0.356934C20.5977 0.356934 23 2.73916 23 5.67802C23 8.61586 20.5977 10.9981 17.6343 10.9981C17.6343 10.9981 17.6603 12.9746 19.28 15.8193C19.4599 16.3893 19.1392 16.9963 18.5639 17.1737C18.1557 17.301 17.7261 17.1772 17.4488 16.8892C13.7245 12.8509 12.2667 8.098 12.2667 5.67802C12.2667 2.73916 14.6689 0.356934 17.6343 0.356934Z" fill="#121312" fill-opacity="0.2"/>
<path d="M5.3677 0.356934C8.33108 0.356934 10.7333 2.7392 10.7333 5.67802C10.7333 8.61586 8.33108 10.9981 5.3677 10.9981C5.3677 10.9981 5.39366 12.9746 7.01334 15.8193C7.19326 16.3893 6.8725 16.9963 6.29723 17.1737C5.88903 17.301 5.4595 17.1772 5.18218 16.8892C1.45787 12.8509 4.76837e-06 8.098 4.76837e-06 5.67802C4.76837e-06 2.73916 2.40226 0.356934 5.3677 0.356934Z" fill="#121312" fill-opacity="0.2"/>
</svg>
