<svg width="104" height="16" viewBox="0 0 104 16" fill="none" xmlns="http://www.w3.org/2000/svg">
<path d="M7.79769 12.6981L11.5795 14.9854C12.272 15.4046 13.1195 14.7849 12.9373 14.0012L11.9349 9.70001L15.2792 6.80217C15.8898 6.27364 15.5617 5.27124 14.7598 5.20745L10.3584 4.83383L8.63606 0.769569C8.32623 0.0314409 7.26916 0.0314409 6.95933 0.769569L5.23703 4.82472L0.835595 5.19834C0.0336782 5.26213 -0.294379 6.26452 0.316172 6.79306L3.66053 9.6909L2.65813 13.9921C2.47588 14.7758 3.32336 15.3954 4.01592 14.9763L7.79769 12.6981Z" fill="#00783B"/>
<path d="M29.8986 12.6981L33.6804 14.9854C34.373 15.4046 35.2205 14.7849 35.0382 14.0012L34.0358 9.70001L37.3802 6.80217C37.9907 6.27364 37.6627 5.27124 36.8607 5.20745L32.4593 4.83383L30.737 0.769569C30.4272 0.0314409 29.3701 0.0314409 29.0603 0.769569L27.338 4.82472L22.9365 5.19834C22.1346 5.26213 21.8066 6.26452 22.4171 6.79306L25.7615 9.6909L24.7591 13.9921C24.5768 14.7758 25.4243 15.3954 26.1169 14.9763L29.8986 12.6981Z" fill="#00783B"/>
<path d="M52.0001 12.6981L55.7819 14.9854C56.4745 15.4046 57.322 14.7849 57.1397 14.0012L56.1373 9.70001L59.4817 6.80217C60.0922 6.27364 59.7642 5.27124 58.9622 5.20745L54.5608 4.83383L52.8385 0.769569C52.5287 0.0314409 51.4716 0.0314409 51.1618 0.769569L49.4395 4.82472L45.038 5.19834C44.2361 5.26213 43.9081 6.26452 44.5186 6.79306L47.863 9.6909L46.8606 13.9921C46.6783 14.7758 47.5258 15.3954 48.2184 14.9763L52.0001 12.6981Z" fill="#00783B"/>
<path d="M74.1012 12.6981L77.8829 14.9854C78.5755 15.4046 79.423 14.7849 79.2407 14.0012L78.2383 9.70001L81.5827 6.80217C82.1932 6.27364 81.8652 5.27124 81.0633 5.20745L76.6618 4.83383L74.9395 0.769569C74.6297 0.0314409 73.5726 0.0314409 73.2628 0.769569L71.5405 4.82472L67.1391 5.19834C66.3371 5.26213 66.0091 6.26452 66.6196 6.79306L69.964 9.6909L68.9616 13.9921C68.7793 14.7758 69.6268 15.3954 70.3194 14.9763L74.1012 12.6981Z" fill="#00783B"/>
<path d="M96.2021 12.6981L99.9839 14.9854C100.676 15.4046 101.524 14.7849 101.342 14.0012L100.339 9.70001L103.684 6.80217C104.294 6.27364 103.966 5.27124 103.164 5.20745L98.7628 4.83383L97.0405 0.769569C96.7306 0.0314409 95.6736 0.0314409 95.3637 0.769569L93.6414 4.82472L89.24 5.19834C88.4381 5.26213 88.11 6.26452 88.7206 6.79306L92.0649 9.6909L91.0626 13.9921C90.8803 14.7758 91.7278 15.3954 92.4203 14.9763L96.2021 12.6981Z" fill="#00783B"/>
</svg>
