<svg width="96" height="14" viewBox="0 0 96 14" fill="none" xmlns="http://www.w3.org/2000/svg">
<path d="M7.19149 11.7572L10.6793 13.8667C11.318 14.2533 12.0996 13.6818 11.9315 12.959L11.007 8.99222L14.0914 6.31966C14.6545 5.83222 14.3519 4.90775 13.6123 4.84892L9.55309 4.50434L7.96468 0.756042C7.67894 0.0752971 6.70404 0.0752971 6.4183 0.756042L4.82989 4.49594L0.770635 4.84051C0.03106 4.89934 -0.271493 5.82381 0.291592 6.31126L3.37595 8.98381L2.45149 12.9506C2.2834 13.6734 3.065 14.2449 3.70372 13.8583L7.19149 11.7572Z" fill="#00783B"/>
<path d="M27.5743 11.7572L31.0621 13.8667C31.7008 14.2533 32.4824 13.6818 32.3143 12.959L31.3898 8.99222L34.4742 6.31966C35.0373 5.83222 34.7347 4.90775 33.9952 4.84892L29.9359 4.50434L28.3475 0.756042C28.0617 0.0752971 27.0869 0.0752971 26.8011 0.756042L25.2127 4.49594L21.1534 4.84051C20.4139 4.89934 20.1113 5.82381 20.6744 6.31126L23.7588 8.98381L22.8343 12.9506C22.6662 13.6734 23.4478 14.2449 24.0865 13.8583L27.5743 11.7572Z" fill="#00783B"/>
<path d="M47.9576 11.7572L51.4454 13.8667C52.0841 14.2533 52.8657 13.6818 52.6976 12.959L51.7731 8.99222L54.8575 6.31966C55.4206 5.83222 55.118 4.90775 54.3785 4.84892L50.3192 4.50434L48.7308 0.756042C48.445 0.0752971 47.4702 0.0752971 47.1844 0.756042L45.596 4.49594L41.5367 4.84051C40.7972 4.89934 40.4946 5.82381 41.0577 6.31126L44.1421 8.98381L43.2176 12.9506C43.0495 13.6734 43.8311 14.2449 44.4698 13.8583L47.9576 11.7572Z" fill="#00783B"/>
<path d="M68.3404 11.7572L71.8282 13.8667C72.4669 14.2533 73.2485 13.6818 73.0804 12.959L72.1559 8.99222L75.2403 6.31966C75.8034 5.83222 75.5008 4.90775 74.7613 4.84892L70.702 4.50434L69.1136 0.756042C68.8279 0.0752971 67.853 0.0752971 67.5672 0.756042L65.9788 4.49594L61.9196 4.84051C61.18 4.89934 60.8774 5.82381 61.4405 6.31126L64.5249 8.98381L63.6004 12.9506C63.4323 13.6734 64.2139 14.2449 64.8526 13.8583L68.3404 11.7572Z" fill="#00783B"/>
<path d="M88.7232 11.7572L92.211 13.8667C92.8497 14.2533 93.6313 13.6818 93.4632 12.959L92.5388 8.99222L95.6231 6.31966C96.1862 5.83222 95.8837 4.90775 95.1441 4.84892L91.0848 4.50434L89.4964 0.756042C89.2107 0.0752971 88.2358 0.0752971 87.95 0.756042L86.3616 4.49594L82.3024 4.84051C81.5628 4.89934 81.2602 5.82381 81.8233 6.31126L84.9077 8.98381L83.9832 12.9506C83.8151 13.6734 84.5967 14.2449 85.2355 13.8583L88.7232 11.7572Z" fill="#00783B"/>
</svg>
